<svg xmlns="http://www.w3.org/2000/svg" width="259.809" height="78.728" viewBox="0 0 259.809 78.728">
  <g id="FOX" transform="translate(0)">
    <path id="Path_1" data-name="Path 1" d="M-234.954,48.384c.658-.095,1.228-.08,1.836-.212a7.679,7.679,0,0,0-1.836.212" transform="translate(291.908 -38.942)"/>
    <path id="Path_2" data-name="Path 2" d="M-205.751,49.41a2.736,2.736,0,0,0-1.009.03,2.434,2.434,0,0,0,1.009-.03" transform="translate(305.757 -32.1)"/>
    <path id="Path_3" data-name="Path 3" d="M-193.488,51.111l-.061.005a.427.427,0,0,0,.061-.005" transform="translate(313.292 -30.947)"/>
    <path id="Path_4" data-name="Path 4" d="M-162.878,57h.041v.016c.032-.02.065-.04.1-.057a.386.386,0,0,0-.172.041h.033Z" transform="translate(336.462 -26.498)"/>
    <path id="Path_5" data-name="Path 5" d="M-165.105,56.56a.344.344,0,0,0,.08-.035.39.39,0,0,1,.089-.037c.029-.008.059-.018.083-.026l.037-.015a.809.809,0,0,0,.308-.232c-.183.11-.389.194-.582.3l-.111.065a.582.582,0,0,0,.095-.014" transform="translate(336.91 -26.333)"/>
    <path id="Path_6" data-name="Path 6" d="M-138.717,48.58a4.526,4.526,0,0,0,1.257-.362,6.164,6.164,0,0,0-1.257.362" transform="translate(392.306 -32.645)"/>
    <path id="Path_7" data-name="Path 7" d="M-255.491,69.2a.519.519,0,0,1-.139-.459c0-.063.033-.137.162-.191l.127-.075-.039-.143a.688.688,0,0,1,0-.16.425.425,0,0,0,.1-.179,1.05,1.05,0,0,1,.157-.106,2.069,2.069,0,0,0,.742-.605,2.8,2.8,0,0,0,.5-.207,2.1,2.1,0,0,1,.575-.21l.063-.023.05-.052a.432.432,0,0,0,.1-.108.994.994,0,0,0,.222-.247,9.237,9.237,0,0,0,1.457-.795,6.882,6.882,0,0,1,1.9-.916l.071-.009.042-.052a1.308,1.308,0,0,1,.767-.388l.068-.009.045-.054a.7.7,0,0,1,.108-.083,1.061,1.061,0,0,0,.283-.294,6.064,6.064,0,0,0,1.809-.821,4.031,4.031,0,0,1,2.245-.8,3.588,3.588,0,0,1,.582.045.235.235,0,0,1,.056.019c.706-.356,1.278-.73,1.325-1.184a4.188,4.188,0,0,1,1.984-.657c-.012.558-.862.311-.876.862.977-.252,1.643-.826,2.646-1.073a40.893,40.893,0,0,1-3.545,2.618s-.032.075-.051.123c-.092.045-.205.1-.3.134-.035,0-.054.017-.075.017-.445.306-.887.629-1.325.942l.233.066a10.959,10.959,0,0,0,2.742.4c.169,0,.334-.024.5-.024.045.023.076.03.076.061a.968.968,0,0,0-.391.165.466.466,0,0,1-.37.151l-.1,0-.163-.021-.052.129h-.073a.384.384,0,0,0-.073.057c-.04-.028-.061-.057-.1-.057h-.116a1.6,1.6,0,0,0-.485.28.206.206,0,0,0-.1.07l.011.04a.25.25,0,0,1-.193.057.17.17,0,0,1-.069.023l-.014-.023a12.358,12.358,0,0,0-1.379.137.719.719,0,0,0-.155.085.4.4,0,0,0-.155-.023,1.214,1.214,0,0,0-.428.089,1.126,1.126,0,0,1-.292.056l-.083.4a1.916,1.916,0,0,0,.746.143.864.864,0,0,0,.412-.075c1.945.181,3.4.311,4.342.374l.021.023a2.182,2.182,0,0,1-1.064.36.936.936,0,0,1-.4-.077l-.087-.019-.052.019a15.963,15.963,0,0,1-2.775.428l-.271.028-.028.412.473.085c.4.073.816.153,1.238.243a3.167,3.167,0,0,0,1.669.358l.012.012a1.083,1.083,0,0,0-.449.155,1.974,1.974,0,0,1-.243.1h-.405a.883.883,0,0,0-.282.089.618.618,0,0,1-.214.061,2.535,2.535,0,0,1-.564.04,7.181,7.181,0,0,1-.763-.04,7.284,7.284,0,0,0-.8-.038l-.847.012.629.379a3.821,3.821,0,0,0,.884.315l.13.047a4.328,4.328,0,0,0,.518.113,1.653,1.653,0,0,1,.721.216l.021.07a.465.465,0,0,0,.261.353.846.846,0,0,0,.334.068h.151a.758.758,0,0,0,.064.1,1.606,1.606,0,0,0-.617.294,11.709,11.709,0,0,0-1.259-.064c-.247,0-.518.017-.772.017-.28,0-.532.012-.805.012a7.657,7.657,0,0,1-2.146-.238c-.066-.017-.094-.04-.153-.054a1.267,1.267,0,0,0-.568-.139,1.255,1.255,0,0,0-.445.08.866.866,0,0,0-.285.15,1.257,1.257,0,0,1-.118.085c-.061.017-.132.028-.223.057-.2.05-.539.132-.57.49l-.007.063.033.035a2.15,2.15,0,0,0,1.068.892c.181.106.357.214.52.306-.071.108-.236.184-.638.184h-.062a4.18,4.18,0,0,1-1.763-.348,4.006,4.006,0,0,1-.705-.57.282.282,0,0,1-.047-.071.982.982,0,0,0-.163-.283,1.621,1.621,0,0,0-.57-.3,4.168,4.168,0,0,1-.405-.177.319.319,0,0,0-.15-.2,3.185,3.185,0,0,0-.41-.179.988.988,0,0,1-.3-.116.071.071,0,0,0-.026-.033.349.349,0,0,0-.172-.223,1.825,1.825,0,0,0-.616-.151c-.075-.009-.116-.028-.179-.031a2.928,2.928,0,0,0-1.25-.753c-.935.332-2.356.214-2.836,1,.9.028.052.148,0,.433,1.49.3,2.87-.645,3.982,0-.675.645-2.351.308-2.867,1.073,1.788.11,3.615-.888,5.286-.219-1.32.666-3.663.323-4.628,1.334,1.014.259,1.951-.675,2.645,0-.751.123-2.579.339-1.993,1.075,3.368-1.221,9.989-.247,13.91,1.073-2.335.071-5.65-1.01-7.08-.44,3.013.906,7.111.708,9.959,1.739-3.309.454-6.744-1.127-8.617-.648,1.007.541,2.457.635,3.538,1.074-.57-.228-1.251.466-.666.675a15.291,15.291,0,0,1,7.73.619c-2.253.407-5.178.12-7.063.881,5.091-.268,8.292.322,12.58.212-.747.414-2.163.172-2.848.645,2.917.45,5.92-.156,8.815-.216-1.029.292-2.519.139-3.088.869,1.56.07,3.4-.7,4.408-.449-.388.5-1.674.075-1.771.88,1.342.08,2.7-.982,3.761-.436-.509-.073-.819.047-.885.435,1.344,0,1.947-.7,3.3-.668-.052.266-1.163.551-.427.876a7.6,7.6,0,0,1,2.863-1.092c-.163.64-1.178.423-1.1,1.3a39.992,39.992,0,0,1,4.409-1.951c-.535.928-2.509,1.558-2.2,2.608a15.821,15.821,0,0,1,4.846-3.038c-.068.32-.357.369-.419.657.53.278.9-.647,1.082,0-.829.541-2.059.729-2.641,1.514,2.5-.852,5.061-2.184,7.949-1.518-.551.117-1.339-.019-1.328.636,4.668-1.062,9.556-1.179,14.169-2.257.1-.13.388-.113.624-.13-.211.05-.412.1-.624.13a.3.3,0,0,0-.031.3,15.322,15.322,0,0,0,5.295-1.3c1.052,1.057,3.095-.518,4.406-.645-.071.405-.859.165-.661.862,7.075-1.523,10.178-8.8,19.411-8.906-.365,3.262-3.373,5.743-3.744,9.752.317.539.843-.226.9.219-.083.656-.541,1.568-.222,1.949.36.412.756-.216.881.662-.071.934-.582,1.441-.655,2.375.52.176.942-.76,1.1-.229.2,1.5-.516,2.1-.436,3.481-2.958,2.839-9.389,1.657-12.8,3.895-1.274.854-1.2,2.443-2.645,3.043-.181.614.317.567.23,1.082-2.115,2.535-3.257,5.691-5.086,8.021-.315,4-5.588,5.972-4.185,11.7,2.79,1.72,8.911,2.154,12.38.633l0-.431c2.294-3.559-3.174-3.825-3.326-6.287-.137-2.478,3.733-5.22,3.971-7.367-.391-.08-.576.334-.654,0,1.374-2.658,4.7-2.808,7.27-3.884-.312.626-1.023.871-1.332,1.507,1.8-1.316,3.382-.1,5.1-1.1a.869.869,0,0,0,.21.659c.708-.09.969-.638,1.537-.869.026.263-.038.614.224.655.973-1.243,1.73-.137,2.853-1.308,0,.282-.264.3-.2.65,1.315-.247,1.2-1.165,2.872-.654a89.344,89.344,0,0,1,8.169-3.9c-2.118,2.4-6.045,3.457-5.077,8.224.391.567,1.2.7,1.106,1.742.551.268.7-.859.876-.214a12.1,12.1,0,0,0,1.772,5.833,22.885,22.885,0,0,1,.875,3.037c.561,1.492,1.575,2.883,2.017,3.881.41,1,.343,2.146,1.085,2.6,2.7,1.723,5.393-.615,8.836-.007,3.775-5.133-2.356-5.256-5.518-7.774a6.475,6.475,0,0,1-2-6.289c-.024-.342-.558-.16-.43-.645.819-1.561.7-4.053,2.205-4.978.725.838,1.055-1.294,1.528-.661-1.014.616.341.275.231.859,1.292-.548,2.6-1.436,3.526-1.925a6.158,6.158,0,0,0-.664,1.064c1.792-.016,2.37-1.283,3.538-2.372-.186.676-.829.906-.878,1.725.96-.19,1.078-1.334,1.979-.421,1.1-1.467,3.112-2.008,3.985-3.695-.04.678-.513.948-.455,1.733,2.114-.742,2.13-3.178,4.634-3.039.572,1.25,2.347-.144,3.326.431-.553.106-1.342-.01-1.341.657.456-.09,1.655-.537,1.987,0-.781.092-1.7.042-1.987.654,1.123-.167,3.105-.586,3.989-.231-.9.423-2.208.445-2.864,1.094,1.447.2,2.646-1,3.733-.442-.412.339-1.236.231-1.539.643,1.259.016,1.93-.562,3.3-.419-.125.687.8.278.229.855,2.067-.327,3.489-1.344,5.513-1.739-.553.814-1.777.995-2.643,1.525,1.247.165,1.617-.574,2.643-.647-.511.435-1.031.857-1.54,1.3,1.048.017,1.208-.842,2.2-.883-.3.289-.3.812.208.882.475-1.212,1.972-1.4,3.092-1.951-.127.657-1.176.412-1.32,1.068,2.686-.113,5.458-1.1,7.937-1.511-.539.209-1.271.209-1.323.864a1.26,1.26,0,0,0,.675-.209c-.157.516-1.627.852-1.125,1.29a38.12,38.12,0,0,1,4.872-2.159c-.537,1.139-2.851,1.667-2.881,2.6a45,45,0,0,0,6.835-3.695c-.967,1.427-2.271,2.512-3.067,4.117.638.181,1.083-.915,1.313-.426A3.239,3.239,0,0,0-99.4,96.354c.727.214.667.379.224.859,1.118.31,1.128-1.627,1.761-1.066a3.378,3.378,0,0,0-.875,3.886c.072-.438.637-1.518.877-1.073a5.907,5.907,0,0,0,0,4.967c.123-.386.123-.9.45-1.081a8.72,8.72,0,0,1,.431,2.613c.3.516.826-.247.892.207,1.589,3.321-.7,9,1.1,11.682,2.538.763,8.764.456,11.265-.869.047-1.271-.8-1.678-1.111-2.6.33-.037.808.076.888-.212a8.023,8.023,0,0,0-3.083-1.278c-4.241-2.765-4.362-11.255-2.893-17.123.174-.052.263-.177.228-.424.821.275,1.561-1.54,2.219-1.3a.208.208,0,0,0,0,.416,29.662,29.662,0,0,1,1.973-2.375c.106.765-.774.532-.666,1.308,1.329-.132,1.473-1.059,1.539.216a13.886,13.886,0,0,1,4.192-3.895c-.023.245-.379.468,0,.645.572-.459.485-1.547,1.537-1.53-.859,1.775.483,3.519,1.116,4.774.047-.325-.071-.807.228-.868a.624.624,0,0,0,.885,0c1.245,2.669,4.912,1.97,8.384,2.149.445-.045.057-.953.671-.855a1.316,1.316,0,0,0,2.211,0c1.266,2.232,3.34,3.792,3.523,7.572-1.814,1.194-4.251.056-5.727,1.3-1.6,1.328-.982,4.223-1.1,6.5a8.448,8.448,0,0,0,2.2,1.3c1.153-.539,2.6-.574,3.775-1.53,0,.268.047.52.423.423,1.24-4.039,7.932-2.758,7.283-8.662-1.208-1.874-2.624-4-2.893-6.694-.066-.916.367-1.949.247-2.822-.45-2.836-2.994-2.971-5.313-4.11,1.669-.236,3.544-.3,4.644-1.071-.176.744-1.353.549-1.323,1.507.819-.2,1.16-.885,1.991-1.083-.1.5-1.41.9-.668,1.509.17-.5,1.08-1.387,1.3-1.078a.6.6,0,0,0-.423.65c1.09-.389,1.675-1.248,2.641-1.716-.436.756-1.3,1.148-1.756,1.921,1.617-.567,2.353-2.012,3.985-2.594a17.46,17.46,0,0,1-3.317,3.027c2.483-1.375,5.139-2.618,7.727-3.9-.143.668-1.772.988-1.3,1.544.791-.525,1.318-1.288,2.4-1.546.638,1.019,2.066-.555,3.764-.223-.761.577-1.865.781-2.657,1.3,1.445.061,2.029-.749,3.309-.841-.047.3-.362.348-.433.64a68.014,68.014,0,0,0,11.472-2.829c.087.664-1.85.475-1.311.857,6.939-2.5,17.952-.214,25.6-2.165,1.146-2.4,5.248-2.641,4.208-6.506-5.062-2.271-9.791-2.74-12.616-6.282-3.22-4.074-4.229-9.114-9.714-10.377,1.786-3.027,4.515-5.1,4.416-9.973.416-.026.148-.716.666-.662.41-.045.466.254.873.224.026-.732-.831-.638-1.538-.654.146-.541.208-.882-.235-1.294-1.066.84-3.486,1.5-4.19,1.953.638-3.151-1.156-5.731-.443-7.577-.937-.2-.848.614-1.54.661.026-.275.381-.5,0-.659-3.247,2.307-5.043,6.026-7.294,9.326-2.5.784-5.16,3.67-8.374,4.331A25.134,25.134,0,0,1-55.48,52.142c-.309.61,1.177.535.431.852-2.058-.72-4.695-.275-6.845-1.72-.5.3.275.53-.221.654-.5-.388-1.537-.2-2-.652-.706-.268-.157.7-.861.436a45.485,45.485,0,0,0-5.515-1.525c-3.606,1.361-8.335-1.779-12.157-.626-.946-.156-2.867-.489-3.745,0,.275.513,1.739-.115,1.97.424a19.849,19.849,0,0,0-8.165,1.087c-.089.377.348.555,0,.661-1.716.836-4.161.975-6.409,1.294-1.247-.136-1.247.381,0,.226,1.379.186,3.258-.283,3.98,0-2.392.612-5.8.2-7.949,1.09,3.625.1,7.544-.7,10.6-.456-3.82,1.135-10.926.205-13.028,1.744a101.46,101.46,0,0,1-11.691.01,1.046,1.046,0,0,1,.9.443c-1.111-.356-2.681-.254-3.757-.638,0,.85,1.481.283,1.761.849-14-.269-24.962-7.108-39.728-4.291,1.508.464,4-.026,5.3.635-2.107.353-5.8-.589-7.734.44.341.042.824-.083.887.224a3.588,3.588,0,0,0-2.652.869,54.083,54.083,0,0,0-17.663-1.513c-1.374.026,0,.374.669.223.015.424.852-.376.885.435-11.374.03-21.88-2.472-33.333-1.488-4.44,1.551-12.419.8-17.008,2.613-2.083,1.873-8.735,1.1-11.03,3.477-8.6,2.985-13.878,9.2-22.73,11.919,2.5.191,5.014-.567,6.826-.636m158.227,31.4c-.541.292.252-1.5.422-1.928.5.433-.532,1.184-.422,1.928m39.07-4.133c-.61-.264-.41-1.337-.454-2.159.344.5.805,1.629.454,2.159m-.456-6.273c-.452.219-1.78-.549-1.977-1.3.909-.692,1.566.763,1.977,1.3m-182.5-26.021a1.659,1.659,0,0,0-.717-.179c-.12-.071-.12-.216-.308-.25.061-.063.163-.092.179-.177.252,0,.324.07.572.049.17-.049.113-.094.149-.195a11.593,11.593,0,0,1,3.776-.53,23.575,23.575,0,0,1,2.5-.054,2.811,2.811,0,0,1,1.62.419c.01.311-.5.306-.568.544a16.743,16.743,0,0,1-7.2.374m7.963.948c.355-.026.737-.061,1.076-.061a3.389,3.389,0,0,1,.751.078c.1.038.216.064.3.106a2.006,2.006,0,0,0,.549.139.489.489,0,0,0,.211.223,1.6,1.6,0,0,1-.873.475,2.9,2.9,0,0,0-.793.294.417.417,0,0,0-.134-.024h-.085a9.949,9.949,0,0,1-1.558.132,3.012,3.012,0,0,1-1.917-.461l.035-.083a.8.8,0,0,0,.108-.276,9.032,9.032,0,0,1,1.04-.372c.094-.028.13-.057.2-.075.04-.031.04-.037.181-.037.273,0,.572-.038.91-.057m-4.338,7.807a23.183,23.183,0,0,0-2.436.153,8.57,8.57,0,0,1-.949-.358.377.377,0,0,1-.131-.064l.311-.009-.209-.268a1.013,1.013,0,0,0,.07-.179,4.507,4.507,0,0,1,2.293-.433,4.84,4.84,0,0,1,.528-.021c.287-.019.575-.019.873-.021a11.432,11.432,0,0,1,1.8.125,1.289,1.289,0,0,1,.318.073,2.35,2.35,0,0,0,.675.115,1.243,1.243,0,0,0,.51-.1c.047.017.068.047.113.057a.162.162,0,0,0,.042.137v.023h-.024a.63.63,0,0,0-.171.257,9.872,9.872,0,0,1-3.615.516m8.419,3.851h-.15a1.229,1.229,0,0,1-.328-.07l-.042-.005h-.024a.349.349,0,0,0-.292.115h.038c-.148,0-.3.009-.466.009a34.06,34.06,0,0,1-5.373-.621.828.828,0,0,0-.351-.231.654.654,0,0,1-.214-.15l-.026-.087-.17-.028a.26.26,0,0,0-.1.028l-.012-.023a.456.456,0,0,0-.111-.16.668.668,0,0,0,.349-.16.1.1,0,0,0,.056-.014c.473.077.987.129,1.509.19a11.1,11.1,0,0,1,1.7.25h.142a.607.607,0,0,0,.162-.012,3.065,3.065,0,0,0,.692.2,5.124,5.124,0,0,0,.831.068c.1,0,.211,0,.334.01a4.18,4.18,0,0,1,1.161.311,3.39,3.39,0,0,0,.736.264l-.052.115m-.68-13.937c.022-.071.068-.172.113-.289a1.733,1.733,0,0,0,.774-.52c.136-.028.259-.063.4-.092a4.438,4.438,0,0,1,1.008-.143h.205a3.232,3.232,0,0,1,.735.143c.186.028.381.09.537.113.118,0,.253.01.381.01.245,0,.585,0,.7.108a.324.324,0,0,1,.019.136s-.017.094-.2.176a.6.6,0,0,0-.27.141c-.078,0-.168-.023-.256-.023a6.3,6.3,0,0,0-1.582.3,5.677,5.677,0,0,1-1.5.282c-.082,0-.189-.007-.266-.007a1.182,1.182,0,0,1-.379-.146,1.36,1.36,0,0,0-.4-.193m1.49,10.542a1.287,1.287,0,0,1-.9-.5c0-.016,0-.019,0-.019a.2.2,0,0,1,.026-.071l.181.033.113-.144c.2-.534.932-.614,1.612-.643.04.045.1.054.168.108h.042a7.065,7.065,0,0,1,1.864.318.753.753,0,0,1,.489.336.288.288,0,0,0-.056.023.466.466,0,0,0-.193.123h-.036a5.664,5.664,0,0,0-1.271.193,6.883,6.883,0,0,1-1.626.269,2.82,2.82,0,0,1-.416-.028m7.473,1.921a9.859,9.859,0,0,1-1.1.367c-.372.109-.772.226-1.142.374-.177.016-.393.038-.608.061a12.3,12.3,0,0,1-1.761.167,2.921,2.921,0,0,1-1.33-.268h.051a.624.624,0,0,0,.174-.188c.021-.035.032-.035.032-.035a.57.57,0,0,1,.268-.094c.089-.031.2-.049.307-.083a1.929,1.929,0,0,1,.238-.1,1.17,1.17,0,0,1,.475-.143.52.52,0,0,0,.235-.141,4.073,4.073,0,0,1,1.294-.209,3.611,3.611,0,0,1,1.174.183l.071.024.174-.042a4.2,4.2,0,0,1,1.135-.229.559.559,0,0,1,.337.08c.016.019.049.05.043.176a.628.628,0,0,0-.069.1m.741-7.44a.342.342,0,0,1-.085.028.765.765,0,0,0-.4.094,2.353,2.353,0,0,0-.765-.094,6.121,6.121,0,0,0-1.829.343,5.984,5.984,0,0,1-1.264.276l-.391.024c-.407.028-.835.066-1.264.066-.318,0-.594-.023-.857-.037a1.656,1.656,0,0,1-1.021-.461,3.167,3.167,0,0,1,1.516-.847l.165-.028a22.476,22.476,0,0,1,2.377-.32l.077-.019a1.067,1.067,0,0,1,.322.05c.106.012.214.03.339.035l.3.01a5.391,5.391,0,0,1,2.091.4l.047.043.088-.017h.047a.7.7,0,0,1,.324.089.661.661,0,0,1,.106.054.426.426,0,0,0,.077.165.352.352,0,0,1,.038.1s-.016.04-.038.047m1.39-2.82a.853.853,0,0,0-.206.148,6.254,6.254,0,0,0-.984.151,5.326,5.326,0,0,1-1.071.13,2.592,2.592,0,0,1-.688-.1.973.973,0,0,0-.134-.183c-.089-.1-.089-.143-.089-.188l.033-.017.155.04.078-.165a1.061,1.061,0,0,1,1.029-.5,3.117,3.117,0,0,1,1.248.273l.059.028.085-.005h.216a.819.819,0,0,0,.129-.009,1.09,1.09,0,0,1,.177.116.478.478,0,0,0,.05.2.246.246,0,0,0-.087.075m.564-5.816a4.031,4.031,0,0,1-2.68,1.153c-.092.019-.153.019-.231.031-.056.005-.1.017-.144.017a1.165,1.165,0,0,1-.313-.063l-.056-.038a1.641,1.641,0,0,1-.629-.287.567.567,0,0,1,.052-.155,1.989,1.989,0,0,0,.108-.3,3.373,3.373,0,0,1,1.243-.52,7.962,7.962,0,0,1,1.08-.1,1.8,1.8,0,0,1,1.025.228l.131.068.106-.068a.373.373,0,0,1,.273-.075c.045,0,.071.009.113.01Zm.624,5.5a.358.358,0,0,1-.092-.344c.094-.349,1.146-.862,1.984-.864a1.089,1.089,0,0,1,.621.157l.075.054.209-.023a1.152,1.152,0,0,1,.285-.063.481.481,0,0,1,.252.348,3.94,3.94,0,0,1-1.64.821,4.407,4.407,0,0,0-.781.266,1.21,1.21,0,0,1-.913-.351m5.86-5.616c-.6.64-2.008.475-2.878.878.412-.769,2.2-1.078,2.878-.878m-.9-.861c1.033-.742,2.845-.687,3.99-1.3-.089.779-2.624,1.047-3.99,1.3m.108,18.51a3.457,3.457,0,0,1-.892.44,3.889,3.889,0,0,1-.792.075,7.925,7.925,0,0,1-1.708-.193.673.673,0,0,1-.327-.165l.069-.353a.477.477,0,0,0,0-.228l.058-.056a3.325,3.325,0,0,1,.266-.2c.49-.043.907-.087,1.3-.087a4.014,4.014,0,0,1,1.781.329l-.054.172.176.068a1.461,1.461,0,0,0,.207.045.47.47,0,0,1-.087.155m1.784-3.533a5.747,5.747,0,0,1-1.262.3c-.23.038-.461.07-.643.106a11.618,11.618,0,0,1-2.151.325,1.411,1.411,0,0,1-.441-.045,1.817,1.817,0,0,1-.478-.423.573.573,0,0,0,.031-.257,4.079,4.079,0,0,1,2.1-.645,5.222,5.222,0,0,1,.753-.083,1.856,1.856,0,0,1,1.151.3l.122.077.116-.078a.626.626,0,0,1,.322-.073.634.634,0,0,1,.593.285c0,.063-.089.144-.207.205m.462-5.1a7.366,7.366,0,0,0-1.592.261l-.073.014a2.927,2.927,0,0,0-.4-.037,5.593,5.593,0,0,0-.767.066,2.448,2.448,0,0,0-.608.087,2.182,2.182,0,0,1-.407.08.261.261,0,0,1-.051-.012c-.066,0-.139-.026-.21-.026h-.057a1.608,1.608,0,0,0-.211.089.078.078,0,0,1-.054.017,1.258,1.258,0,0,1-.805-.376,2.539,2.539,0,0,1,.636-.539,2.49,2.49,0,0,1,1.123-.242,1.1,1.1,0,0,1,.273-.026,5.46,5.46,0,0,1,.762-.05,5.634,5.634,0,0,1,2.645.537.348.348,0,0,0-.2.157m3.878-2.827-.257.024c-.35.016-.72.073-1.087.113a10.783,10.783,0,0,1-1.36.1h-.141c-.2-.054-.459-.1-.687-.136a2.984,2.984,0,0,1-.9-.247.614.614,0,0,1,.075.005,1.282,1.282,0,0,0,.271.031h.092a.572.572,0,0,0,.323-.19.339.339,0,0,1,.116-.08s.07-.009.111-.009a1.87,1.87,0,0,0,.205-.009,7.642,7.642,0,0,1,1.779-.229c.177,0,.381.009.558.023a.859.859,0,0,0,.5.182c.089,0,.148-.031.223-.035a1.988,1.988,0,0,0,.634.143,1.455,1.455,0,0,1,.464.125,1.589,1.589,0,0,1-.916.19m1.481-4.013a23.647,23.647,0,0,1-2.519.155c-.591,0-1.165-.05-1.765-.083a1.457,1.457,0,0,0-.113-.13.732.732,0,0,1-.238-.383.4.4,0,0,0,.115-.245,2.941,2.941,0,0,1,.753-.372,4.017,4.017,0,0,1,1.038-.137l.169.01c.151,0,.311-.01.456-.012.085-.005.193-.005.266-.005a2.58,2.58,0,0,1,1.3.468c.094.045.193.113.294.157l.078.037.052-.012a2.483,2.483,0,0,1,.384-.04.6.6,0,0,1,.157.014.22.22,0,0,0,.087.1.344.344,0,0,1-.085.146.373.373,0,0,0-.111.148.68.68,0,0,0-.317.189m5.174,13.765v.019a.529.529,0,0,0-.042.181,7.536,7.536,0,0,1-2.506.422,4.39,4.39,0,0,1-2.255-.522c.115-.343.572-.447,1.187-.532.208-.045.37-.057.558-.1.144,0,.3.016.445.028a5.2,5.2,0,0,1,1.926.412l.059.037.077-.017c.082-.005.158-.019.223-.019a.868.868,0,0,1,.327.064Zm.4-7.762h.052l.308.182a1.19,1.19,0,0,0,.245.09c-.369.047-.734.115-1.106.184a2.728,2.728,0,0,0-.452.13,1.352,1.352,0,0,1-.341.132c-.129.017-.242.017-.374.035a1.622,1.622,0,0,0-.717.163,1.71,1.71,0,0,0-.243-.031,1.325,1.325,0,0,0-.72.2,4.878,4.878,0,0,0-.763-.09,3.611,3.611,0,0,1-.626-.045s.047-.1.057-.11a16.915,16.915,0,0,1,4.679-.845m-1.341-6.9c-.278.7-1.316.612-1.782,1.1-.466-.542,1.229-.829,1.782-1.1m.767,11.663a.589.589,0,0,1-.3-.476,6.772,6.772,0,0,1,1.935-.344,2.671,2.671,0,0,1,1.254.259.839.839,0,0,1-.031.09c-.04.071-.063.123-.1.2a.33.33,0,0,0-.213.2c-.168.017-.363.052-.563.075a8.082,8.082,0,0,1-1.269.137,1.382,1.382,0,0,1-.715-.141m4.5,3.568a.522.522,0,0,0-.1.263,4.864,4.864,0,0,1-1.668.341,2.4,2.4,0,0,1-1.241-.309.479.479,0,0,0,.016-.155,3.1,3.1,0,0,1,.758-.217.874.874,0,0,0,.231-.1.247.247,0,0,1,.1-.045h.007a.956.956,0,0,1,.214.014c.1.009.2.031.3.031h.063a1.675,1.675,0,0,1,.363-.024,5.023,5.023,0,0,0,.786-.045.528.528,0,0,0,.188.08Zm2.382-13.405c-.066.059-.2.191-.243.191,0,0-.014-.009-.066-.037l-.035-.043h-.082a.25.25,0,0,0-.229.089h-.045a.639.639,0,0,0-.271.075.245.245,0,0,1-.151.045h-.09l-.115.052a.7.7,0,0,0-.165.177c0,.028-.04.037-.04.037a4.431,4.431,0,0,1-1.377.195h-.21c-.111,0-.224-.028-.348-.028l-.761.03a3,3,0,0,1-1.415-.231.205.205,0,0,1-.075-.113.458.458,0,0,0-.184-.217,1.514,1.514,0,0,0-.021-.157.129.129,0,0,0-.03-.031.283.283,0,0,0,.061-.092c.063-.09.108-.16.165-.25a.581.581,0,0,0,.33-.12h.049a4.868,4.868,0,0,0,.92-.082,5.577,5.577,0,0,1,.8-.071,1.621,1.621,0,0,1,.5.071h.077a.211.211,0,0,0,.205-.094,11.266,11.266,0,0,1,2.907.542Zm4.7,10.7a.37.37,0,0,0-.156.115,3.475,3.475,0,0,0-.831.311,4.629,4.629,0,0,1-.947.3,5.542,5.542,0,0,1-.664.057c-.2,0-.4-.028-.629-.05a1.5,1.5,0,0,1-.348-.379c.019-.043.035-.066.056-.108a.491.491,0,0,0,.16.019h.132a.3.3,0,0,0,.207-.156,1,1,0,0,0,.285-.355h.08a.247.247,0,0,0,.207-.063h.221a4.416,4.416,0,0,0,.619-.038,5.512,5.512,0,0,1,.549-.049,1.347,1.347,0,0,1,.3.031,1.144,1.144,0,0,1,.417.169c.117.064.221.122.344.188Zm-1.806-4.573a.556.556,0,0,0-.158.035l.019-.009c.193-.351,1.346-.631,1.869-.64a4.171,4.171,0,0,1,.5-.017,2.369,2.369,0,0,1,.8.082l.042.028h.164a.8.8,0,0,1,.13.106.682.682,0,0,0,.063.042,1.207,1.207,0,0,1-.033.195,3.343,3.343,0,0,0-.793.247c-.235.073-.482.153-.709.2a1.159,1.159,0,0,0-.438-.05c-.127,0-.245,0-.4,0-.127.01-.256.028-.375.028a1.219,1.219,0,0,1-.37-.054h-.03l.03-.308Zm3.2-5.331a1.115,1.115,0,0,1,.183-.252.584.584,0,0,0,.167-.16c.118-.017.236-.068.367-.092a6.874,6.874,0,0,0,2.152-.883,2.429,2.429,0,0,0,.68-.191,3.419,3.419,0,0,1,.7-.214h.223a3.3,3.3,0,0,1,1.021.195c.106.026.216.07.292.083a1.886,1.886,0,0,0,.384.3c.066.059.15.094.207.143a.458.458,0,0,1-.031.153.779.779,0,0,1-.176.021,1.265,1.265,0,0,1-.226-.014c-.1-.007-.205-.007-.3-.005h-.165a6.028,6.028,0,0,0-1.648.546,6.9,6.9,0,0,1-1.581.563,3.5,3.5,0,0,1-.77.083,4.465,4.465,0,0,1-1.473-.278m3.495-3.564h-.11a2.389,2.389,0,0,0-.775.177,2.821,2.821,0,0,1-.433.141,2.475,2.475,0,0,1-.485.031h-.277a2.6,2.6,0,0,0-.553.043c-.167.035-.342.066-.515.12a5.033,5.033,0,0,1-.7.123,3.832,3.832,0,0,1-.581.047,5.937,5.937,0,0,0-.821.043,1.51,1.51,0,0,0-.5.108,5.144,5.144,0,0,1-.9.113c-.071,0-.155-.012-.216-.012a.581.581,0,0,1-.12-.037,1.133,1.133,0,0,0-.266-.063h-.052a.812.812,0,0,0-.3.049,1.011,1.011,0,0,1-.193.035,1.576,1.576,0,0,1-.518-.143l.009-.012a.522.522,0,0,0,.254-.285,3.739,3.739,0,0,1,.989-.111,2.834,2.834,0,0,0,1.595-.363c.268-.044.607-.132.944-.2a8.282,8.282,0,0,1,1.552-.247,7.645,7.645,0,0,0,.808.04c.3,0,.583-.017.887-.017s.595-.035.864-.035a1.258,1.258,0,0,1,.2.01,1.761,1.761,0,0,0,.229.169.893.893,0,0,1,.176.143c-.04.077-.12.09-.176.134M-186,70.43a1.6,1.6,0,0,0-.381.129,1.337,1.337,0,0,1-.313.094l-.084-.023a.537.537,0,0,0-.242-.054.894.894,0,0,0-.292.056,2.985,2.985,0,0,1-.522.068h-.1c-.376-.017-.995-.247-1.019-.483-.021-.294.875-.549,1.523-.612.145-.007.3-.012.447-.012a3.565,3.565,0,0,1,1.914.487.705.705,0,0,1,0,.219,1.544,1.544,0,0,1-.558.11c-.122.01-.263.012-.381.023M-185,72.875l-.092-.019c-.031-.176.052-.3.153-.515a1.143,1.143,0,0,1,.125-.214c.122.035.19.139.3.311.033.054.047.1.078.151a.687.687,0,0,1-.562.285m2.8-6.192c-.057.052-.136.1-.207.16a5.16,5.16,0,0,1-2.488.631h-.089a1.088,1.088,0,0,0-.421-.165c-.056-.017-.158-.04-.224-.057l.021-.075a.571.571,0,0,0,.016-.216l.037-.017.127-.1-.056-.16c-.022-.028-.022-.063.216-.212a1.326,1.326,0,0,0,.362-.3,2.879,2.879,0,0,0,.814-.162,5.541,5.541,0,0,0,1.069.113,3.665,3.665,0,0,1,.9.094.356.356,0,0,0,.125.214l-.05.123c-.007.049-.071.066-.148.122m4.809,5.463a10,10,0,0,0-1.355.518,7.887,7.887,0,0,1-2.971.781,1.938,1.938,0,0,0-.381-.256c0-.063.073-.12.3-.247a1.471,1.471,0,0,0,.443-.37.775.775,0,0,0,.37-.2,3.9,3.9,0,0,1,1.268-.2c.071,0,.148,0,.21.005a2.212,2.212,0,0,1,.967.157l.118.045.082-.059a1.945,1.945,0,0,1,.831-.209h.113Zm-.346-3.257a5,5,0,0,1-1.866.363,3.477,3.477,0,0,1-1.513-.3c-.016-.061,0-.078,0-.078v-.023l.009.014a.264.264,0,0,0,.257-.162c.381-.452,1.309-.464,2.188-.468.207-.026.407-.026.619-.035a1.6,1.6,0,0,0,.431.17c.181.052.3.071.378.158a1.01,1.01,0,0,0-.5.36m1.9-3.975a2.24,2.24,0,0,0-.523-.085c-.1-.019-.181-.019-.285-.042a4.034,4.034,0,0,1,.342-.431,3.491,3.491,0,0,0,.464-.7l.014-.021a7.288,7.288,0,0,1,3.072-.833,2.625,2.625,0,0,1,.579.042,1.42,1.42,0,0,1,.158.19c.118.13.153.165.143.231-.066.031-.108.071-.167.1a.254.254,0,0,0-.09.057,2.565,2.565,0,0,0-.647-.108,4.713,4.713,0,0,0-2.735,1.342c-.11.087-.221.177-.325.263m7.777-.614a3.8,3.8,0,0,1-.426.589,1.979,1.979,0,0,1-.348.24,1.619,1.619,0,0,0-.452.249,1.106,1.106,0,0,0-.32.41c-.042.045-.045.123-.113.188a2.437,2.437,0,0,1-.525.457c-.144.11-.283.212-.428.315-.087.09-.177.182-.257.262a1.669,1.669,0,0,1-.616.476c-.044-.024-.085-.042-.085-.042a.4.4,0,0,0-.216.045.336.336,0,0,1-.09.057.486.486,0,0,0-.235.134.607.607,0,0,0-.129.174c-.028.012-.038.063-.038.063a1,1,0,0,1-.455.127,1.409,1.409,0,0,0-.383.077,1.533,1.533,0,0,0-.4.169.822.822,0,0,1-.376.15.312.312,0,0,1-.233-.1l-.112-.1-.115.073a2.13,2.13,0,0,1-.47.122.781.781,0,0,0-.313-.207,1.339,1.339,0,0,1,.28-.28c.031-.023.091-.038.123-.063l.08.024.063-.045a12.939,12.939,0,0,0,5-3.75.663.663,0,0,0,.257-.179.346.346,0,0,1,.084-.052l.026-.019.031-.038a.594.594,0,0,0,.082-.205,2.7,2.7,0,0,0,.426-.369,2.046,2.046,0,0,1,.325-.3,1,1,0,0,0,.417-.1l-.035.049.108.134a1.126,1.126,0,0,1,.287.621,3,3,0,0,0-.419.636m.365-3.69v.007c-.071,0-.158-.005-.229-.005a7.011,7.011,0,0,0-1.179.132,6.325,6.325,0,0,1-1.12.137,2.318,2.318,0,0,1-.892-.165l-.036-.026-.367,0a.687.687,0,0,1-.381-.056.429.429,0,0,1-.118-.292c-.024-.052-.024-.1-.04-.134h.04a.268.268,0,0,0,.118-.017c.129-.042.172-.11.249-.127,0-.045.016-.063.057-.063a1.7,1.7,0,0,1,.7-.111h.315l.2.014a7.473,7.473,0,0,1,2.832.522l.047.1a1.124,1.124,0,0,0-.2.078m3.869,14.177c.195-.188.365-.382.565-.416h.082l.049-.056a5.308,5.308,0,0,1,3.749-1.742l.08.014V72.6a1.35,1.35,0,0,0,.32.236,1.322,1.322,0,0,1-.077.186,1.046,1.046,0,0,0-.829.459,3.9,3.9,0,0,0-1.034.565,3.648,3.648,0,0,1-.616.377,1.658,1.658,0,0,1-.441.132,2.439,2.439,0,0,0-.318.092,3.3,3.3,0,0,0-.649.268,2.183,2.183,0,0,1-.979.336c-.073,0-.13-.016-.192-.016a.421.421,0,0,0-.029-.167,4,4,0,0,1,.32-.278m4.123-11.2a5.083,5.083,0,0,1,1.547.3.557.557,0,0,0,.189.276.443.443,0,0,1,.113.15.625.625,0,0,0-.113.056,3.807,3.807,0,0,0-1.523-.247,7.539,7.539,0,0,0-.8.043.372.372,0,0,0-.226-.122V64.03a.837.837,0,0,0,.226-.348,1.678,1.678,0,0,1,.582-.092m-.428-1.274a2.36,2.36,0,0,1,.374-.311.464.464,0,0,1,.188-.043,2.573,2.573,0,0,1,.469.08,1.477,1.477,0,0,0,.467.106.863.863,0,0,0,.233.167.742.742,0,0,0,.108.111.593.593,0,0,0,.023.15.135.135,0,0,1-.117.042,2.576,2.576,0,0,1-.591-.094,2.818,2.818,0,0,0-.7-.118.708.708,0,0,0-.2.017.8.8,0,0,0-.252-.106m4.122,8.441c-.753.061-.959.657-1.094,1.316-1.071-.635.742-1.563.654-2.61.808-.186.311.855.44,1.294m-5.9,13.995a1.359,1.359,0,0,0,.151-.235l.024-.052V84.42c0-.085.037-.12.122-.21a.691.691,0,0,0,.242-.382.6.6,0,0,0,.123-.235.849.849,0,0,0,.068-.129l.134-.037v-.16a1.829,1.829,0,0,0,.289-.32,1.178,1.178,0,0,1,.3-.308l.19-.1-.04-.052c.047-.052.111-.1.158-.146l.094-.08.026-.057a4.121,4.121,0,0,1,.468-.351c.195-.144.424-.285.619-.456a3.076,3.076,0,0,1,.48-.287l.211-.108c.05-.03.089-.063.148-.1.017-.021.052-.056.07-.056.061-.024.134-.031.2-.056a1.138,1.138,0,0,0,.294-.083c.066-.04.129-.092.218-.15a.646.646,0,0,1,.216-.169.468.468,0,0,1,.123.056l.012.028L-157,80.5a.815.815,0,0,0-.113.148.216.216,0,0,0-.1.066,2.074,2.074,0,0,0-.447.619,1.451,1.451,0,0,1-.443.541l-.035.016-.036.049a2.545,2.545,0,0,0-.191.292.722.722,0,0,1-.275.249,1.02,1.02,0,0,0-.315.231,1.279,1.279,0,0,1-.09.1.929.929,0,0,1-.1.134,4.312,4.312,0,0,0-.829.617l-.056.071c-.1.075-.216.158-.313.231a2.031,2.031,0,0,0-.556.489,2.537,2.537,0,0,0-.52.31,2.783,2.783,0,0,1-.445.264h-.171a.438.438,0,0,1,.123-.176m-1.029-5.494c-.052-.009-.139-.054-.176-.054a1.038,1.038,0,0,1,.174-.209,1.062,1.062,0,0,0,.2-.28,7.782,7.782,0,0,0,1.765-.749c.254-.137.511-.289.793-.417a.17.17,0,0,0,.128-.115,2.634,2.634,0,0,0,.68-.313,4.469,4.469,0,0,1,.485-.264,1.213,1.213,0,0,0,.362-.223.73.73,0,0,1,.415-.2c.018,0,.035.005.066.005a.94.94,0,0,0,.089.209.382.382,0,0,1-.066.035.666.666,0,0,0-.351.391,14.314,14.314,0,0,1-4.568,2.18m5.167-8.5c-.318-.316.1-1.775.888-1.735-.037.831-.682,1.054-.888,1.735m-3.46-2.636c-.026-.068,0-.132.071-.235a2.655,2.655,0,0,0,1.012-.405,5.484,5.484,0,0,1,.541-.252.345.345,0,0,0,.144.085.445.445,0,0,1,.338.137.542.542,0,0,1,.1.393c-.353.555-1.4.857-2.255,1.109a1.076,1.076,0,0,1-.393.071.693.693,0,0,1-.278-.04.541.541,0,0,0-.1-.179c-.04-.031-.04-.045-.04-.045a1.539,1.539,0,0,1,.443-.285,2.368,2.368,0,0,0,.3-.155l.123-.063Zm.777-2.822.108-.007a.7.7,0,0,0,.221.1.127.127,0,0,1,.014.09c-.024.023-.1.12-.487.12-.237,0-.562-.033-.866-.061a8.156,8.156,0,0,0-.888-.068,1,1,0,0,0-.33.035.59.59,0,0,0-.351-.235l-.071-.028c.01-.04.04-.054.088-.087a.644.644,0,0,0,.271-.308c.393,0,.669.023.934.04l.159.01a1.729,1.729,0,0,1,1.147.33Zm-15.612,27.362a3.5,3.5,0,0,1,1.979-1.514,3.579,3.579,0,0,1-1.979,1.514m2.627-1.734c-.417.028-.581-.565-1.083-.428-1.4.367-2.371,1.4-3.754,1.954.982-2.629,3.531-2.394,6.4-3.043-.433.518-.661,1.457-1.565,1.516m5.76-.873c-1.749-.407-2.459,1.269-3.537.228.736-1.3,3.069-1.031,3.976-2.156.252.014.179.384.219.636,1.678-.668,2.182-2.479,3.1-3.895.007,1.259-2.192,4.044-3.759,5.187m3.966-5.635c-.334-.24-.551-.216-.664.217a33.045,33.045,0,0,1,0-4.981c.318.017.332,1.375.666.65a10.082,10.082,0,0,1,0,4.114m1.2,4.382a3.741,3.741,0,0,1-.407-.042c-.062-.038-.1-.071-.129-.085-.066-.066-.092-.084-.113-.089a.323.323,0,0,0,.085-.04l.146-.078-.052-.162a.875.875,0,0,0-.037-.143.233.233,0,0,0,.1-.07c.017-.019.017-.04.028-.045a4.776,4.776,0,0,0,2.16-.835,4.165,4.165,0,0,1,2.067-.749h.16a.114.114,0,0,0,.071.083,1.987,1.987,0,0,1-.238.264,1.237,1.237,0,0,0-.37.4l-.221.15a7.852,7.852,0,0,0-1.354,1.014,5.761,5.761,0,0,1-1.9.426m6.294-.156c-.011.023-.061.038-.1.071-.057.052-.129.1-.186.16a5.281,5.281,0,0,1-.541.489l-.209.158a4.084,4.084,0,0,1-2.4.8h-.181a1.22,1.22,0,0,1-.433-.429,6.61,6.61,0,0,0,1.633-.741,1.893,1.893,0,0,0,1.331-1.005.107.107,0,0,0,.051-.016l.146-.024.029-.129a.329.329,0,0,1,.031-.1.4.4,0,0,1,.056-.075.6.6,0,0,1,.264-.078h.1a.3.3,0,0,0,.256-.287.528.528,0,0,0,.249-.172h.031a2.062,2.062,0,0,1-.13,1.381m1.551-9.432c-.539-.888.451-2.14.218-3.45-.656.188-.462,1.266-.883,1.728-.181-.615-.735-.861-.666-1.728a.57.57,0,0,0-.645.443c-.261-.784.887-2.043.885-3.283,1.132,1,3.035,4.1,1.091,6.289m-.638-17.458a.278.278,0,0,0,.01-.07,2.232,2.232,0,0,1,1.2-.428c.254-.049.5-.1.723-.163a8.514,8.514,0,0,1,2.038-.283l.266,0h.349c.124,0,.237-.017.367-.017a2.284,2.284,0,0,1,1.148.233l.057.04h.216c.056,0,.128,0,.2-.005a1.8,1.8,0,0,0,.5.219,1.277,1.277,0,0,1-.2.043.278.278,0,0,0-.1-.043l-.109-.026-.068.047a13.132,13.132,0,0,1-5.4,1.081h-.2a4.617,4.617,0,0,1-1.3-.172c.019-.1.072-.12.165-.151l.324-.08Zm25.568,8.168a.158.158,0,0,1-.082.031.64.64,0,0,1-.109-.009l-.084-.094c.044-.083.1-.146.127-.214a.265.265,0,0,1,.132.045v.169a.35.35,0,0,0,.016.071m-4.383,5.065a.261.261,0,0,0,.026.085,4.032,4.032,0,0,1-.323.31,2.786,2.786,0,0,0-.327.278,2.014,2.014,0,0,1-.925.607,2.921,2.921,0,0,1-.831.19.7.7,0,0,1-.306-.064.526.526,0,0,0-.08-.219l.058-.026a.9.9,0,0,1,.139-.054h.165l.043-.156a2.622,2.622,0,0,1,1.9-1.8v.172l.235-.016h.335a1.078,1.078,0,0,0,.475-.094c.019.014.061.033.1.057a.641.641,0,0,0,.2.118v.047h-.059a.847.847,0,0,0-.8.44l-.023.059ZM-132.613,67a.689.689,0,0,1,.247.028s.036.009.061.017a.78.78,0,0,0,.233.056,1.847,1.847,0,0,0,.344-.056,1.414,1.414,0,0,1,.353-.075c.109,0,.129.028.149.13a1.131,1.131,0,0,1-.111.243,2.646,2.646,0,0,1-.948.513,3.726,3.726,0,0,1-1.113.188,3.992,3.992,0,0,1-.732-.061,1.664,1.664,0,0,0-.426-.264.838.838,0,0,1-.217-.106s0-.054.017-.064c.106-.03.21-.052.32-.087a3.41,3.41,0,0,0,.56-.116l.212-.094a3.239,3.239,0,0,1,1.05-.252m-.6-4.429c.028-.36.372-.45,1.061-.572a2.7,2.7,0,0,0,.336-.059v.054s-.01.045-.024.052l-.064.073-.016.071v.066a1.028,1.028,0,0,0-.5.36c-.087.005-.136.014-.195.014-.141.03-.275.044-.395.08a1.064,1.064,0,0,0-.2-.139m1.059-2.429c-.525-.024-2.116.77-1.982,0,.236.037.371-.043.429-.212.77-.111,3.627.075,1.552.21m-1.878,4.31a1.989,1.989,0,0,1-1.168.346,1.356,1.356,0,0,1-.782-.2l-.113-.085a.185.185,0,0,1,.042-.066,2.8,2.8,0,0,1,1.059-.2,2,2,0,0,1,.963.207m-1.735,3.863h.163a.849.849,0,0,0,.029.181.465.465,0,0,0-.282.205.551.551,0,0,0-.124.266,3.865,3.865,0,0,0-1.452.706,2.179,2.179,0,0,0-.355-.03,2.992,2.992,0,0,0-.8.127l-.009-.012c.009-.424.612-.7.932-.876l.071-.043a4.655,4.655,0,0,0,.6-.21,4.15,4.15,0,0,1,1.226-.313m2.342,3.232a.913.913,0,0,1-.28.16l-.012-.075a.783.783,0,0,1-.023-.308c.343-.212.654-.457.948-.669a4.535,4.535,0,0,1,2.139-1.048c.04.061.1.089.115.137a.382.382,0,0,1,.076.108l.059.2c-.045.05-.1.113-.148.17a1.163,1.163,0,0,1-.4.325c-.018.03-.068.03-.136.03a.629.629,0,0,0-.226.057,2.63,2.63,0,0,0-.56.275,2.787,2.787,0,0,1-.774.369.689.689,0,0,1-.149.014.976.976,0,0,0-.294.066,2.958,2.958,0,0,0-.339.186m.718,4.472a.625.625,0,0,0,.125-.085.69.69,0,0,1,.144-.085l.076-.035.007-.068a3.694,3.694,0,0,1,1.654-1.667h.05a.752.752,0,0,0,.468-.177c.052-.021.089-.056.13-.056a.23.23,0,0,1,.113-.019c.149,0,.2.12.313.445.04.108.082.233.134.349v.031a.3.3,0,0,0-.057.177,8.416,8.416,0,0,1-2.326,1.1l-.064.01-.054.047a.7.7,0,0,1-.419.231l-.058-.3-.236.209Zm2.881-8.906a.331.331,0,0,0-.157.042c-.054-.023-.122-.056-.177-.085l-.042-.023a.421.421,0,0,1,.066-.537l.037.035a.967.967,0,0,0,.238.17c.066.2.085.292.035.4m-12.715-6.1c.047.565.377-.3.882,0-.424.739-1.561.768-2.432,1.085a1.4,1.4,0,0,0,.235-1.083c-.151-.332-1,.454-1.341.654.233-.864,1.928-2.166,3.538-2.394.377.129-.193.316-.649.407,3.975-.389,8.754-2.521,13.689-1.278.668-.151,2.057.2.668.2a33.131,33.131,0,0,0-14.59,2.408m-4.615,21.019c-.685-.616.15-1.563.219-2.173,1.013.21-.341,1.45-.219,2.173m.664-.223c.57.308.038,1.341,0,1.74-.574-.3-.054-1.335,0-1.74m.1-12.726c-.106-.059-.113-.111-.049-.41a6.217,6.217,0,0,1,.69-.828,5.212,5.212,0,0,0,.621-.212,3.892,3.892,0,0,1,1.422-.36,1.641,1.641,0,0,1,.556.076.365.365,0,0,0,.3.214.552.552,0,0,1,.2.445c-.012.016-.042.028-.052.04-.063.057-.082.063-.125.063h-.113l-.077.094c-.056.111-.238.181-.412.254a1.243,1.243,0,0,0-.5.318h-.042a3.069,3.069,0,0,0-.795.143,3.518,3.518,0,0,1-.836.163.766.766,0,0,1-.351-.071l-.071-.019-.078.019a.976.976,0,0,1-.289.071m.553-4.6A11.53,11.53,0,0,1-142.3,62.3c-1.092.814-1.9,1.913-3.528,2.18M-140.1,62.3c-.367.711-2.483,1.831-2.436,1.541A9.737,9.737,0,0,1-140.1,62.3m-4.708,10.152.052.009.077-.037a6.219,6.219,0,0,0,.628-.36,9.384,9.384,0,0,1,1.716-.85,8.582,8.582,0,0,1,1.026-.191,4.272,4.272,0,0,0,.6-.1,1.1,1.1,0,0,0,.249-.057.818.818,0,0,1,.285-.078.523.523,0,0,1,.139.03.154.154,0,0,1,.036.049c.049.031.1.073.162.117.014.076.035.134.043.195l.023.108-.113-.014-.005.12a.253.253,0,0,0-.059.151,6.152,6.152,0,0,1-3.171,1.186,3.274,3.274,0,0,1-1.008-.172l-.217-.1-.05.188a.255.255,0,0,1-.1.023,1.4,1.4,0,0,0-.271.094c-.021,0-.037-.014-.061-.014a.188.188,0,0,0-.053-.13.588.588,0,0,0,.077-.169m2.653-5.1c.054-.344.184-.459.311-.5a.646.646,0,0,1,.193.226c.04.049.083.1.134.16a.376.376,0,0,1-.127.29.278.278,0,0,1-.2.1l-.059-.021a.647.647,0,0,0-.254-.249m2.163-1.859-.581,0h-.449c-.172.031-.328.063-.487.1a3.507,3.507,0,0,1-.568.071,1.884,1.884,0,0,1-.317-.037.676.676,0,0,1,.11-.48,4.665,4.665,0,0,1,1.6-.235,10.224,10.224,0,0,1,2.015.231.559.559,0,0,1,.007.172v.08a1.68,1.68,0,0,1-.779.129c-.188,0-.363-.014-.551-.031m-1.224-6.216c1.869-.942,6.059-1.765,2.2-.661a5.2,5.2,0,0,1-2.2.661m-4.176.436c2.2-1.939,5.553-2.745,9.916-2.612-3.352.829-6.63,1.751-9.916,2.612m-5.532.882c.567-.7,1.723-.789,2.429-1.313-1.08-.384-2.516.708-3.964.666,1.991-1.48,5.3-1.528,7.948-2.839a31.364,31.364,0,0,1-6.412,3.486m-3.151,4a.437.437,0,0,1-.129.386.691.691,0,0,1-.376-.209h-.01v-.179a.478.478,0,0,1,0-.243.956.956,0,0,0,.129-.054l0,.169.214.024c.113,0,.143.03.169.106m-.076,3.375c-.17-.01-.308-.01-.464-.03l-.016-.064a2.336,2.336,0,0,1-.318-.539c.572-.16,1.231-.275,1.866-.389a7.856,7.856,0,0,0,2.552-.687.874.874,0,0,0,.382-.3,2.472,2.472,0,0,0,1.109-.306.606.606,0,0,0,.233-.219c.037-.045.071-.08.109-.125a1.254,1.254,0,0,1,.423-.229c.134-.08.277-.143.416-.235a3.366,3.366,0,0,0,.65-.609,3.3,3.3,0,0,1,.376-.362h.04c.042,0,.083-.017.123-.021h.094c.314.435-.2,1.031-.391,1.224a.932.932,0,0,0-.7.509,1.156,1.156,0,0,1-.282.311.328.328,0,0,0-.129.023,1.371,1.371,0,0,0-.278.078,2.982,2.982,0,0,0-.6.405.735.735,0,0,0-.2.245c-.049.063-.1.155-.163.17a1.25,1.25,0,0,1-.478.115,2.417,2.417,0,0,0-.538.127,1.2,1.2,0,0,0-.282.143.454.454,0,0,1-.16.12,1.378,1.378,0,0,1-.262.036c-.082.017-.191.038-.294.057-.21.057-.443.158-.662.238a4.64,4.64,0,0,1-1.361.346c-.042,0-.1,0-.139,0-.229,0-.438-.017-.662-.035m5.672,14.939c-.6-.657.017-2.006.238-2.612.617.723-.443,1.589-.238,2.612m-.44-3.472c-.657-.054-.908-1.212-.445-1.723.7.038.376,1.071.445,1.723m-4.62,21.659c-.59-1.045.925-3.676,1.751-4.776-.047,1.248-1.616,2.895-1.751,4.776m7.729-9.968c.043,2.737-1.826,3.566-2.659,5.416-.836-1.339,2.561-2.81,1.761-4.764-.937.151-.977,1.2-1.334,1.956-1.417-.7-2.024.749-2.629,1.5-2.54-.729-2.16,3.215-4.206,3.689.457-4.781,6.2-4.924,7.066-8.659a8.683,8.683,0,0,0-3.314-4.338,34.067,34.067,0,0,0-2.219-8.215c.318.009.635.03.675-.223.744.708,1.012,1.9,2.2,2.156-.269,1.45-.526,4.114.45,4.981.37-.529-.254-1.909,0-3.022.334.468.421,1.377.443,0,.182,1.7-.021,4.109,1.1,5.407.948-.7.017-1.9.428-3.038,1.6.626-.3,2.886.9,3.469.664-.341-.382-2.4.9-2.17.539.838-.94,3.091.438,3.472-.417.824-1.111,2.446,0,2.379m1.092-4.978c-.647-.383.12-1.153,0-1.74.644.386-.127,1.177,0,1.74M-145,82.1c-.183,0-.351.023-.522.028a1.488,1.488,0,0,1-.118-.122,3.215,3.215,0,0,1,.761-.28,10.639,10.639,0,0,0,1.052-.358.86.86,0,0,1,.3.393A2.685,2.685,0,0,1-145,82.1m1.615-5.326a.374.374,0,0,1-.132.04c-.058,0-.071-.023-.071-.023-.016-.017-.016-.035-.016-.075a1.779,1.779,0,0,1,.417-.075l.069-.028c.063,0,.218-.035.249-.28a6.358,6.358,0,0,1,.81-.389l-.124.27.43-.075c.419-.066.861-.195,1.012-.518l.148-.276.073-.045a3.563,3.563,0,0,1,1.379-.429h.021a.527.527,0,0,1-.056.116,1.51,1.51,0,0,0-.089.294,10.972,10.972,0,0,1-3.853,1.535V76.7Zm3.116,10.827a.248.248,0,0,0-.063.127,2.188,2.188,0,0,0-.993.668,2.241,2.241,0,0,1-.5.431l-.043.043-.021.063a.319.319,0,0,0-.04.223.378.378,0,0,0-.129.05s-.022-.05-.059-.113c-.038-.043-.075-.132-.127-.195.222-.758.847-1.506,1.579-1.507a1.152,1.152,0,0,1,.456.108.145.145,0,0,1-.056.1m.734-5.432a2.326,2.326,0,0,1-1.084.409,1.262,1.262,0,0,1-.283-.026l-.436-.108.023.068c-.089-.136-.057-.278.1-.553a1.883,1.883,0,0,0,.831-.711,5.443,5.443,0,0,0,.788-.483,2.543,2.543,0,0,1,1.434-.64l.094-.01a5.209,5.209,0,0,1,.6.078,3.638,3.638,0,0,0,.706.1,1.069,1.069,0,0,0,.24-.017,2.754,2.754,0,0,0,1.632-.927l.017-.016a.392.392,0,0,1,.233,0l-.064.115-.021.068v.047c.087.508-.241.642-1.015.845a4.483,4.483,0,0,0-.636.214,1.256,1.256,0,0,0-.259-.019,2.891,2.891,0,0,0-1.628.527h-.024a.731.731,0,0,0-.29.085,1.279,1.279,0,0,1-.137.037l-.349.038.118.193a1.058,1.058,0,0,0-.365.48c-.018.04-.058.075-.073.111Zm1.94,3.577-.057.045a2.471,2.471,0,0,1-.924.28.7.7,0,0,1-.195-.019.565.565,0,0,1-.04-.226.179.179,0,0,1-.019-.1,4.727,4.727,0,0,1,.544-.122c.233-.05.474-.113.732-.186a.232.232,0,0,0,.057.033,1.228,1.228,0,0,0-.1.292m-.718-2.069a1.392,1.392,0,0,1-.271-.019,2.109,2.109,0,0,1-.475-.193,1.6,1.6,0,0,1-.175-.11v-.205l-.134-.026a7.424,7.424,0,0,0,1.125-.379c.229-.1.455-.195.669-.275l.049-.023.042-.03a5.459,5.459,0,0,1,1.85-1.2h.855a.275.275,0,0,0,.054.063l.054.08.127.005h.325a.887.887,0,0,0,.2.108c.009.017.045.028.069.057l-.061.04-.111-.045-.109.045a.718.718,0,0,0-.376.363,2.441,2.441,0,0,0-.375.117,1.574,1.574,0,0,0-.63.23.715.715,0,0,0-.212.228.1.1,0,0,1-.047.083,1.669,1.669,0,0,1-.379.264,1.926,1.926,0,0,0-.551.384l-.141.063a3.642,3.642,0,0,1-1.373.374m3.508,5.065a.538.538,0,0,0-.007.28,1.932,1.932,0,0,1-.958.325.419.419,0,0,1-.292-.082.322.322,0,0,1-.031-.125,1.352,1.352,0,0,1,.609-.275,2.966,2.966,0,0,0,.617-.231c.014.028.056.036.068.071Zm.65-2.577a1.47,1.47,0,0,1-.257-.023s-.009-.057-.038-.076c-.028-.071-.07-.127-.091-.186a2.976,2.976,0,0,1,.5-.221,3.525,3.525,0,0,0,.885-.48.893.893,0,0,1,.16.374,1.6,1.6,0,0,1-1.16.612m4.147-5.11c-.115.085-.226.186-.334.28h-.033l-.009.028a2.7,2.7,0,0,0-.229.351,1.569,1.569,0,0,1-.575.649l-.1.045-.01.077a2.9,2.9,0,0,1-1.019,1.071c-.175.136-.351.292-.537.457a3.9,3.9,0,0,1-1.723.39.424.424,0,0,0-.238-.1h-.056l-.189.045a9.635,9.635,0,0,1-1.406.167c-.473,0-.654-.108-.732-.193a3.026,3.026,0,0,0,.482-.2,1.687,1.687,0,0,1,.595-.214H-136l.056-.092a.807.807,0,0,1,.454-.29,1.708,1.708,0,0,0,.28-.115.594.594,0,0,0,.193-.143.316.316,0,0,0,.062-.08c.063-.01.191-.028.315-.04a2.528,2.528,0,0,0,.37-.049,3.363,3.363,0,0,0,.5-.151,3.21,3.21,0,0,1,.567-.129c.044,0,.071-.024.1-.024,0,0,.182.023.216.023a.727.727,0,0,0,.323-.063.736.736,0,0,0,.217-.165.433.433,0,0,1,.1-.1c.047-.023.108-.043.153-.063a.617.617,0,0,0,.257-.111.481.481,0,0,0,.178-.287c.021-.033.047-.068.047-.068a1.866,1.866,0,0,1,.593-.52c.1-.075.195-.137.3-.223l.045-.035.023-.04a2.274,2.274,0,0,1,.737-.742c.144-.113.309-.24.457-.376a.656.656,0,0,0,.257.038,1.833,1.833,0,0,1,.243.007,4.483,4.483,0,0,1-1.057.988m2.864-16.725a1.987,1.987,0,0,0-.751.316,1.39,1.39,0,0,1-.687.257.263.263,0,0,1-.075-.28c.122-.278.824-.516,1.462-.516h.051v.042c0,.057-.026.123,0,.181M-128.66,73.7a.432.432,0,0,1,.245-.195,3.023,3.023,0,0,0,.311-.226.744.744,0,0,0,.127-.157l.017-.028a1.319,1.319,0,0,1,.235-.158,2.481,2.481,0,0,0,.5-.369,4.7,4.7,0,0,0,.963-1.77h.025a.7.7,0,0,1,.068.064.833.833,0,0,1,.262.523.868.868,0,0,1-.226.429,2.036,2.036,0,0,0-.275.485.285.285,0,0,0-.037.125,1.752,1.752,0,0,1-.128.151.313.313,0,0,0-.068.156.2.2,0,0,1-.047.08,1.876,1.876,0,0,0-.258.2,1.75,1.75,0,0,0-.179.3c0,.042-.017.09-.043.1a1.447,1.447,0,0,1-.312.16,1.053,1.053,0,0,0-.388.2c-.11.009-.226.009-.375.009-.35,0-.421-.073-.421-.073m12.748-1.318.047-.136a.546.546,0,0,1,.124-.177.685.685,0,0,0,.217-.445,7.1,7.1,0,0,1,2.565-1.765.271.271,0,0,1,.059.007c.082,0,.111-.007.143-.007s.057-.012.082-.012a.613.613,0,0,1,.165.25l-.026.03a3.3,3.3,0,0,1-1.176,1.318.344.344,0,0,0-.217.214.576.576,0,0,1-.224.113,1.227,1.227,0,0,0-.29.153l-.123.08a1.04,1.04,0,0,1-.57.189h-.078l-.066.057a6.706,6.706,0,0,0-.5.553.258.258,0,0,1-.184-.071,1.4,1.4,0,0,0,.051-.351m-.148-4.867a3.27,3.27,0,0,0-.381-.273.206.206,0,0,1,.026-.063v-.017c.028,0,.031-.012.031-.012l.323.242.007-.365a2.369,2.369,0,0,1,.967-.169,8.624,8.624,0,0,1,1.128.089c.271.024.534.078.807.092a.755.755,0,0,0,.388.311.249.249,0,0,1-.11.021.252.252,0,0,1-.123-.038l-.127-.122-.136.05a.619.619,0,0,0-.351.355l-.242.08a2.575,2.575,0,0,1-.732.132,3.722,3.722,0,0,0-1.127-.268,1.52,1.52,0,0,1-.349-.045m-6.393.638c2.709-3.406,7.064-5.2,11.473-6.953-4.487,1.921-8.208,4.886-11.473,6.953m3.095-.887c.061.942-1.861,1.786-2.192,3.05,1.182-.416,1.62-1.582,2.634-2.165-.722,1.078-1.963,2.572-2.919,4.225.045-.016.082-.026.16-.047a2.869,2.869,0,0,0,.525-.13,4.107,4.107,0,0,0,.706-.43,3.718,3.718,0,0,1,.462-.32c.044,0,.136-.04.155-.188a1.794,1.794,0,0,0,.718-.612,3.2,3.2,0,0,1,.276-.3l.057-.059.018-.071a.5.5,0,0,0-.076-.322.131.131,0,0,1,.059-.049,1.6,1.6,0,0,0,.1-.137.832.832,0,0,1,.122.071,1.947,1.947,0,0,0,.438.134,1.011,1.011,0,0,1-.2,1.066,3.764,3.764,0,0,0-.25.332,2.637,2.637,0,0,1-1.652,1.288.281.281,0,0,1-.129.017,3.177,3.177,0,0,1-.516-.094,3.18,3.18,0,0,0-.72-.108c-.106,0-.207.017-.323.026a13.578,13.578,0,0,0-.975,2.2c.5-1.36.138-4.14,1.088-5.653.984.117,1.793-.9,2.436-1.733m-1.756,1.109a.064.064,0,0,1,.042-.038c-.042.066-.056.1-.042.038m.053-.066c.228-.409.944-1.726,1.7-1.681a7.936,7.936,0,0,1-1.7,1.681m5.233-6.226a4.635,4.635,0,0,1,1.986-1.087c-.165.84-1.219.829-1.986,1.087m-4.839.431c1.353-.955,3.379-1.281,5.277-1.728-1.027,1.3-3.726.955-5.277,1.728m3.5-.431a7.3,7.3,0,0,1-3.749,1.509c.908-.84,2.459-1.045,3.749-1.509m-8.595,1.08c1.567-.995,4.933-2.505,6.619-1.956-2.309.563-4.279,1.421-6.619,1.956m4.2-.649c0,.659-.685.645-1.334.647a2.354,2.354,0,0,1,1.334-.647m-1.332,1.521c-.4.609-1.422.629-1.746,1.3-.339-.476.984-1.182,1.746-1.3m-2.422,3.008a.884.884,0,0,1,.16-.089l.057.014c2.2-2.65,6.468-3.253,9.926-4.684-1.521.668-2.684,2.13-4.192,2.817-.282.146,0-.426,0-.426-1.219-.047-2,1.248-2.488,1.629a10.984,10.984,0,0,0,1.4-1.84c-1.767.156-2.768,1.806-4.444,2.634,0,0,.031,0,.037.014a1.2,1.2,0,0,0,.153.111v.205a4.781,4.781,0,0,1-2,.6.365.365,0,0,1-.042-.049.66.66,0,0,1-.148-.219c.071-.031.137-.057.207-.083a1.425,1.425,0,0,0,.568-.337,2.206,2.206,0,0,0,.81-.3m-.236,3.243c.019,0,.037,0,.1.1a.345.345,0,0,0,.062.1.5.5,0,0,0-.042.17c-.063-.005-.1-.016-.165-.016v-.111a.338.338,0,0,1,.042-.247m-.536,11.661a2.566,2.566,0,0,0-1.516,1.222h-.176c-.065-.077-.143-.148-.216-.245-.054-.05-.092-.1-.153-.162a1.128,1.128,0,0,1,.287-.649,1.568,1.568,0,0,1,1.094-.462,1.573,1.573,0,0,1,.376.063l.1.04.1-.063s.052.009.092.019c.017,0,.031.036.063.043a.563.563,0,0,0-.045.193m.848-4.691a1.884,1.884,0,0,1-.869.275,1.318,1.318,0,0,1-.438-.1.519.519,0,0,0,.182-.2.785.785,0,0,0,.287-.322l.031-.043a7.015,7.015,0,0,1,3.036-1.492.216.216,0,0,0,.2-.125.9.9,0,0,0,.355-.183.126.126,0,0,0,.1.05v.043a1.712,1.712,0,0,0-.247.236.341.341,0,0,1-.191.167l-.212.09.085.169-.014.019a.646.646,0,0,0-.261.257.975.975,0,0,0-.362.252,1.451,1.451,0,0,0-.638.409,1,1,0,0,1-.282.209,3.18,3.18,0,0,0-.76.285m2.566,1.53a.723.723,0,0,0-.09.237,4.552,4.552,0,0,0-1.365.492.58.58,0,0,0-.2-.1v-.226a1.538,1.538,0,0,1,.328-.236l.16-.075-.021-.195a.287.287,0,0,0,0-.188,3.031,3.031,0,0,1,.169-.308c.092-.177.174-.36.287-.563a1.1,1.1,0,0,0,.522-.718c.089-.1.2-.2.282-.313a7.264,7.264,0,0,1,1.109-.984,2.909,2.909,0,0,1,1.438-.247c.158-.014.3-.014.442-.014.106,0,.195-.021.3-.021s.247-.023.37-.023a1.7,1.7,0,0,1,.358.042.143.143,0,0,1,.012.057c-.026.137-.264.263-.424.355a.454.454,0,0,0-.165.1,4.065,4.065,0,0,0-2.349,1.353,6.1,6.1,0,0,1-.843.709l-.071.045-.017.1a.612.612,0,0,1-.087.179.616.616,0,0,0-.146.539m1.53,9.709c-.081.12-.175.223-.247.33a.483.483,0,0,0-.035.155.588.588,0,0,1-.537.3.606.606,0,0,1-.313-.087c-.186-.325-.045-.475.289-.751a1.544,1.544,0,0,0,.409-.395.426.426,0,0,0,.165.021.856.856,0,0,0,.268-.07c.157.111.214.148.169.257a.572.572,0,0,1-.167.24m.327-9.234c-.071.11-.167.209-.242.309a1.984,1.984,0,0,1-.339.259,2.107,2.107,0,0,0-.473.36,2.542,2.542,0,0,0-.245.254.925.925,0,0,1-.184.195.338.338,0,0,1-.226-.257.726.726,0,0,1,.134-.5,2.261,2.261,0,0,0,.118-.268,1.019,1.019,0,0,0,.4-.492.7.7,0,0,1,.238-.294,2.234,2.234,0,0,1,.648-.308,1.9,1.9,0,0,0,1.045-.558c.134-.037.3-.106.438-.157a2.473,2.473,0,0,1,.793-.2c.057.05.139.1.186.151.03.016.075.05.116.078a.38.38,0,0,1-.111.15.317.317,0,0,0-.111-.012,2.273,2.273,0,0,0-1.2.482c-.1.068-.17.108-.294.183l-.174.094a1.9,1.9,0,0,0-.522.539m1.285,1.554c-.1-.037-.205-.1-.313-.139a1.307,1.307,0,0,1-.391-.205,6.306,6.306,0,0,1,1.248-.866,9.632,9.632,0,0,0,1.179-.774,2.223,2.223,0,0,0,.65-.355h.035a1,1,0,0,0,.518-.245,2.306,2.306,0,0,1,.268-.169c.111-.031.222-.078.341-.11a3.855,3.855,0,0,0,.68-.226c.1-.073.21-.125.325-.205a1.669,1.669,0,0,1,.473-.217,1.768,1.768,0,0,1,.31-.066,1.091,1.091,0,0,0,.815-.391,1.425,1.425,0,0,1,.518-.08,5.187,5.187,0,0,1,.68.056,2.474,2.474,0,0,0,.412.049l.016.035a1.816,1.816,0,0,1-1.05.419l-.052,0-.005.016a3.988,3.988,0,0,0-1.17.855,5.527,5.527,0,0,1-.521.447,1.533,1.533,0,0,0-.972.537c-.48.278-1,.537-1.528.8-.358.167-.739.362-1.108.555a3.782,3.782,0,0,0-.76.153,5.034,5.034,0,0,1-.6.125M-108.9,64.99a3.645,3.645,0,0,1,1.358-.421.3.3,0,0,0,.136-.038l.223-.005c.306-.017.687-.052,1.067-.052,1.195,0,1.828.226,1.914.643a.544.544,0,0,1-.113.433.534.534,0,0,1-.407.19h-.067l-.16-.026-.07.15a.44.44,0,0,1-.2.023h-.21a.979.979,0,0,0-.336.043.287.287,0,0,0-.179-.066h-.031l-.062.023a2.36,2.36,0,0,1-.551.043,6.977,6.977,0,0,1-2.2-.426l.007-.057.005-.09-.066-.064c-.01-.028-.052-.056-.072-.073l.014-.035c0-.045.005-.122,0-.193m2.685,3.954c-.023-.028-.035-.031-.035-.031l-.118-.08-.112.04c-.069.04-.139.092-.186.113l-.017-.009c-.01-.061-.04-.075-.04-.118a3.572,3.572,0,0,1,1.358-.374c.064,0,.117,0,.181,0a.488.488,0,0,0-.062.231,2.385,2.385,0,0,1-.344.071,1.571,1.571,0,0,0-.624.155m.167,2.982-.087.075a6.394,6.394,0,0,1-1.88,1.29.842.842,0,0,0-.236-.04l-.033-.016c-.028-.72.522-1.08,1.16-1.5.109-.068.214-.134.327-.219a1.462,1.462,0,0,0,.713.322s0,.068.037.085m-2.173-2.771a.515.515,0,0,1,.205.085h.028a.711.711,0,0,0,.317.339c-.04.174-.2.257-.557.386-.1.035-.219.075-.339.125s-.323.15-.48.212a3.027,3.027,0,0,0-1.688,1.069.384.384,0,0,0-.021.23v.052a.118.118,0,0,0-.031.037.394.394,0,0,0-.158.349.858.858,0,0,1-.063.089l-.047-.089-.189.031h-.023a1.011,1.011,0,0,1,.063-.417,1.571,1.571,0,0,0,.083-.409,6.045,6.045,0,0,0,.459-.522,6.2,6.2,0,0,1,.815-.848,4.183,4.183,0,0,1,1.626-.72m-2.69.024a2.811,2.811,0,0,0-.53.527,1.04,1.04,0,0,1-.2-.08,1,1,0,0,0-.071-.235.272.272,0,0,1,.017-.077.932.932,0,0,1,.224-.209,3.683,3.683,0,0,1,.842-.541.5.5,0,0,0,.082.311c-.113.111-.231.195-.36.3m-.464,10.743a1.136,1.136,0,0,0,.174-.1,1.359,1.359,0,0,1,.572-.2.457.457,0,0,1,.165.023l.005.028a.364.364,0,0,0,.092.223.614.614,0,0,0-.087.31.364.364,0,0,1-.068.023.958.958,0,0,0-.381.3,4.691,4.691,0,0,0-1.551.913,4.642,4.642,0,0,1-.993.7,2.727,2.727,0,0,0-.49.443,4.105,4.105,0,0,1-.532.45c-.071-.009-.128-.071-.205-.184l-.019-.009a2.094,2.094,0,0,1,.819-.883l.056-.01.05-.063c.007-.016.047-.031.069-.08a.745.745,0,0,0,.158-.24l.243-.235a10.647,10.647,0,0,1,1.921-1.4m-5.368,6.605-.005.071a1.13,1.13,0,0,0-.517.577.9.9,0,0,1-.149.254,3.024,3.024,0,0,1-.509.489,4.705,4.705,0,0,0-.619.619.7.7,0,0,0-.1.176c-.024.028-.037.04-.037.04a.012.012,0,0,1-.021,0,.747.747,0,0,0-.144-.063.841.841,0,0,0-.228-.509c-.077-.65.334-.963.829-1.3.082-.066.19-.125.273-.2l.042.01a.866.866,0,0,0,.313-.057.438.438,0,0,1,.143-.035s.049.007.068.012l.195.09.09-.2a.4.4,0,0,1,.332-.2.533.533,0,0,1,.144.036.447.447,0,0,0-.1.191m-.73-3.029c-.183-.068-.231-.3-.29-.574a4.643,4.643,0,0,0,.29-.5,2.83,2.83,0,0,1,.4-.586,2.257,2.257,0,0,1,.95-.523,3.149,3.149,0,0,0,1.008-.537,2.613,2.613,0,0,0,.711-.186,3.044,3.044,0,0,1,.937-.226.745.745,0,0,1,.232.035c-.019.04,0,.063.01.115a4.067,4.067,0,0,0-2.469,1.647,2.948,2.948,0,0,0-.793.64,2.461,2.461,0,0,1-.987.692m3.17,3.829c-.077.017-.141.04-.207.057h-.066l-.049.043a8.4,8.4,0,0,0-.678.81,4.709,4.709,0,0,1-.814.911c-.181-.09-.285-.29-.125-.748.117-.285.254-.591.3-.685a.343.343,0,0,0,.268-.137,1,1,0,0,0,.141-.223,1.272,1.272,0,0,1,.148-.21,1.53,1.53,0,0,1,.848-.177l.391-.03-.016-.023a2.017,2.017,0,0,0,.245.043c.2.007.414.03.473.118.019.009.03.043.03.043a.234.234,0,0,1-.1.111.326.326,0,0,0-.1.043.938.938,0,0,0-.216-.016,2.81,2.81,0,0,0-.475.066m1.657.758a1.225,1.225,0,0,0-.776.609.99.99,0,0,1-.235.276l-.1.132.063.13c.019.035.019.052,0,.077a.143.143,0,0,1-.12.056.175.175,0,0,1-.1-.026,2.066,2.066,0,0,0-.031-.4,1.029,1.029,0,0,1-.038-.229,2.068,2.068,0,0,1,1.083-.993.229.229,0,0,0,.149-.137.68.68,0,0,0,.109-.017,4.91,4.91,0,0,1,.73-.092.555.555,0,0,1,.391.108c-.012.03-.051.172-.051.172h-.243a.943.943,0,0,0-.833.337m1.925,3.554a1.25,1.25,0,0,0-.7.475,1.244,1.244,0,0,1-.33.3.446.446,0,0,1-.311-.325.35.35,0,0,1,.179-.386h.021a1.749,1.749,0,0,0,.72-.151.922.922,0,0,1,.33-.123l.012.031.082.07.042,0a.159.159,0,0,1-.042.11m1.532-10.09a5.949,5.949,0,0,1-.723.671l-.059.037-.01.08a.439.439,0,0,1-.141.205.927.927,0,0,0-.216.52,8.831,8.831,0,0,1-2.038,1.96,2.121,2.121,0,0,0-.644.165,2.939,2.939,0,0,1-.422.115.819.819,0,0,0-.106-.137.989.989,0,0,0-.124-.129,3.067,3.067,0,0,1,1.283-1.276,5.943,5.943,0,0,0,.923-.748,1.793,1.793,0,0,0,.188-.276.563.563,0,0,1,.122-.209,2.285,2.285,0,0,1,.348-.337,2.628,2.628,0,0,0,.476-.522,8.428,8.428,0,0,0,.789-1.586l.05-.108a1.009,1.009,0,0,0,.364-.44.352.352,0,0,0,.257-.169l.129.026.087-.115A3.531,3.531,0,0,1-107,78.348l.118-.037a.8.8,0,0,0,.252-.189h.181a1.168,1.168,0,0,1,.318.03c.12,0,.247.01.377.01a1.678,1.678,0,0,0,.244-.012.951.951,0,0,0,.179.151l.061.08.12-.031a1.728,1.728,0,0,1,.4-.035.681.681,0,0,1,.5.148.135.135,0,0,1,.057.11.121.121,0,0,1-.057-.017,1.374,1.374,0,0,0-.261-.04.392.392,0,0,0-.12.023l-.15.031-.019.129a.272.272,0,0,0,.019.2.483.483,0,0,0-.056.179.069.069,0,0,1-.064-.028l-.087-.047-.078.009a3.593,3.593,0,0,0-1.986.958,4.136,4.136,0,0,1-1.161.708,5.862,5.862,0,0,0-.977.869m4.614,7.77a1.772,1.772,0,0,0-1.1,1.414.485.485,0,0,1-.282.08.483.483,0,0,1-.386-.153c-.012-.052-.058-.115-.012-.181a.489.489,0,0,0-.065-.245,2.394,2.394,0,0,1,.369-.52,4.168,4.168,0,0,0,.428-.6c.043-.052.12-.063.171-.085.188-.1.391-.217.584-.327a.5.5,0,0,1,.363.316.341.341,0,0,1-.073.3m.4-6.685a4.386,4.386,0,0,0-1.407,1.149,4.641,4.641,0,0,1-1.149.958l-.148.1.064.16a.132.132,0,0,0-.019.063l-.043.094a.262.262,0,0,0-.129.089c-.21,0-.252-.3-.252-.3-.012-.259.051-.542.228-.579l.2-.04-.01-.183s.031-.08.054-.127l.077.023.077-.068a2.775,2.775,0,0,1,.478-.468,3.71,3.71,0,0,0,.577-.577,1.827,1.827,0,0,0,.435-.308c.17-.176.3-.3.509-.3h.062a.857.857,0,0,0,.4.223Zm.664.6a.151.151,0,0,0-.118.038.475.475,0,0,0-.092-.155,1.93,1.93,0,0,1,.864-1.193c.078-.078.16-.12.227-.195.047-.043.113-.094.148-.134a1.061,1.061,0,0,1,.511-.323c.03.017.068.035.068.035l.014.075a.277.277,0,0,0,.046.118l-.046.127a.331.331,0,0,0,0,.125,3.058,3.058,0,0,0-1.622,1.481m2.34-21.141a8.046,8.046,0,0,1,1.981-.574.73.73,0,0,1-.1-.038c1.906-.52,5.352-1.5,8.287-2.573a29.415,29.415,0,0,1,8.219-1.753c-3.309,1.271-6.934,2.361-10.137,3.754-.108.049-.242.071-.346.12-.49.205-4.675,1.382-8.454,2.425-.6.106-1.205.243-1.8.362.508-.605,1.683-.769,2.6-1.083.65-.163-.509-.205-.245-.64m15.57,2.773c-3.039,1.789-5.837,3.8-9.267,5.2,3.235-2.1,6.245-4.413,9.484-6.51,1.116.13-.645.494-.217,1.308m-6.623,2.373c.134.765-2.161,2.022-3.1,1.733.861-.744,2.247-.974,3.1-1.733m-1.332,0c.179-.692,1.106-.642,1.775-.869a3.813,3.813,0,0,1-1.775.869m2.209-4.818c1.1.139,2.738-.836,3.929-1.248-.364,1.031-3.386,1.572-5,2.231a.324.324,0,0,1,.123,0c-1.414.449-3.109,1.035-4.613,1.629-.412,0-.932.457-1.4.422a4.091,4.091,0,0,1,2.168-.819c-.555-.4-1.589.316-2.413.273.01-.342.709-.144.64-.584a22.141,22.141,0,0,1-2.853.664c.72-.445,1.777-.617,2.535-1.022,2.2-.77,5.282-1.876,7.642-2.791,2.027-.7,4.321-1.838,6.847-1.975-2.3,1.269-5.418,1.892-7.612,3.22m-7.734,6.784c-.186.094-.367.236-.541.348a1.667,1.667,0,0,1-.918.456,1.907,1.907,0,0,1-.247-.054,1.29,1.29,0,0,0,.026-.16,3.735,3.735,0,0,1,.84-.5,5.67,5.67,0,0,0,.84-.509h.015a.4.4,0,0,0-.015.08,1.311,1.311,0,0,0,0,.342m3.1-3.477c-.668.873-2.139.96-3.084,1.514-.169-.8,2.2-1.029,3.084-1.514m-4.6,24.832V90.6a.645.645,0,0,1-.21.137.781.781,0,0,0-.429.81.334.334,0,0,1-.282.115.759.759,0,0,1-.389-.125.857.857,0,0,0-.149-.4l-.017-.016a1.268,1.268,0,0,1,1.139-.866.135.135,0,0,1,.054.01.347.347,0,0,1,.163.043c.024.028.066.028.122.063a.151.151,0,0,0,0,.195m.49-4.453-.092.043a1.031,1.031,0,0,0-.247-.019,4.681,4.681,0,0,0-.576.071,2.288,2.288,0,0,1-.238.043,2.944,2.944,0,0,1-.961-.285.715.715,0,0,0-.189-.094.3.3,0,0,0-.058-.139,13.9,13.9,0,0,0,2.686-.664l.054-.012.061-.052a1.163,1.163,0,0,1,.661-.5,1.553,1.553,0,0,0,.525.212c-.214.8-.894,1.1-1.626,1.4M-85.6,62.482c-1.69,1.314-4,1.994-5.743,3.246-.33-.09.021-.177,0-.423-1.6.732-4.59,3.159-6.617,3.477,3.59-3.053,7.7-4.267,12.36-6.3M-97.836,75.42a1.46,1.46,0,0,0,.356-.916,2,2,0,0,0,.255-.673,2.685,2.685,0,0,1,.127-.457,2.675,2.675,0,0,0,.5-.494,1.383,1.383,0,0,1,.741-.574,2.719,2.719,0,0,0,.614-.311,3.187,3.187,0,0,1,.332-.153,1.429,1.429,0,0,0,.482-.36,2.124,2.124,0,0,1,.36-.268,3.318,3.318,0,0,1,.525-.052h.037c.276-.177.557-.33.848-.485,4.462-2.592,9.74-5.435,14.193-8.476-2.9,2.147-5.463,4.628-8.149,6.97A13.175,13.175,0,0,0-82.8,67.693a1.022,1.022,0,0,0,.245-.163c.052-.05.109-.108.17-.111a1.521,1.521,0,0,1,.69-.146,5.755,5.755,0,0,1,1.153.174.206.206,0,0,1,.083.254.113.113,0,0,1-.108.1.272.272,0,0,1-.118-.056l-.075-.063-.1.023a2.783,2.783,0,0,1-.534.057,2.454,2.454,0,0,0-.906.186c-.207.094-.422.221-.619.332-.218.139-.424.249-.582.33a.137.137,0,0,1-.052.009.52.52,0,0,0-.268.087,3.484,3.484,0,0,0-.381.316,2.722,2.722,0,0,1-1.055.631.741.741,0,0,0-.205-.028,1.163,1.163,0,0,0-.445.108,1.357,1.357,0,0,1-.282.07H-86.2a1.657,1.657,0,0,1-.233-.07A1.475,1.475,0,0,0-86.8,69.6l.149-.056-.12-.209a39.607,39.607,0,0,1-8.09,5.715,28.577,28.577,0,0,1,4.982-4.22,5.417,5.417,0,0,0-1.57.52c-.266.12-.5.231-.73.32a3.841,3.841,0,0,1-.963.315,3.892,3.892,0,0,1-1.771.861l-.1.005-.069.083a.719.719,0,0,0-.061.063,1.218,1.218,0,0,0-.181.209,1.3,1.3,0,0,0-.6.548c-.085.117-.156.236-.24.33a2.52,2.52,0,0,1-.287.177,1.546,1.546,0,0,0-.469.363,2.531,2.531,0,0,0-.285.615,1.676,1.676,0,0,1-.315.577l-.056.035v.05a.3.3,0,0,0-.008.137.383.383,0,0,0-.089.019,1.588,1.588,0,0,1-.16-.635Zm25.479-18.571c2.919-1.554,8.266-.723,11.476-.009-4.489.725-9.467-.515-13.249,1.521.551-.77,3.346-1.215,4.86-1.73-.852-.633-2.078.259-3.086.217m13.828,4.425a1.222,1.222,0,0,0-.669.235l-.028.031-.005.031a2.952,2.952,0,0,1-2.384,1.1h-.047l-.038.028a2.236,2.236,0,0,1-.466.123l.017-.049A1.215,1.215,0,0,1-61.8,62.6l.075-.03.04-.076A3.137,3.137,0,0,1-60.13,61.39c.066-.04.13-.075.212-.115a.846.846,0,0,1,.41-.19.261.261,0,0,1,.151.07l.129.12.153-.092a.407.407,0,0,1,.247-.075.372.372,0,0,1,.3.1.051.051,0,0,0,.035.017Zm.708,1.928a3.616,3.616,0,0,0,.7-.45,3.2,3.2,0,0,1,.965-.181,1.712,1.712,0,0,1,.487.064.823.823,0,0,0,.233.285.345.345,0,0,0-.073.127,2.076,2.076,0,0,0-.381.153,4.806,4.806,0,0,1-.774.292h-.118a.626.626,0,0,0-.245.035c-.094.031-.193.075-.294.12a4.967,4.967,0,0,0-.871.334c-.057.052-.1.07-.146.111a.378.378,0,0,1-.252.115h-.005c-.158-.445.122-.668.77-1M-65.3,69.023a.651.651,0,0,1,.038-.092.739.739,0,0,1,.247-.228c.087-.092.195-.16.268-.249a2.088,2.088,0,0,0,.144-.343,2.162,2.162,0,0,1,.092-.226l.062-.16c.162-.322.247-.468.417-.468l.068.005a.858.858,0,0,1-.139.848l-.11.094.068.148c.01.057.01.1-.08.238a1.167,1.167,0,0,0-.165.247,4.392,4.392,0,0,1-.648,1.182,1.54,1.54,0,0,1-1.283.711.985.985,0,0,1-.2-.014c-.1-.042-.137-.108-.137-.16-.021-.233.517-.7.831-.97.174-.16.31-.257.41-.369a.52.52,0,0,0,.118-.2m-.054-3.938c-.012-.176.1-.285.288-.469a1.6,1.6,0,0,0,.351-.447.737.737,0,0,0,.5-.174.349.349,0,0,1,.111.043,4.162,4.162,0,0,0,.5.059c.031,0,.054-.017.075-.017a.374.374,0,0,0-.043.165.947.947,0,0,0-.231.023,3.178,3.178,0,0,0-.89.583,2.733,2.733,0,0,1-.543.407.24.24,0,0,0-.122-.172m1.179,5.181c.4,1.46-2.081,2.015-2.645,3.255-.127-1.219,1.951-2.137,2.645-3.255m-2.6,7.454a.354.354,0,0,0,.123-.059.188.188,0,0,0,.115-.129l.108.019.063-.148c.117-.205.214-.4.313-.6a3.931,3.931,0,0,1,.954-1.48l.073-.066v-.207a2.843,2.843,0,0,1,1.155-.991l.035-.023.033-.031a3.284,3.284,0,0,1,1.2-.848c.252-.146.53-.309.781-.475a1.132,1.132,0,0,1,.551.659,3.843,3.843,0,0,1-1,.64H-62.3l-.045.054a6.144,6.144,0,0,1-1.13.948l-.061.066-.019.052a.786.786,0,0,1-.3.376,2.521,2.521,0,0,0-.182.177.2.2,0,0,0-.066.165.175.175,0,0,1-.068.021.739.739,0,0,0-.212.139c-.064.092-.263.332-.358.475a.644.644,0,0,0-.059.155.793.793,0,0,0-.021.139,2,2,0,0,1-.458.363,3.143,3.143,0,0,0-.448.336,2.034,2.034,0,0,0-.181.252c-.016.017-.031.052-.056.08a1.325,1.325,0,0,0-.463.231,1.175,1.175,0,0,0-.146.077,1.026,1.026,0,0,0-.294-.063h-.041a1.259,1.259,0,0,0,.13-.308m.464,3.5a1.366,1.366,0,0,0,.242-.268,2.01,2.01,0,0,0,1.066-.727,1.4,1.4,0,0,0,.728-.73.918.918,0,0,1,.407-.516l.082-.043.042-.085c.33-1.21.816-1.852,1.65-2.1a.71.71,0,0,0,.309.054.5.5,0,0,0,.182-.023.85.85,0,0,0,.362.108l.113-.026A1.024,1.024,0,0,0-60.9,77h.019l-.019.042a2.43,2.43,0,0,0-1.678,1.787,2.611,2.611,0,0,0-.784,1.217l-.047.031a3.6,3.6,0,0,0-.9,1.167.544.544,0,0,0-.177.035.855.855,0,0,0-.616.32,1.35,1.35,0,0,0-.417.1,1.209,1.209,0,0,1-.37.1l-.054-.026a.672.672,0,0,1-.509-.421.578.578,0,0,1,.134-.132m-4.712-20.265c2.365-1.514,5.788-1.986,8.836-2.82-1.481-.468-2.646.007-4.437-.209-1.267.5.162-.383.457-.438,1.56-.287,5.844.435,7.5.433-3.611,1.514-8.716,1.553-12.352,3.034m-8.608,8.925a1.069,1.069,0,0,0-.3.031,1.446,1.446,0,0,0-.541.273,2.447,2.447,0,0,1-.368.179.441.441,0,0,0-.186.146.223.223,0,0,0-.118.057.955.955,0,0,1-.109-.057c-.021-.019-.031-.037-.066-.037-.156.066-.162.037.066-.141v-.01l.028-.035V70.26a.578.578,0,0,0-.049-.162l-.01-.064a1.981,1.981,0,0,1,1.092-.807.238.238,0,0,0,.2-.191c.948-.412,1.967-.765,2.939-1.076a9.321,9.321,0,0,1,1.128-.057c.344,0,.675.005.979.023a3.942,3.942,0,0,1,.44.014s.021.019.043.036a1.009,1.009,0,0,0,.1.146,7.271,7.271,0,0,1-.741.08,6.632,6.632,0,0,0-2.265.513l-.134.1a6.129,6.129,0,0,1-1.471.915,3.139,3.139,0,0,1-1.984,1.429,3.756,3.756,0,0,1,1.438-1.269Zm6.822-10.345a2.556,2.556,0,0,1,.562.151,2.478,2.478,0,0,0,.742.156.43.43,0,0,1-.057.315,3.943,3.943,0,0,1-.643-.155l-.047-.01h-.03a5.991,5.991,0,0,0-1.645.389l-.082.023a10.115,10.115,0,0,1-1.919.789,12.3,12.3,0,0,0-1.824.742c-.129,0-.272-.01-.395-.01a2.458,2.458,0,0,0-1.019.165.228.228,0,0,1-.043-.24h.043a.447.447,0,0,0,.128-.05l.1-.035.005-.073c.037-.07.1-.11.116-.163a1.645,1.645,0,0,0,1.059-.723,3.445,3.445,0,0,1,.68-.268A4.485,4.485,0,0,0-76.2,60.2a5.248,5.248,0,0,1,.967-.365,2.964,2.964,0,0,0,.372-.141,1.715,1.715,0,0,1,.426-.151,1.441,1.441,0,0,1,.242-.014h.167a2.422,2.422,0,0,0,.478-.056,1.058,1.058,0,0,0,.235-.139.559.559,0,0,0,.1-.089L-73,59.3l-.022.183ZM-76.8,64.344c.459-.089.888-.167,1.246-.238a.277.277,0,0,1,.061.005c.052.012.062.021.1.03a2.066,2.066,0,0,0,1.206.41.545.545,0,0,1,.169.028c.036.043.083.08.125.129.02.042.057.077.082.117a.9.9,0,0,1-.171.148c-.06,0-.078-.033-.144-.056a.75.75,0,0,0-.24-.092l-.078-.009-.066.043-.073.017a.724.724,0,0,0-.266.186,11.812,11.812,0,0,1-1.848.172,9.559,9.559,0,0,0-3.344.494.381.381,0,0,1-.224-.249,1.335,1.335,0,0,1,.675-.309c.168-.056.334-.085.5-.148a4.894,4.894,0,0,1,.456-.212,2.684,2.684,0,0,1,.391-.205c.376-.075.916-.177,1.45-.261m3.552,2.676c.144.854-.9.549-1.1,1.092-.329-.212.53-1.057,1.1-1.092m-5.072,5.845c.207-.369.816-.341.9-.855.52.311.245,1.673-.675,1.307.031-.268-.047-.393-.223-.452m-.21-1.094c-.4-.953,1.537-1.5,1.991-2.372.007.607-1.144,1.918-1.991,2.372m1.77,1.546a14.8,14.8,0,0,1-3.171,3.345,1.02,1.02,0,0,1,.217-.068,1.481,1.481,0,0,0,.31-.085,5.672,5.672,0,0,0,.68-.363c.158-.106.362-.212.532-.306a3.293,3.293,0,0,1,.386-.172,2.681,2.681,0,0,0,.791-.473,3.379,3.379,0,0,0,.377-.115.686.686,0,0,1,.323-.094c.051,0,.089.01.13.01l.127.066.094-.1a.388.388,0,0,1,.242-.1.214.214,0,0,1,.148.045.174.174,0,0,1-.052.125.813.813,0,0,0-.318.172.452.452,0,0,0-.113.148.336.336,0,0,0-.144.043.788.788,0,0,0-.162.214.183.183,0,0,1-.035.063,3.116,3.116,0,0,1-.436.309,2.027,2.027,0,0,0-.451.348.949.949,0,0,0-.317.132.387.387,0,0,1-.193.08c-.158.01-.229.155-.268.21a.759.759,0,0,0-.179.057,6.456,6.456,0,0,1-1.32.207c-.3,0-.477-.05-.563-.179a.421.421,0,0,0-.157.162c.424-1.1,1.777-3.151,3.521-3.688m-.659,4.43a3.334,3.334,0,0,1,.814-.542,4.324,4.324,0,0,0,.767-.489,1.2,1.2,0,0,1,.3-.16,2.508,2.508,0,0,0,1.024-.774,3.128,3.128,0,0,0,.955-.8.522.522,0,0,1,.158-.019h.146a.516.516,0,0,0,.188.019V75c-.035.064-.108.125-.167.214a1.261,1.261,0,0,0-.3.722,4.966,4.966,0,0,1-1.078,1.224,1.543,1.543,0,0,0-.746.4,2.427,2.427,0,0,0-.748.341,4.979,4.979,0,0,1-.5.231.438.438,0,0,1-.087.009h0a1.625,1.625,0,0,1-.718-.165.1.1,0,0,1-.011-.075Zm4.23-12.06a.745.745,0,0,0-.2-.346.327.327,0,0,0,.077-.04.277.277,0,0,1,.061-.068c.087,0,.144-.009.223-.009l.111.005a.737.737,0,0,0,.677-.271,2.213,2.213,0,0,0,.966-.742,5.023,5.023,0,0,1,.377-.422h.028l.117.113.165-.176a2.377,2.377,0,0,1,1.386-.8l.03-.019h.026c.057,0,.131.146.136.424a1.27,1.27,0,0,0-.191.184,7.794,7.794,0,0,1-1.031.9l-.052.023-.024.08a1.537,1.537,0,0,1-.454.553,1.109,1.109,0,0,1-.264.057,1.831,1.831,0,0,0-.32.07.433.433,0,0,0-.184.1l-.057.04a1.37,1.37,0,0,1-.139.01l-.205-.01a.842.842,0,0,0-.277.042,3.13,3.13,0,0,0-.317.141,1.364,1.364,0,0,1-.551.163Zm.464,7.868a1.223,1.223,0,0,0,.365-.242,5.743,5.743,0,0,0,1.092-.671,6.867,6.867,0,0,1,.789-.489l.008-.03.04-.031c.127-.146.259-.282.384-.436A4.5,4.5,0,0,0-69,70.185a.288.288,0,0,0,.108-.1l.148-.03-.016-.151a.343.343,0,0,0,.073-.1h.042c.1,0,.273.019.308.16.023.24-.252.622-.5.975a2.547,2.547,0,0,0-.608,1.21,2.114,2.114,0,0,0-.445.583,1.909,1.909,0,0,1-.406.525.511.511,0,0,1-.221.092,2.407,2.407,0,0,0-.236.075,10.976,10.976,0,0,1-1.586.565.18.18,0,0,0-.083-.045.827.827,0,0,1-.422-.325.611.611,0,0,1,.13-.066m4.114-11.945c1.612-1.137,2.631-.155,0,0m-9.5-4.11c-.367.41-1.1.515-1.539.866-1.513-.461.381-.942-.893-1.081,1.448-1.177,4.366-.93,6.4-1.52-.3.72-2.867,1.087-3.971,1.735m-1.991.866c-.482.991-1.061.355-1.971.2.24-.476,1.387-.075,1.971-.2M-93.313,78.1c.3.678-.987,1.626-1.765,1.94.455-.77,1.309-1.16,1.765-1.94m-2.867-1.306A4.732,4.732,0,0,1-94.2,75.483a3,3,0,0,1-1.985,1.308m3.3,3.9c.372.61-1.048,1.66-1.759,1.3.685-.341.9-1.148,1.759-1.3m.9,3.024c.332.775-1.8,2.551-2.653,1.52.543-1.3,2.116-.539,2.653-1.52m-.122-4.877h0a1.241,1.241,0,0,1-.111-.984c.082-.325.487-.53.883-.636a.265.265,0,0,0,.2.066h.01a.313.313,0,0,0,.058.118.928.928,0,0,0-.033.207l-.054.1a2.819,2.819,0,0,1-.527.808c-.083.111-.181.2-.252.32Zm-5.132,5.084a.523.523,0,0,1-.428-.214,1.772,1.772,0,0,1,.9-.429,5.876,5.876,0,0,0,.622-.223c.028.057.038.1.073.176a.33.33,0,0,0,.024.144,2.351,2.351,0,0,1-1.187.546m3.712,8.9c-.48,1.118-.524,1.638-.875,2.6a4.806,4.806,0,0,0,1.335-1.309c.024.635-1.212,1.881-1.563,2.818a6.745,6.745,0,0,0,1.989-2.168,17.666,17.666,0,0,1-2.2,4.121c.148.48.73-.409.9-.64.228.165-.485,1.254-.9,1.525.678.238.643-.082.44,1.057.457-.059.44-.574.661-.85.132.744-.579,2.008-.433,3.025-1.278-1.043-1.442-3.547-1.355-5.623-.045-.52-.586.243-.638.435.229-1.511,1.6-4.213.635-5.207.478-.261.45-1.026,1.123-1.083.082-.37-.175-.416-.438-.431.181-.476.765-.539,1.1-.862,0-.219-.266-.174-.437-.224.232-.577.88-.706,1.307-1.08-.521-1.3.391-2.493,1.772-3.037.068,1.153-1.027,1.154-1.323,1.965.864.749,1.057-.977,1.984-.878-.857,1.031-1.984,1.817-2.432,3.255.054.172.229.214.229.424,1.454-.942-1.134,1.565-1.535,2.17.09.315.29-.1.652,0m4.124-.988a.818.818,0,0,1-.215-.054,2.1,2.1,0,0,0-.437-.075h-.078a1.2,1.2,0,0,0-.821.522.918.918,0,0,1-.5.374l-.189.037v.15l-.083.045.007.137a.722.722,0,0,0,.332.541.378.378,0,0,1,.191.191.415.415,0,0,1-.162.049l-.04-.012a.729.729,0,0,1-.026-.073.787.787,0,0,0-.129-.12.679.679,0,0,0-.219-.12l-.073-.023c-.4-.271-.384-.833-.3-1.3a3.27,3.27,0,0,1,1.871-.727h.272a.6.6,0,0,1,.122.1,1.706,1.706,0,0,0,.454.188.146.146,0,0,1,.035.09Zm.951-14.765a1.543,1.543,0,0,0-.447.462.38.38,0,0,0-.005.25h-.016l-.212.066-.01-.023a.659.659,0,0,0-.155-.191,1.332,1.332,0,0,1,.763-1.228.714.714,0,0,1,.146.04.819.819,0,0,0,.256.054c.125.188.026.3-.32.569m1.18-4.766a2.526,2.526,0,0,0-.555.329,1.138,1.138,0,0,1-.233.17c-.148.087-.289.167-.4.238a3.185,3.185,0,0,0-.645.442l-.045.031-.007.038a2.469,2.469,0,0,1-.581.739,3.251,3.251,0,0,0-.666.831,1.436,1.436,0,0,0-.1.511c-.047.342-.082.461-.245.485l-.181.056a1.689,1.689,0,0,0-.108-.419,1.894,1.894,0,0,0,.247-.861,1.835,1.835,0,0,1,.181-.708,3.106,3.106,0,0,1,.59-.808,4.266,4.266,0,0,0,.442-.5,3.544,3.544,0,0,1,.732-.426A4.133,4.133,0,0,0-88,71.962a3.606,3.606,0,0,0,.917-.275,3.783,3.783,0,0,1,1.014-.249,1.09,1.09,0,0,1,.341.063,1.246,1.246,0,0,1-.932.734.192.192,0,0,1-.089.016s-.181-.016-.226-.016a.894.894,0,0,0-.3.064m.4,3.069a.326.326,0,0,1,.217-.32l.1-.042.037-.106c.009-.075.009-.1.009-.1a2.623,2.623,0,0,0,.357-.539,1.156,1.156,0,0,1,.386-.478.693.693,0,0,1,.181-.063,1.168,1.168,0,0,0,.386-.183c.094-.068.157-.137.237-.2a.854.854,0,0,1,.2-.177c.127-.045.278-.108.426-.165a2.718,2.718,0,0,1,.393-.151,2.4,2.4,0,0,1,1.059-.252,2.174,2.174,0,0,1,.254.01v.083h-.054l-.059.033a2.445,2.445,0,0,0-.609.541l-.042.014-.1-.031-.077.094a4.108,4.108,0,0,1-1.008.692,3.955,3.955,0,0,0-1.269.948l-.045.052-.007.049v.113a2.507,2.507,0,0,1-.791.5.415.415,0,0,1-.176-.32m3.423,2.4c-.01.049-.047.08-.1.137a.574.574,0,0,0-.169.3,2.66,2.66,0,0,0-.9.417,3.073,3.073,0,0,1-.643.343.724.724,0,0,1-.118-.228,1.7,1.7,0,0,0-.111-.21.392.392,0,0,0,.111-.224l.012-.005a.34.34,0,0,0,.056-.023l.118-.012.042-.122c.167-.369.491-.478.927-.643A1.877,1.877,0,0,0-84,77.418h.023a.449.449,0,0,0,.358.184h.007c.019.1.1.132.163.165m-1.56,4.31a8.91,8.91,0,0,1-1.305-.125l-.15-.033a.454.454,0,0,1-.076-.52,1.306,1.306,0,0,0,.529-.428,11.507,11.507,0,0,0,2.971-1.259.268.268,0,0,0,.058-.049l.052.026.057.177.229-.026a1.127,1.127,0,0,1,.306-.031h.189c.026.068.071.113.091.17a2.183,2.183,0,0,1,.076.263,4.789,4.789,0,0,0-1.885,1.474c-.108.045-.2.073-.313.116a2.39,2.39,0,0,0-.656.243Zm2.741,5.983a1.963,1.963,0,0,0-.283.327,2.652,2.652,0,0,0-.572.311,2.061,2.061,0,0,1-.974.409.585.585,0,0,1-.416-.129.766.766,0,0,1-.089-.57.336.336,0,0,1,.3-.134l.078-.03.057-.063a.8.8,0,0,0,.169-.148,1.257,1.257,0,0,0,.407-.492.328.328,0,0,0,.144-.068l.156-.071-.017-.129h.089a.9.9,0,0,0,.384.228.565.565,0,0,0,.1.012l.146.068.092-.07a1.633,1.633,0,0,0,.238-.21c.139-.141.226-.205.365-.205a.168.168,0,0,1,.083.023.536.536,0,0,0,.04.282,4.15,4.15,0,0,1-.5.659m1.3-5.108h-.024c-.118.087-.212.16-.318.242a4.437,4.437,0,0,1-2.4.977,2.536,2.536,0,0,1-.535-.063.271.271,0,0,0-.082-.08l-.015-.151h-.238a1.492,1.492,0,0,1-.021-.3.524.524,0,0,0,.021-.184,1.378,1.378,0,0,1,.49-.1,1.421,1.421,0,0,0,.9-.37,5.774,5.774,0,0,0,1.7-.869.275.275,0,0,1,.181.075,1.589,1.589,0,0,0,.153.077l.033.019h.047a.665.665,0,0,0,.219-.045,1.237,1.237,0,0,1-.109.781m7.35,1.358a2.423,2.423,0,0,0-.456.489,1.467,1.467,0,0,1-.273.021c-.08,0-.219-.005-.306-.005a2.694,2.694,0,0,0-.339-.014,1.771,1.771,0,0,0-.27.014,1.133,1.133,0,0,0-.263.075.45.45,0,0,1-.2.052.262.262,0,0,1-.1-.026l-.083-.054-.063.028c-.749.141-1.435.212-2.09.282a12.338,12.338,0,0,0-2.347.388.224.224,0,0,1-.1-.111.067.067,0,0,1,.042-.052,1.036,1.036,0,0,0,.145-.268,1.117,1.117,0,0,0,.454-.363,1.161,1.161,0,0,0,.17-.165,3.741,3.741,0,0,1,1.4-.4c.224-.035.441-.063.638-.111a1.569,1.569,0,0,0,.261-.078.789.789,0,0,1,.264-.068h.165c.241,0,.455.023.676.028.247.017.475.05.687.05a3.659,3.659,0,0,0,.518-.035,3.107,3.107,0,0,1,.4-.023c.063,0,.134,0,.2.005l.1.017a2.651,2.651,0,0,0,.442.045h.146l.024.017a.97.97,0,0,0,.176.17.2.2,0,0,0,0,.09m3.15-7.711a2.576,2.576,0,0,1-.177.19,3.489,3.489,0,0,0-.591.308c-.078.057-.174.115-.278.181-.087.042-.2.089-.277.122a2.3,2.3,0,0,0-.433.217c-.057.043-.125.092-.2.143a2.786,2.786,0,0,1-1.491.682l-.037-.035.037-.2a.4.4,0,0,0-.056-.179,7.608,7.608,0,0,1,1.045-.888A6.369,6.369,0,0,0-71.519,75.8c.106-.064.208-.136.313-.21a3.807,3.807,0,0,0,1.366-1.262,2.674,2.674,0,0,0,.913-.774,2.3,2.3,0,0,1,.937-.772l.037-.019.045-.021a.153.153,0,0,1,.058-.05.626.626,0,0,1,.132-.115,1.181,1.181,0,0,1,.473-.129.315.315,0,0,1,.177.035c.024.042.047.1.071.156-.21.276-.423.5-.612.716l-.057.068v.355a5.5,5.5,0,0,1-.836.833,5.45,5.45,0,0,0-.955,1.035,3.484,3.484,0,0,0-1.014.953m6.739,9.7c-.645-.715,1.2-.838,1.786-1.087-.052.9-1.309.612-1.786,1.087m.89-1.506c-.407-1.612-2.671.859-4.411.647.368-.643,1.629-.416,1.744-1.3-1.142-.336-2.288,1.2-3.742,1.3.888-.383.718-.758.888-1.523,1.478,0,1.946-.972,3.528-.873-.139.231-.506.231-.44.654,1.415.384,3.182-.779,5.1-.657-.2,1.28-1.992.939-2.663,1.753m5.591-11.077-.141-.068-.087.094a10.455,10.455,0,0,1-1.635,1.182l.005-.174-.358.238a1.878,1.878,0,0,1-1.034.374c-.059,0-.108-.012-.165-.012a.977.977,0,0,0-.233-.252c-.091-.089-.143-.12-.113-.238,0-.148.141-.228.48-.325a1.213,1.213,0,0,0,.74-.489c.444-.134.913-.329,1.391-.529.257-.115.516-.212.737-.294a.812.812,0,0,1,.488.424c-.024.028-.052.068-.052.068M-58,65.049a5.535,5.535,0,0,1,2-1.276,3.28,3.28,0,0,1-2,1.276m6.56-1c-.023.077-.047.156-.059.214a.315.315,0,0,0-.059.033.612.612,0,0,1-.24.115l-.061.012-.068.045a1.8,1.8,0,0,1-.948.6,2.148,2.148,0,0,1-.3.03,1.28,1.28,0,0,0-.866.332.746.746,0,0,0-.492.273c-.071.038-.158.123-.247.167a1.87,1.87,0,0,1-.45.193,2.065,2.065,0,0,0-.7.376,1,1,0,0,0-.294.064.421.421,0,0,1-.068.024.608.608,0,0,0-.084-.137.772.772,0,0,1,.123-.085,1.66,1.66,0,0,0,.45-.532,7.014,7.014,0,0,0,1.827-1.21.8.8,0,0,0,.515-.344l.012,0,.021-.009a3.815,3.815,0,0,0,.762-.31,2.908,2.908,0,0,1,1.026-.36.445.445,0,0,1,.153.019c.128.043.176.078.047.492m-3.7-2.238c.442-.739,1.518-.822,2.424-1.075a4.082,4.082,0,0,1-2.424,1.075m2.655-.21c.3.431-1.026,1.123-1.741,1.3-.28-1.269,1.294-.751,1.741-1.3m3.935,10.745a3.646,3.646,0,0,0-.642.177.963.963,0,0,0-.235-.017,1.221,1.221,0,0,0-.351.043c-.106,0-.214.03-.3.03a.274.274,0,0,1-.124-.03s-.005-.077-.007-.129a.263.263,0,0,1,.029-.068,1.085,1.085,0,0,1,.223-.115.8.8,0,0,1,.452-.115h.076l.1-.064.03-.04a.6.6,0,0,0,.205-.266h.038l.042-.063a2.585,2.585,0,0,1,1.537-.68h.033a.586.586,0,0,1,.224.4.686.686,0,0,1-.242.544,2.983,2.983,0,0,1-1.09.39M-49.671,67.5v-.01a1.673,1.673,0,0,1,.3-.169.5.5,0,0,0,.113-.071c.153-.07.31-.15.5-.217a13.863,13.863,0,0,0,2.284-1.412,1.043,1.043,0,0,0,.341-.075.584.584,0,0,1,.087-.033,1.482,1.482,0,0,1,.423.821,2.478,2.478,0,0,0-.247.468l-.033.012a6.4,6.4,0,0,1-3.039.915,4.218,4.218,0,0,1-.591-.033,1.2,1.2,0,0,1-.082-.111.28.28,0,0,0-.056-.083m4.582,5.373s-.03.063-.054.125a3.747,3.747,0,0,0-.64.269c-.12.063-.238.12-.367.174l-.1.031-.028.137-.066.017-.05.028a3.559,3.559,0,0,1-1.144.622.658.658,0,0,0-.062-.134,1.8,1.8,0,0,1,.262-.584,1.224,1.224,0,0,1,.059-.155,1.306,1.306,0,0,0,.426-.266.889.889,0,0,1,.474-.242h.148c.087.005.157.024.228.024h.077a1.525,1.525,0,0,0,.328-.075,1.758,1.758,0,0,1,.32-.04.23.23,0,0,1,.184.057Zm5.242,3.582a1.163,1.163,0,0,0-.233.231,2.651,2.651,0,0,0-.927.369,4.821,4.821,0,0,1-.607.306c-.108-.08-.223-.276,0-.8l.1-.05a2.435,2.435,0,0,1,.86-.344v.057l.217.023a.919.919,0,0,0,.416-.094c.071-.021.108-.035.176-.052a.318.318,0,0,1,.124.155c.019.031.019.043.036.066a1.139,1.139,0,0,1-.16.139m4.912-6.849-.049.049a1.549,1.549,0,0,1-.513.318,1.458,1.458,0,0,0-.487.236l-.231-.019c-.209-.012-.409-.012-.567-.012l.158-.148-.221-.117a1.258,1.258,0,0,0,.466-.221l.061-.05.011-.07a.556.556,0,0,0-.023-.33c.115-.148.332-.181.671-.2a1.932,1.932,0,0,0,.721-.189h.035c.233,0,.645,0,.715.188.047.179-.181.323-.629.52ZM-33,71.793v.151a2.294,2.294,0,0,1-1.1.429.368.368,0,0,1-.376-.191l.014-.033-.071-.089-.057-.115h-.19v0a.566.566,0,0,1,.283-.4,1.846,1.846,0,0,1,.626-.111,2.013,2.013,0,0,1,.866.21Zm.129-7.527a.219.219,0,0,1-.03.15c-.005.05-.1.08-.172.1a.69.69,0,0,0-.284.157h-.076l-.087.024c-.628.289-1.155.562-1.7.843-.285.143-.562.264-.861.419h-.047a1.026,1.026,0,0,0-.5.1.521.521,0,0,1-.082-.11c0-.236.309-.478.586-.655.094-.092.188-.172.275-.247a4.089,4.089,0,0,1,2.266-1.12,1.024,1.024,0,0,1,.457.1c.056,0,.083.014.1.042a.467.467,0,0,0,.158.115Zm5.809,5.529c-.351-.405,1.118-.883,1.74-1.069.042-.5-.776-.11-1.1-.228-.1-.746,1.2-.129,1.313-.642.248.028.144.216,0,.216-.089.445.327.405.685.426-.626.685-1.916.711-2.643,1.3m9.841-2.048c.594-.132.567.336,1.194.2,1.9,3.074,5.642,4.324,9.546,5.46-1.3,1.12-2.712-.263-4.2.595.085-.266.372-.323.419-.591-.737.1-2.227.541-2.589-.193l-3.375,0a15.7,15.7,0,0,0,2.765-.779c-.082-.953-1.289.353-1-.786a3.771,3.771,0,0,1-1.57.19,4.245,4.245,0,0,1,1.986-.576c-1.177-.163-1.278-1.1-2.794-1.188.094-.588-.183-.869-.791-.763.861-.6.085-.845.4-1.57m-4.571-20.454a6.9,6.9,0,0,0-3.544,2.158c-.323-1.2,2.288-3.21,3.544-2.158m-5.741-5.861c-.735,1.231-1.309,2.625-2.639,3.246.9-1.059,1.092-2.8,2.639-3.246M-44.517,55.1c-.3.569-1.417.358-1.787.857-.572-.572,1.318-.574,1.787-.857m-9.288,2.161a7.652,7.652,0,0,1-2.646.869,5.2,5.2,0,0,1,2.646-.869m-3.086,2.608c.591-.565-.523-.236-.23-1.087,2.348-.365,4.225-1.21,6.635-1.523-.908-.927,1.007-1.374,2.426-1.3a1.031,1.031,0,0,0-.216.654,18.745,18.745,0,0,0,9.264-3.483c-.69-.165-2.034.887-3.076,1.081-.045.661-.935-.2,0,0,1.015-.852,2.695-1.081,3.514-2.154a4.549,4.549,0,0,0,1.993-.652,12.992,12.992,0,0,1,4.2-2.822,1.635,1.635,0,0,1,1.328-1.532c-1.269,3.326-5.953,3.269-6.4,7.384-1.584,1.5-4.016,2.132-5.976,3.251,1.344.221,3.027-1.073,4.649-1.308-.376.508-1.2.563-1.77.871.506.913,1.89-.431,2.876-.433-.021.3-.045.614.223.649-.532.784-1.937.708-2.65,1.3.671.3,2.26-.381,3.091-.652-.235.553-.807,1.5-.226,2.156,2.632-1.377,5.176.478,6.616-2.373.318.979,2.478.163,2.87,1.071,3.267-1.194,5.872,1.65,7.746,3.232-.3.668-1.165-.447-1.558.226a1.767,1.767,0,0,0,1.325,1.078c-2.062.875-4.251,1.589-6.385,2.391-.462-.315.821-.772,1.3-.878.1-.353-.146-.384-.428-.424.49-.461,2.069.038,1.33-1.085.735.063,1.335.44,1.318-.638,1.141.57,1.035-.289,1.539-.443-.415-1.341-2.123-.974-3.3-.647-.181-.409-.657-.143-.24-.657a6.531,6.531,0,0,0-3.3.659c.395-.845,1.4-1.071,2.212-1.52-1.149-.243-2.924.753-3.771,1.521-.544.014-.247-.143-.195-.423-1.038.153-1.647.706-2.665.85.861-.654,2.039-1.026,2.664-1.946-1.087.2-1.589.909-2.664,1.1.509-.668,1.4-.942,2-1.516-1.774.416-4.234,2.066-6.621,2.592-.476-.393,1.3-.449,1.322-1.073-2.365.424-3.921,1.64-6.419,1.946,1.384-.758,3.1-1.156,4.418-1.944-.963-.455-2.273.647-3.51.647.381-.548,1.337-.546,1.746-1.085a13.6,13.6,0,0,0-4.62,1.516c.216-.859,2.874-1.236,3.735-2.172-1.5-.17-3.26,1.28-5.072,1.521a20.661,20.661,0,0,1,3.3-1.94c-1.785.322-3.655,1.12-5.725,1.733a1.185,1.185,0,0,0,.215-.652c-1.253.365-2.048,1.175-3.3,1.514,1.2-1.354,3.355-1.744,4.62-3.029-1.951.181-3.06,1.17-4.86,1.516.315-.442,1.2-1,0-.655.544-.614,1.523-.8,1.978-1.509-1.447-.233-2.818,1.553-4.609,1.739.024-.186.2-.228.2-.436-1.313.369-2.712.673-3.983,1.073,1.689-1.662,5.114-1.645,7.313-2.81-2.152-.424-4.136,1.148-6.195,1.528m-1.554-3.034c-.228.494-1.019.442-1.751.431-.158-.838,1.195-.263,1.751-.431M-86.5,52.1c-1.525.713-3.717.836-5.28,1.511.564-.815,3.309-1.367,5.28-1.511m-27.565,6.3c1.123-1.433,3.655-1.464,6.174-1.516,2.554,1.13,7.492,1.052,11.06.042C-100.255,57.991-102.96,59-103.09,59a.637.637,0,0,0-.285.195,9.721,9.721,0,0,0-1.657.483,13.944,13.944,0,0,0,1.8-.01,7.716,7.716,0,0,0,2.994-.452c4.095-1.1,12.456-3.582,13.708-3.957a32.38,32.38,0,0,1,8.424-.356c-1.64-1.271-4.5-.864-6.9-.537-.426.017-.967.064-1.723.132a54.615,54.615,0,0,0-9.346,2.177c.031-.007.049-.016.092-.024-2.377-.542-5.186.4-7.951.221,1.391-1.459,5.632-.127,7.28-1.314l1.991,0c.767-.057-.016-.577.454-.64,4.747-1.294,8.4-1.052,14.112-1.318-1.956-1.017-4.85-.323-7.725-.428a14,14,0,0,1,4.414-.854c-.059-.742-1-.61-1.33-1.092,5.8-1.1,10.563,1.807,16.57,1.93-.556.711-2.034-.278-2.42.231a21.121,21.121,0,0,0,3.755.642c-.963.49-2.874.07-4.2.209,3.11,1,7.424.788,10.834,1.518-6.155.052-13.07-.911-19.232.44.071-.228.447-.141.457-.426a30.063,30.063,0,0,0-11.75,1.965c-.022-.007-.022-.04-.022-.04s-6.126,2.046-10.142,2.888a42.315,42.315,0,0,0-5.68,1.266c.132-.655,1.18-.409,1.316-1.073-2.641.549-4.7,1.709-7.483,2.172,2.26-1.273,4.766-2.25,7.042-3.472-1.422-.1-3.42,1.127-4.841,1.721.525-1.281,3.578-1.946,5.28-2.81-2.77.017-5.223,2.215-8.363,2.606a14.025,14.025,0,0,1,5.058-2.4c-3.846.485-8.266,2.459-12.778,2.408a5.611,5.611,0,0,1,2.194-.868c-4.637-.567-7.308,1.984-10.8,2.827.549-.916,2.091-.836,2.636-1.751.134-.5-1.306.624-1.089-.416,1.422.1,3.6-.207,3.53-.868,3.324-.769,7.226-.995,10.8-1.532m-3.75-.421c-1.48.212-1.994-.5-3.1-.654-.217-.183,2.871-.134,3.1.654m-11.9-2.389c-.583.692-1.4-.212-1.994-.212.508-.628,1.186.419,1.994.212m-7.742-1.066c.88-.76,2.627,1.13,0,0m-4.846.209c-1.621.429-3.947-.31-5.31-.868,1.747-.536,3.552.722,5.31.868m-14.8-1.066c-.523.508-1.987.092-2.864.207.52-.49,1.975-.059,2.864-.207m-6.621,1.951c-1.1.155-3.012-.6-4.623-.636,1.356-.483,3.813-.153,4.623.636m-22.075-1.283c1.581.226-.37.179-.664.228-.583.118-2.356.285-3.757.662.231-.769,3.239-1.028,4.422-.89m-37.756-.41a12.72,12.72,0,0,1-4.206.671,17.108,17.108,0,0,1,4.206-.671m2.427,1.739a1.448,1.448,0,0,0-.68-.414,68.116,68.116,0,0,1,12.607-1.337,1.493,1.493,0,0,0-.667-.41c3.5-1.073,7.441.422,11.693-.009-.242.69-1.533.36-2.2.647-.021.607,6.9-.445,3.971.2-.989.282-2.111.405-3.085.664,1.683.278,4.187-.485,6.393-.438-.829.412-2.022.469-2.872.861.688.511,1.956-.252,2.872-.2-1.648.967-6.018,1.16-7.715,2.817,6.106-.97,12.077-2.219,19.64-2.625l0,.655c2.877-.12,6.111-.294,9.281-.664.544.351-1.313.158-1.565.442.283.588,1.447.047,2.431,0,1.61-.073,5.228.021,2.879.214-1.8.395-3.787.622-5.534,1.075,4.886-.163,11.289-1.134,17.451-1.3.37-.69-.8-.887-.219-1.092a18.793,18.793,0,0,0,4.213-.209c-.019-.214-.3-.169-.445-.228,2.276-.765,4.112,0,6.179.428-.2.833-1.874.193-2.431.655,2.925.191,7.761-.289,11.034.205-.584-.638-2-.471-2.869-.864-1.194.069.5-.607.444,0,2.335.313,4.821.454,6.624,1.306.424-.1.162-.842.871-.657.367.447,1.061.549,1.563.862-.035.626-1.528-.169-1.563.447,3.116.991,7.487.756,11.036,1.292-4.87,1.342-10.537-1.509-15.44-1.514-2.514,0-4.183,1.41-6.418,1.309a14.962,14.962,0,0,0-1.541,1.085,3.328,3.328,0,0,1,3.319-1.951c-4.149-.855-6.958,1.871-10.806,1.958a16.267,16.267,0,0,1,6.176-2.822c-3.072-.33-4.986,2.349-8.177,2.589.608-.916,2.426-.666,3.1-1.514-2.2.047-4.881,1.441-7.061,2.177,2.317-1.546,3.112-2.685,6.4-3.688-4.63-.551-7.986,4.851-12.808,4.775.063-.445.821-.209.88-.649-.687-.9-1.572-.322-3.09-.431-.169-.579,1.028.15.89-.426-1.128-.487-1.8,0-3.1,0-.37-.461,1.94-.087,1.984-.862-5.025.181-10.519-.582-15.685.436,2.086-1.071,5.457-.868,7.97-1.518-8.763-.4-18.287.57-25.178,3.476,1.606-1.222,4.234-1.471,5.522-3.029a43.774,43.774,0,0,0-4.639,1.946c-2.575.9.37-.414,1.318-1.509a13.609,13.609,0,0,0-3.759,1.737c-.635-.116.339-.351.231-.65-1.379.485-2.132.336-3.976.428.438-.414-.443-.659-.443-1.287a10.375,10.375,0,0,1-2.213.428,31.109,31.109,0,0,1,7.3-2.177c-1.088,1.033-3.573.682-4.423,1.96,2.823-.184,4.022-1.977,7.052-1.963-4.964-1.667-9.578,1.087-13.9.671-.431-.043-.953-.638-1.328-.659-4.38-.235-8.356,2.29-13.028,1.758,1.354-1.123,4-.988,5.741-1.751-2.546-.461-4.844,1.16-7.511,1.313,1.66-1.394,5.016-1.174,7.3-1.963m-3.764,3.912c-2.106.436-5.013,1.033-7.51,1.723,1.575-1.476,4.42-1.721,7.51-1.723m-8.607-.433c1.509-.755,2.8-.73,4.4-1.076-1.36.928-2.213,1.1-4.4,1.076m-5.075.217c1.377-1.956,4.459-2.255,7.726-2.38-2.093,2.191-6.311,2.109-8.846,3.043-.5-.509.435-.711,1.12-.662" transform="translate(262.317 -39.519)"/>
    <path id="Path_8" data-name="Path 8" d="M-138.752,49.957c-.1.018-.284-.038-.337.031.1-.02.284.038.337-.031" transform="translate(392.588 -31.754)"/>
  </g>
</svg>
