<svg id="facebook-app-logo" xmlns="http://www.w3.org/2000/svg" width="28" height="28" viewBox="0 0 28 28">
  <path id="Path_658" data-name="Path 658" d="M26.454,0H1.545A1.545,1.545,0,0,0,0,1.546V26.455A1.546,1.546,0,0,0,1.545,28h13.41V17.158H11.307V12.931h3.649V9.815c0-3.616,2.208-5.586,5.434-5.586a30.263,30.263,0,0,1,3.26.166v3.78H21.412c-1.754,0-2.093.834-2.093,2.057v2.7H23.5l-.547,4.226H19.319V28h7.135A1.547,1.547,0,0,0,28,26.455V1.545A1.546,1.546,0,0,0,26.454,0Z" transform="translate(0 -0.001)" fill="#fff"/>
</svg>
