<svg id="Logo_-_Instagram" data-name="Logo - Instagram" xmlns="http://www.w3.org/2000/svg" width="28" height="28" viewBox="0 0 28 28">
  <path id="Path_656" data-name="Path 656" d="M18.094,6.623c3.739,0,4.178.017,5.656.083a7.636,7.636,0,0,1,2.6.483,4.343,4.343,0,0,1,1.611,1.045,4.277,4.277,0,0,1,1.044,1.611,7.784,7.784,0,0,1,.483,2.6c.067,1.478.083,1.917.083,5.657s-.017,4.179-.083,5.657a7.641,7.641,0,0,1-.483,2.6,4.344,4.344,0,0,1-1.044,1.611,4.276,4.276,0,0,1-1.611,1.045,7.779,7.779,0,0,1-2.6.483c-1.478.067-1.917.083-5.656.083s-4.178-.017-5.656-.083a7.636,7.636,0,0,1-2.6-.483,4.343,4.343,0,0,1-1.611-1.045A4.277,4.277,0,0,1,7.183,26.36a7.783,7.783,0,0,1-.483-2.6c-.067-1.478-.083-1.917-.083-5.657s.017-4.179.083-5.657a7.64,7.64,0,0,1,.483-2.6A4.344,4.344,0,0,1,8.228,8.234,4.276,4.276,0,0,1,9.839,7.19a7.779,7.779,0,0,1,2.6-.483c1.478-.072,1.917-.083,5.656-.083m0-2.523c-3.8,0-4.278.017-5.772.083a10.256,10.256,0,0,0-3.394.65A6.821,6.821,0,0,0,6.45,6.45,6.943,6.943,0,0,0,4.833,8.929a10.268,10.268,0,0,0-.65,3.4C4.117,13.819,4.1,14.3,4.1,18.1s.017,4.279.083,5.773a10.329,10.329,0,0,0,.65,3.4A6.823,6.823,0,0,0,6.45,29.75a6.942,6.942,0,0,0,2.478,1.617,10.263,10.263,0,0,0,3.4.65c1.494.067,1.967.083,5.772.083s4.278-.017,5.772-.083a10.323,10.323,0,0,0,3.4-.65A6.821,6.821,0,0,0,29.75,29.75a6.943,6.943,0,0,0,1.617-2.478,10.269,10.269,0,0,0,.65-3.4c.067-1.495.083-1.967.083-5.773s-.017-4.279-.083-5.773a10.329,10.329,0,0,0-.65-3.4A6.823,6.823,0,0,0,29.75,6.445a6.942,6.942,0,0,0-2.478-1.617,10.263,10.263,0,0,0-3.4-.65c-1.5-.061-1.978-.078-5.778-.078Z" transform="translate(-4.1 -4.1)" fill="#fff"/>
  <path id="Path_657" data-name="Path 657" d="M133.566,126.6a6.966,6.966,0,1,0,6.966,6.966A6.967,6.967,0,0,0,133.566,126.6Zm0,11.488a4.522,4.522,0,1,1,4.522-4.522A4.521,4.521,0,0,1,133.566,138.088Z" transform="translate(-119.571 -119.569)" fill="#fff"/>
  <circle id="Ellipse_1" data-name="Ellipse 1" cx="1.733" cy="1.733" r="1.733" transform="translate(19.701 4.824)" fill="#fff"/>
</svg>
