<svg id="Group_1425" data-name="Group 1425" xmlns="http://www.w3.org/2000/svg" width="106.401" height="126.706" viewBox="0 0 106.401 126.706">
  <g id="apple-icon" transform="translate(0 0)">
    <g id="Group_1423" data-name="Group 1423">
      <g id="Group_1422" data-name="Group 1422">
        <path id="Path_702" data-name="Path 702" d="M118.8,32.628a.336.336,0,0,0,.411-.1.819.819,0,0,0,.206-.617.282.282,0,0,0-.206-.308l-.514.771C118.7,32.525,118.751,32.628,118.8,32.628Z" transform="translate(-81.679 -29.184)"/>
        <path id="Path_703" data-name="Path 703" d="M187.034,206.3c0-.051-.051-.1-.206-.1-.257.257-.257.463.1.514s.463-.051.308-.308C187.085,206.406,187.034,206.406,187.034,206.3Z" transform="translate(-114.7 -114.036)"/>
        <path id="Path_704" data-name="Path 704" d="M230.634,176.1c0-.051-.051-.1-.206-.1-.257.257-.257.411.1.463s.463-.051.308-.257C230.737,176.154,230.634,176.154,230.634,176.1Z" transform="translate(-135.889 -99.36)"/>
        <path id="Path_705" data-name="Path 705" d="M201.958,41.735l-.051-.617a.773.773,0,0,0-.925.154.686.686,0,0,0,0,1.028A.95.95,0,0,0,201.958,41.735Z" transform="translate(-121.554 -33.768)"/>
        <path id="Path_706" data-name="Path 706" d="M158.3,56.331c.463-.1.72-.463.72-1.131A8.45,8.45,0,0,0,158.3,56.331Z" transform="translate(-100.924 -40.653)"/>
        <path id="Path_707" data-name="Path 707" d="M152.269,91.05c-1.285-7.453-3.65-13.622-7.145-18.556,0-.051-.051-.051-.051-.1a2.505,2.505,0,0,1,.154.36,10.613,10.613,0,0,0-1.8-.257c-.771-.051-1.131-.411-1.131-1.028a3.2,3.2,0,0,0,1.7.36,1.509,1.509,0,0,1,.977.36,26.339,26.339,0,0,0-3.084-3.547h-.154v-.154a24.149,24.149,0,0,0-2.827-2.313,1.058,1.058,0,0,0,.051.977c-.411.1-.771-.206-1.028-.925a1.067,1.067,0,0,1,.308-.514,20.871,20.871,0,0,0-4.009-2c0,.051,0,.051-.051.1a1.406,1.406,0,0,1-.257-.206,19.359,19.359,0,0,0-3.855-1.028c-.617-.1-1.234-.154-1.9-.206a3.541,3.541,0,0,0-.411.154c-.051-.051-.1-.154-.154-.206a39.407,39.407,0,0,0-9.972,1.131.422.422,0,0,1-.257.257,2.58,2.58,0,0,1-.617.1,2.58,2.58,0,0,0-.617.1c-.206.051-.257.308-.1.72a.7.7,0,0,1-.771-.617c-.257.051-.514.154-.822.206-2.519.72-4.832,1.439-6.991,2.262a2.083,2.083,0,0,0,.257.463c-.977-.257-1.336-.051-1.131.617a1.563,1.563,0,0,1-.1,1.491q-1.234-.231-.617-1.234c.154-.308.308-.565.411-.822-.411.154-.822.36-1.234.514v.1h-.154c-.771.36-1.542.668-2.262,1.028,0-.617,0-1.285-.051-1.9-.1.206-.154.411-.257.668.154-.411-.051-1.079-.514-2-.463-.874-.257-1.336.668-1.336-.051-.565-.051-1.131-.1-1.7,0-.051-.051-.1-.051-.206v-.1l-.154-1.7,2.57.154a26.062,26.062,0,0,0,3.5-.206,1.026,1.026,0,0,0-.463-.1c-.565,0-.72-.206-.411-.617.411-.72.463-1.079.206-1.131a1.661,1.661,0,0,0-1.028.206,1.593,1.593,0,0,0-.822.822c-.154.36.154.617.822.72a1.59,1.59,0,0,1-1.7-.206,1.535,1.535,0,0,1-.617-1.7A4.189,4.189,0,0,0,105.8,58a14.451,14.451,0,0,1,1.593-.514.5.5,0,0,0-.411-.514.5.5,0,0,1-.411-.514c.822-.154,1.285.051,1.336.617a3.679,3.679,0,0,0,.514,1.491c.257.257.771.206,1.491-.206s.977-.463.822-.206a1.133,1.133,0,0,1-.822.206.755.755,0,0,0,.514.822c.308.1.257.411-.1.822.565-.1,1.182-.257,1.748-.411a1.421,1.421,0,0,1-.668-1.285c.565-.411.925-.36,1.131.1a1.435,1.435,0,0,1,.051,1.028c.154-.051.36-.1.514-.154.1,0,.154-.051.257-.051.206-.308.36-.565.565-.925.411,0,.617.051.514.206a2.387,2.387,0,0,0-.154.463,22.423,22.423,0,0,0,5.706-2.621,1.168,1.168,0,0,1-.565-.72,1.909,1.909,0,0,1,1.182.308,10.211,10.211,0,0,0,1.388-1.131,18.187,18.187,0,0,0,3.65-6.065c-.051,0-.051.051-.1.051-.72.206-.822.463-.411.822-.72.257-1.079,0-1.131-.771s.308-.977,1.131-.771a2.237,2.237,0,0,1,.668.257c.257-.771.514-1.542.72-2.364l.154-.463c-.154,0-.308-.051-.514-.051q-.848,0,0-.771c.411-.514.668-.668.72-.565,0,.051.051.051.1.1a26.619,26.619,0,0,0,.514-3.033c-.463-.051-.72-.154-.72-.257q-.231-.386-.617-.925c-.257-.36-.36-.668-.206-.925.257-.36.154-.771-.308-1.131a1.535,1.535,0,0,1-.72-1.285c.411-.1.668-.051.72.206a1.691,1.691,0,0,0,.514.771,1.956,1.956,0,0,1,.925-.668c.514-.206.463-.411-.1-.668a.919.919,0,0,0-.925-.257.936.936,0,0,1-.925-.463c-.257-.257-.565-.514-.822-.771s-.154-.514.411-.771a.513.513,0,0,0,.257-.206l-1.028-.051a27.858,27.858,0,0,0-7.042.822,1.308,1.308,0,0,1-.1.36c.051.154.154.308.206.463a.839.839,0,0,0,.463.411,1.818,1.818,0,0,1-.051-.308.819.819,0,0,0,.617-.206c.1-.1.154,0,.206.206.051,0,.154.051.206.051,0,.411-.154.617-.411.617A2.016,2.016,0,0,1,117.11,36c-.36-.154-.72-.308-1.131-.514a2.782,2.782,0,0,0-.822-.308h0c-.154.051-.257.051-.411.1a1.047,1.047,0,0,1-.463.822,2.724,2.724,0,0,1-.771-.411,20.13,20.13,0,0,0-2.621,1.131c.1.051.154.1.257.154.257.154.565.257.822.411s.257.36,0,.617a4.5,4.5,0,0,1-.514.411.42.42,0,0,0-.1.617,1.18,1.18,0,0,1-.72-.206c-.206-.154-.463,0-.72.411-.72.977-.72,1.336-.1,1.028a6.414,6.414,0,0,1,1.131-.411,4.724,4.724,0,0,0,.72,1.8,2.149,2.149,0,0,1,.308,1.8.751.751,0,0,1-.925-.206c-.206-.257-.463-.154-.72.411a1.678,1.678,0,0,1-.1.617,1.917,1.917,0,0,0-.1.617,3.976,3.976,0,0,0-2.724.206.651.651,0,0,1,0-.925c.257-.36.36-.668.206-.925-1.131.257-1.748.771-1.9,1.491a.854.854,0,0,0,.514.72,1.631,1.631,0,0,1,.72,1.131,6.814,6.814,0,0,1,.411,1.234c.154.565.514.72,1.028.411.411-.257.72-.308.925-.1l.72.72c-1.131.154-2,.257-2.724.308a13.045,13.045,0,0,1-2,0q-.925-.077-.925-.308c-.154-.257-.36-.617-.617-1.028s-.36-.771-.206-1.028q.386-.617-.308-1.234l-.154-.154a21.161,21.161,0,0,0-1.028,3.341,7.009,7.009,0,0,1,.874.206.656.656,0,0,0-.1.925.7.7,0,0,1-.1.925,6.546,6.546,0,0,1-.977-.668c-.154.822-.257,1.645-.36,2.519a1.423,1.423,0,0,1-.051.463,55.3,55.3,0,0,0-2.621-9.355,8.529,8.529,0,0,0-1.234-.1c-.72,0-.925-.36-.617-1.028H98.3c-.308-.822-.668-1.593-.977-2.313h-.463c0-.257.1-.36.257-.411-.565-1.131-1.131-2.21-1.7-3.187a1.021,1.021,0,0,1,.051.565,2.677,2.677,0,0,1-.72,1.593,3.271,3.271,0,0,0-1.028-1.028,1.774,1.774,0,0,1-.822-1.028A4.5,4.5,0,0,0,94.6,36a1.305,1.305,0,0,1,.668.463c-.36-.617-.771-1.234-1.131-1.8a1.413,1.413,0,0,1-.565-.411l-.051-.051a1.34,1.34,0,0,0-.154.565c0,.257-.154.308-.411.206,0-.051-.051-.051-.051-.1l-.154.308c-.257.72-.514.822-.617.411a1.346,1.346,0,0,0-.617-.822c-.977-.257-1.336-.565-1.028-.822a1.635,1.635,0,0,0,.206-1.491c.308,0,.463.1.463.257.154-.154.36-.1.617.206a.9.9,0,0,1,.206.257.9.9,0,0,0-.308-1.079,6.16,6.16,0,0,1-.565-.617h-.36c-.257-.411-.257-.72-.1-.874a1.21,1.21,0,0,1-.1-.411.584.584,0,0,0-.1.822.707.707,0,0,1,.1.822c-.411-.565-.668-.668-.72-.308s-.257.1-.514-.72a1.618,1.618,0,0,0-.411-.925.816.816,0,0,0-1.028-.308c-.257-.411-.257-.72.1-.925a.7.7,0,0,1,.925.1c.565.257.72.514.514.72a.283.283,0,0,0-.1.257v.154a1.075,1.075,0,0,0,.206.308,2.945,2.945,0,0,1,.565-.565A17.345,17.345,0,0,0,86.628,26.9l-1.593,2.313a.445.445,0,0,0,.36-.206,1.415,1.415,0,0,1,.925-.514.771.771,0,0,1,0,1.234,2.492,2.492,0,0,0-.565.874.76.76,0,0,1,.565.411,3.031,3.031,0,0,1,.206.411l.308-.154a1.587,1.587,0,0,1,.514-.257,1.163,1.163,0,0,1,.051-.925,4.683,4.683,0,0,1,1.439,1.85,1.135,1.135,0,0,0-.822,0c-.051.051-.1.051-.206.051,0,.1-.051.257-.051.308,0,.206-.257.154-.822-.1a.807.807,0,0,0-1.234.411q-.463.848,0,1.234c.565.154.822-.051.822-.617s.36-.771,1.028-.617a2.9,2.9,0,0,0-.206.617c.154.1.154.257.1.463s.051.257.308.257c0,.257-.154.308-.411.206,0,.1.051.206.051.308a.852.852,0,0,0,1.336.617.866.866,0,0,1-.308.565,3.2,3.2,0,0,1,1.028.617c.463.463.36.771-.308,1.028a1.053,1.053,0,0,1-.822-.771c-.1-.308-.154-.565-.206-.771a1.775,1.775,0,0,1-.668-.154,2.821,2.821,0,0,0-.874-.257c-.154.463-.36.463-.72.051-.1.051-.206.051-.308.1a1.589,1.589,0,0,0,.1-.411,2.477,2.477,0,0,1-.36-.771c-.051-.051-.1-.051-.206-.051a1.256,1.256,0,0,1-1.028-1.028,1.282,1.282,0,0,0,1.336-1.028,1.208,1.208,0,0,0,.051-.72c-.206-.154-.36-.051-.36.36,0,.463-.154.617-.411.463-.463-.411-.617-.72-.514-1.028a.972.972,0,0,1-.36-.72l-1.85,2.673a3.546,3.546,0,0,1,.977-.36,1.452,1.452,0,0,1-.308,1.7,1.329,1.329,0,0,1-1.593.206v-.257l-.257.36c0,.154.051.308.051.463v.308a7.338,7.338,0,0,1,3.393,1.388c.051-.051.1-.1.154-.1a2.15,2.15,0,0,0-.308-1.285,7.87,7.87,0,0,1-.72-1.234.925.925,0,0,1,1.028.206,4.032,4.032,0,0,1,.72,1.028,1.085,1.085,0,0,1,.1,1.028h0a.7.7,0,0,1,0,.771.731.731,0,0,0-.1.308c.206.154.36.36.565.514h.257a2.068,2.068,0,0,0,1.336-.308V37.8H87.04l.257-.257a3.146,3.146,0,0,1,.257-.617c.206-.411.36-.257.514.411a.673.673,0,0,1-.308.617,6.675,6.675,0,0,0-.72.617,1.821,1.821,0,0,1-.514.617,19.032,19.032,0,0,1,1.234,1.491,2.946,2.946,0,0,0,.36-.206.439.439,0,0,1,.565.1c0-.1.051-.154.206-.154a.889.889,0,0,1,.617.308c.051.051.051.1.1.1.154,0,.206-.1.206-.308.411.1.514.257.206.36a.731.731,0,0,1-.308.1c.051.1.051.154,0,.206-.051.154-.36.051-.925-.206v.051a.655.655,0,0,0-.617,0,36.177,36.177,0,0,1,2.21,3.444,2.226,2.226,0,0,0,.257-.051,1.141,1.141,0,0,1-.051.463c3.547,6.22,6.528,14.341,8.584,20.921.463-.308.771-.308.874,0a.786.786,0,0,1-.206.925,1.794,1.794,0,0,1-.463-.308c.154.514.308,1.028.463,1.491.154-.051.206.051.206.257a.385.385,0,0,1-.051.257c.154.463.257.874.36,1.285l-.308.154c-.411-.257-.874-.463-1.336-.72a2.39,2.39,0,0,0-.154.463q-.771,0-.463-.771a55.312,55.312,0,0,0-7.4-3.084.857.857,0,0,1-.72.257V65.5c-1.388-.463-2.879-.925-4.421-1.336-6.631-1.748-11.874-2.313-15.678-1.645a22.3,22.3,0,0,0-3.187.822.836.836,0,0,1-.206.463,1.119,1.119,0,0,1-.411-.257,24.118,24.118,0,0,0-10.846,8.173,1.335,1.335,0,0,1,.514-.206c.154.411,0,.668-.411.72a.65.65,0,0,0-.617.72,1.076,1.076,0,0,1-.206-.308,39.357,39.357,0,0,0-2.313,3.8.652.652,0,0,1-.051.308c-.051-.051-.051-.051-.1-.051A49.474,49.474,0,0,0,47.46,91.05a58.213,58.213,0,0,0,.257,20.458q2.7,16.192,10.743,27.4c.051,0,.1.1.154.206.154.257.36.463.514.72,6.785,9.2,15.369,13.776,25.65,13.776a18.086,18.086,0,0,0,8.327-2.365,13.423,13.423,0,0,1,13.776,0,17.922,17.922,0,0,0,8.327,2.365c10.28,0,18.865-4.575,25.65-13.776q8.558-11.411,11.411-28.322A65.024,65.024,0,0,0,152.269,91.05ZM126.259,42.989a2.607,2.607,0,0,0-.1.463c-.154,0-.206-.257-.206-.771Q126.336,42.68,126.259,42.989ZM110.633,54.451a1.917,1.917,0,0,0-.617-.1c-.154-.72.051-1.028.617-1.028s.822.36.822,1.028A1.281,1.281,0,0,1,110.633,54.451Zm1.593,2.519a3.228,3.228,0,0,1-.72-.925,1.3,1.3,0,0,1,1.131.1,1.02,1.02,0,0,1,.72.925A.806.806,0,0,1,112.227,56.97Zm1.336-3.136c-.154-.206-.308-.1-.411.308a2.748,2.748,0,0,0-.308.72.475.475,0,0,1-.514.308c-.565,0-.771-.154-.617-.411a1.772,1.772,0,0,1,.617-.617c.257-.154.257-.308,0-.514-.308-.206-.411-.36-.411-.514.257-.72.72-.874,1.336-.514a1.578,1.578,0,0,1,.925,1.336C113.923,54.04,113.717,54.04,113.563,53.835Zm1.079,2.159c-.72,0-.822-.36-.411-1.028C114.745,54.965,114.9,55.325,114.642,55.993Zm1.85,1.9a1.078,1.078,0,0,0-.411-.308,1.078,1.078,0,0,1-.411-.308c-.154-.565-.1-.874.1-.925a.68.68,0,0,1,.617.1,1.023,1.023,0,0,1,.411.617A.732.732,0,0,1,116.493,57.9Zm-.617-2.724c.257-.565.051-1.182-.617-1.9-.308-.257-.308-.463-.1-.514a.808.808,0,0,1,.72.308A9.5,9.5,0,0,1,116.9,54.4C117.315,55.068,117.007,55.325,115.876,55.171Zm1.9-6.271c-.154,0-.257-.154-.411-.411.72.257.977.565.822.822C118.035,49.054,117.881,48.9,117.778,48.9Zm.206,5.037a2.539,2.539,0,0,1,.206-1.234c.411,0,.617.257.617.822C118.806,54.04,118.549,54.194,117.984,53.937Zm1.234-5.449A3.373,3.373,0,0,1,119.012,47a2.165,2.165,0,0,0,.925-.206.786.786,0,0,1,.925.206A2.939,2.939,0,0,1,119.217,48.489Zm1.7-4.832c-.411.154-.72.051-.822-.308a.786.786,0,0,1,.206-.925q.848-.231.925.308A1.083,1.083,0,0,1,120.914,43.657Zm.206,1.491c0,.411-.36.617-1.028.617a1.015,1.015,0,0,1,.308-.72C120.605,44.788,120.811,44.839,121.119,45.148Zm-1.028-4.215a1.033,1.033,0,0,0-.206.668.905.905,0,0,1-.411-1.491C119.988,40.47,120.194,40.727,120.091,40.933Zm-.874,3.341c.257,0,.411.206.411.617C118.96,44.891,118.806,44.685,119.217,44.274Zm1.285,7.145c0-.72.154-.874.514-.514C121.376,51.213,121.171,51.419,120.5,51.419Zm.822-.874c-.257.1-.463.051-.514-.206a1.027,1.027,0,0,1,.1-.771.461.461,0,0,1,.514.36C121.479,50.236,121.479,50.391,121.325,50.545Zm.206,1.285a.725.725,0,0,1,.411-.617.756.756,0,0,0,.308-.257c-.1,0-.1-.1.1-.257a.262.262,0,0,1,.206-.257c.154-.051.206-.051.206.1.206.1.206.154.1.257a2.016,2.016,0,0,1,.206.72Q123.227,52.447,121.53,51.83Zm0-7.3a1.453,1.453,0,0,1,.822-.206c0,.36-.051.514-.1.36-.051-.1-.1-.051-.1.206-.154-.1-.257-.206-.308-.206Q121.762,44.762,121.53,44.531Zm1.234,5.192c-.154-.257-.154-.411-.1-.411s.1-.154.1-.411c.411,0,.617.154.617.514Q123.458,49.954,122.764,49.722Zm2.981-6.477a1.392,1.392,0,0,1-.514.565,1.114,1.114,0,0,0-.514.565c-.257-.1-.257-.411,0-.822A.653.653,0,0,1,125.745,43.246Zm-.874-2.262a.54.54,0,0,0-.1.822.573.573,0,0,1-.1.822,4.064,4.064,0,0,1-1.9-1.7A4.221,4.221,0,0,1,124.871,40.984Zm-2.056-4.832c0-.36.36-.565,1.028-.565.154.514-.154.925-.822,1.285-.72.36-1.131.257-1.234-.36C122.456,36.666,122.815,36.512,122.815,36.152Zm-4.009-.72h2.107a1.308,1.308,0,0,0,.617-.565c.154-.257.411-.257.822,0a1.628,1.628,0,0,1-.72.822.882.882,0,0,0-.514.822,6.9,6.9,0,0,0-1.7-.206C118.755,36.358,118.549,36.05,118.806,35.433Zm.206,16.192c.154.257.1.463-.1.514a.475.475,0,0,0-.308.514.5.5,0,0,1-.206-.72Q118.626,51.393,119.012,51.624ZM117.11,47c-.565-.72-.617-1.131-.1-1.234a4.46,4.46,0,0,1,1.336-.206C118.395,46.227,117.984,46.741,117.11,47Zm.668-8.584c.257,0,.411.154.411.514s-.051.617-.206.72C117.007,39.391,116.9,38.979,117.778,38.414Zm-1.491,5.346c.154-.925.72-1.131,1.7-.72a1.933,1.933,0,0,0-.514,1.131,2.724,2.724,0,0,1-.308,1.131C116.442,45.2,116.133,44.685,116.287,43.76Zm-1.028-6.168c.154.565,0,.822-.411.822C114.694,37.849,114.848,37.592,115.259,37.592Zm0,6.888a3.337,3.337,0,0,1-1.9-.206,1.03,1.03,0,0,1,1.131-.822C115.156,43.451,115.362,43.811,115.259,44.479Zm-2.93-4.78a5.986,5.986,0,0,0,.822-1.028,3.363,3.363,0,0,0-.514-1.131c-.36-.617-.154-.874.514-.72a1.709,1.709,0,0,1,.617.72.977.977,0,0,1,0,.925,1.546,1.546,0,0,1-.206.925c-.154.206.051.463.617.72q1.079.617.617,1.234a2.76,2.76,0,0,1-1.234-.617c-.308-.257-.72-.206-1.234.206Q111.867,40.085,112.329,39.7Zm-3.135,7.916a1.654,1.654,0,0,1,1.234-1.336c.72-.206.925-.051.617.514l-.514.514c-.051.051.051.308.308.72a2.039,2.039,0,0,1,.206,1.028c-.565,0-.925-.206-1.028-.617A1.439,1.439,0,0,0,109.194,47.615Zm-.565,4.729c.206.051.36-.1.514-.514.257-.411.514-.668.72-.72a4.508,4.508,0,0,0,.925-.514c.72-.257,1.028-.463,1.028-.617a6.944,6.944,0,0,1,.206-1.234,8.025,8.025,0,0,1,.822-2.313.552.552,0,0,0-.617-.308c-.308.051-.411-.1-.411-.514.565-.411,1.182-.257,1.9.411-.154.257-.257.617-.411.925a2.334,2.334,0,0,0-.206.925c.154.565.514.668,1.131.308a1.507,1.507,0,0,1,1.593-.1.82.82,0,0,1-.72.411c-.36,0-.411.206-.1.617a1.133,1.133,0,0,1,.206.822c-.565-.565-.977-.257-1.234.822a.834.834,0,0,0-1.028-.1c-.411.206-.72.154-.822-.1a3.753,3.753,0,0,0-.411,1.336c0,.36-.36.514-1.028.514a2.146,2.146,0,0,0-1.491.617c-.565.565-.822.514-.822-.206C108.32,52.447,108.423,52.293,108.628,52.344Zm.206,1.8a3.039,3.039,0,0,0,1.131.411.656.656,0,0,0-.1.925.7.7,0,0,1-.1.925,2.2,2.2,0,0,1-1.131-1.131,2.513,2.513,0,0,0-.925-1.131C107.96,53.835,108.371,53.835,108.834,54.143ZM87.811,39.031a.819.819,0,0,0-.617-.206c.257-.411.617-.411,1.028,0C88.068,39.134,87.965,39.185,87.811,39.031Zm1.028.463c-.257-.257-.257-.514.1-.822s.617-.206.72.257C89.713,39.442,89.4,39.648,88.839,39.493ZM92.437,38a.378.378,0,0,1,.411.411h-.411Zm-2.519-.411c0-.411.257-.565.822-.411s.72.514.411,1.028Q90.072,38.208,89.918,37.592Zm1.028,4.164a1.515,1.515,0,0,1,.411-1.131c.411.1.771.565,1.028,1.285A1.236,1.236,0,0,1,90.946,41.755Zm2.93.411a6.38,6.38,0,0,1-1.7-2.313,1.425,1.425,0,0,1,.617.257v-.051A1.249,1.249,0,0,1,93,39.493a3.039,3.039,0,0,1,.411,1.131A1.179,1.179,0,0,1,93.876,42.166Zm-.206-2.056V39.7c.411,0,.617.154.617.411Zm3.136,35.313c.257.206.154.257-.411.257C96.395,75.372,96.549,75.269,96.806,75.423ZM96.6,94.956c0,.36-.154.463-.411.206V94.8C96.446,94.494,96.6,94.6,96.6,94.956Zm-4.729-25.65c.051-.206.257-.257.514-.257v.771C92.026,69.615,91.82,69.461,91.871,69.307Zm.565,23.234c-.154.257-.308.257-.514,0a1.435,1.435,0,0,1-.308-.925A.9.9,0,0,1,92.437,92.54ZM89.713,79.073c.411-.1.72-.051.822.206a.7.7,0,0,1,0,.771C89.558,80,89.3,79.69,89.713,79.073Zm.206,15.318a1.044,1.044,0,0,1-1.234.565.875.875,0,0,1,.411-.668C89.353,94.082,89.61,94.134,89.918,94.391Zm.206,8.79a.7.7,0,0,1,.617.463.645.645,0,0,1-.206.822A.82.82,0,0,1,90.124,103.18Zm.206-9.561c0-.617.154-.771.514-.463S91.049,93.62,90.329,93.62Zm.206-6.888c0-.36.154-.463.411-.257C91.255,86.629,91.1,86.732,90.535,86.732Zm-.411-15.678q.848-.154.925.463c.051.463-.257.668-.925.668A.807.807,0,0,1,90.124,71.054Zm-.72,6.631c.36.051.514.206.514.463a.876.876,0,0,1-.72,0,.876.876,0,0,0-.72,0c-.308-.514-.206-.822.206-.925A.835.835,0,0,0,89.4,77.685ZM87.913,66.479c.617-.051.874.206.72.822a1.448,1.448,0,0,1-1.7,0C86.988,66.839,87.3,66.531,87.913,66.479Zm-1.593,18.2a1.013,1.013,0,0,1,1.234.771.651.651,0,0,1-.925,0Q86.166,85.061,86.32,84.676Zm-.308-7.35c-.051-.206-.257-.257-.514-.257a.447.447,0,0,1,.617-.206.6.6,0,0,1,.411.565C86.269,77.531,86.114,77.479,86.012,77.325Zm.977,2.107c.257,0,.308.051.1.1s-.257.206-.1.463c-.154,0-.206-.051-.206-.206C86.783,79.69,86.834,79.587,86.988,79.433Zm-.206-1.491v-.36c.411-.1.617,0,.617.36Zm.514,1.131c-.051-.257.1-.257.514,0C87.554,79.33,87.348,79.33,87.3,79.073Zm.1-7.093c-.154.257-.257.514-.411.771s-.36.257-.617,0a1.235,1.235,0,0,1,.308-.771C86.885,71.722,87.091,71.722,87.4,71.979ZM85.086,69a4.5,4.5,0,0,0,.822-.1c.257-.051.411.051.411.257,0,.257-.257.36-.72.257C85.138,69.409,84.932,69.255,85.086,69Zm-2,5.4a1.892,1.892,0,0,0,1.336-.36,4.342,4.342,0,0,0-.822-1.7c.72-.257,1.131-.051,1.234.668a11.514,11.514,0,0,0,.411,1.593,3.081,3.081,0,0,1,.411.668,3.87,3.87,0,0,1-1.028.463c-.72.36-1.028.668-1.028.925l-.411-.771c-.154-.257-.308-.411-.411-.565a.445.445,0,0,1-.206-.36C82.311,74.6,82.465,74.4,83.082,74.4Zm-.925,2.262c.154.617,0,.874-.411.771a7.694,7.694,0,0,1-1.028-.36c0-.257.206-.514.617-.822C81.745,75.886,82,76.04,82.156,76.657Zm-1.7,6.888c-.411,0-.617-.206-.617-.565C80.255,82.877,80.46,83.082,80.46,83.545Zm-1.439-3.907c0-.514.257-.771.72-.771a1.5,1.5,0,0,1,1.131.36c0,.36-.257.514-.72.463C79.689,79.69,79.278,79.638,79.021,79.638Zm1.234,6.374c.411-.1.617-.051.514.206a.466.466,0,0,0,.308.565.448.448,0,0,1-.822,0Q79.869,86.166,80.255,86.012ZM81.437,68.33c.206.206.1.257-.308.257C81.128,68.279,81.231,68.176,81.437,68.33Zm.1.874c.154.771-.308.977-1.234.771Q80.075,69.2,81.54,69.2Zm-1.491-5.243a.553.553,0,0,0,.206.771c-.308,0-.565-.36-.822-1.131C80,63.447,80.2,63.6,80.049,63.961Zm-.206,11c.154.36,0,.617-.411.771-.411.1-.72.051-.822-.206C78.61,75.166,79.021,74.961,79.843,74.961Zm-1.85-8.584v-.36a.819.819,0,0,1,.617.206A1.1,1.1,0,0,1,77.993,66.377Zm-.36-3.084c.206-.308.463-.154.72.463.257.771.257,1.028,0,.822a1.157,1.157,0,0,0-1.028-.1A2.129,2.129,0,0,1,77.633,63.293Zm-3.238,2.519c-.154-.1-.257-.206-.411-.206s-.206-.1-.206-.36C74.343,65.246,74.549,65.451,74.395,65.811Zm-.411,2.467c0-.36.1-.463.308-.257C74.5,68.176,74.395,68.279,73.984,68.279Zm-.206-.925a.531.531,0,0,1,.411.206c0,.154-.154.206-.411.206Zm-.514-4.421c.206.206.1.257-.308.257C72.956,62.83,73.058,62.727,73.264,62.933Zm.308,10.486c0,.257-.154.463-.514.514a1.036,1.036,0,0,1-.925-.308.545.545,0,0,1,.617-.617A.791.791,0,0,1,73.572,73.419Zm0,21.332a1.1,1.1,0,0,1-.617.206V94.6A1.1,1.1,0,0,1,73.572,94.751ZM71.773,71a.472.472,0,0,1,.514.1c0,.257-.206.411-.617.411C71.516,71.26,71.568,71.054,71.773,71Zm-.411,21.126c-.206.257-.463.257-.72,0a2.507,2.507,0,0,0,.308-.668c.051-.206.308-.206.72-.1A1.046,1.046,0,0,1,71.362,92.129Zm.1,38.037a1.133,1.133,0,0,1-.822.206.481.481,0,0,1,0-.822C71.208,129.55,71.465,129.755,71.465,130.166Zm-.1-55.1a.751.751,0,0,0-.925-.206,3.852,3.852,0,0,1,.411-1.491l.822.822a1.435,1.435,0,0,1,.411,1.028C71.825,75.423,71.568,75.372,71.362,75.064Zm-.72-3.136c.411,0,.617.257.617.822C70.848,72.751,70.642,72.493,70.642,71.928Zm0-9c.565,0,.771.36.617,1.028q-.231.231-.617,0a1.614,1.614,0,0,0-.617-.206C69.871,63.19,70.077,62.933,70.642,62.933Zm-.874,4.729c.257-.771.617-.925,1.028-.514a.673.673,0,0,1-.308.617c-.206.154-.257.411-.1.822Q69.383,68.818,69.769,67.662ZM67.713,82.62c.565-.154.874.051.925.514.051.514-.257.72-.925.72A.938.938,0,0,1,67.713,82.62Zm-.463-5.654v-.822a2.262,2.262,0,0,0,.514-.1q.308-.077.308.308C68.124,76.76,67.815,76.965,67.25,76.965Zm.874,14.855a.789.789,0,0,1,0,.822c-.977,0-1.234-.36-.822-1.028C67.713,91.512,67.97,91.564,68.124,91.821Zm.308,15.626c.36.36.154.514-.514.514C67.918,107.293,68.072,107.087,68.432,107.447Zm-.308-7.248c0-.411.154-.514.411-.308S68.689,100.2,68.124,100.2Zm.411-26.78a.725.725,0,0,1,.411-.617.672.672,0,0,1,.822.206C69.769,73.522,69.357,73.676,68.535,73.419Zm1.439,33.308c-.154.257-.308.257-.514,0a1.631,1.631,0,0,1-.308-1.028A.928.928,0,0,1,69.974,106.727ZM69.46,80.615a.475.475,0,0,1,.514-.308v.822C69.563,81.026,69.409,80.821,69.46,80.615Zm.308-11a1.418,1.418,0,0,1-.72.617.786.786,0,0,1-.925-.206c-.154-.411.051-.668.514-.72A1.362,1.362,0,0,1,69.769,69.615Zm-1.439-4.061a.922.922,0,0,1,1.234.308.82.82,0,0,1-.72.411.715.715,0,0,0-.72.411C67.713,66.12,67.764,65.76,68.329,65.554Zm-1.285,8.481a.775.775,0,0,1,1.028,0,5.058,5.058,0,0,1-.72.925c-.36.36-.668.411-.925.1A1.188,1.188,0,0,1,67.044,74.036Zm-.1,16.037c.36.051.514.257.514.514a.616.616,0,0,1-.72,0,.616.616,0,0,0-.72,0c-.308-.565-.206-.925.206-1.028A1.251,1.251,0,0,0,66.941,90.073ZM66.222,78.4q-.617.617-1.7,0,0-.848.925-.925Q66.453,77.4,66.222,78.4Zm-1.7,14.29c-.154,0-.206-.051-.206-.206a.531.531,0,0,1,.206-.411c.257,0,.308.051.1.1S64.423,92.386,64.526,92.694Zm-.206-2.313V89.97c.411-.154.617,0,.617.411Zm.206-5.86q-.231.386-.617,0a1.367,1.367,0,0,1,.308-.822c.206-.257.463-.257.72,0C64.834,83.956,64.68,84.213,64.526,84.522Zm-.411,5.243c-.257.154-.463.1-.514-.1a.475.475,0,0,0-.514-.308c.154-.257.36-.36.617-.206A.564.564,0,0,1,64.114,89.765Zm-.206,8.173c.565-.154.977.154,1.234.822a.651.651,0,0,1-.925,0C63.909,98.451,63.806,98.194,63.909,97.937Zm.977-6.322c-.051-.257.1-.257.514,0C65.091,91.923,64.937,91.923,64.885,91.615Zm.72-21.589c.257,0,.36.051.308.206a1.21,1.21,0,0,0-.1.411C65.656,70.54,65.605,70.335,65.605,70.026Zm-.1-4.78a.42.42,0,0,0,.1-.617q.617,0,.308.308a1.015,1.015,0,0,0-.308.72C65.3,65.5,65.3,65.349,65.5,65.246Zm-.617,9.612c-.051.411-.257.565-.514.411q-.231-.386,0-.617a.819.819,0,0,0,.206-.617A.743.743,0,0,1,64.885,74.858Zm-.1-4.369c0,.565-.206.617-.617.206C64.114,70.129,64.32,70.026,64.783,70.489Zm-2.107,9.818a4.5,4.5,0,0,0,.822-.1c.257-.051.411.051.411.308s-.257.411-.72.308C62.675,80.769,62.521,80.615,62.675,80.307Zm-2,6.065a1.885,1.885,0,0,0,1.336-.411,4.872,4.872,0,0,0-.822-1.9c.72-.257,1.131-.051,1.234.72a16.285,16.285,0,0,0,.411,1.8,4.329,4.329,0,0,1,.411.72,3.088,3.088,0,0,1-1.028.514c-.72.411-1.028.771-1.028,1.028l-.411-.822c-.154-.257-.308-.463-.411-.617a.531.531,0,0,1-.206-.411C59.848,86.578,60.054,86.372,60.67,86.372Zm-2.93,6.014c-.514-.051-.874-.1-1.131-.1,0-.565.257-.822.72-.822a1.515,1.515,0,0,1,1.131.411C58.46,92.232,58.255,92.437,57.741,92.386Zm.308,4.266a.545.545,0,0,1-.617-.617Q58.049,95.8,58.049,96.652Zm-.206-21.178c-.308,0-.565-.411-.822-1.234.565-.154.771,0,.617.411S57.586,75.372,57.843,75.475ZM58.255,89.3a1.333,1.333,0,0,1,.617-.925c.411-.36.72-.154.822.514.154.72,0,.977-.411.822A4.761,4.761,0,0,1,58.255,89.3Zm1.491-15.883c-.308,0-.463.051-.514.206s-.257.154-.514,0c0-.257.154-.463.514-.617C59.54,72.853,59.745,73.008,59.745,73.419ZM58.666,79.9q0-.617.308-.308Q59.36,79.9,58.666,79.9Zm-.411-10.486c.257-.154.411-.154.411,0s.154.206.411.206c0,.411-.206.617-.617.514C58.049,70.078,58,69.821,58.255,69.409Zm.1,2.827q.308.308-.308.308Q58.049,71.928,58.357,72.236Zm.771,8.276c.154.822-.308,1.131-1.234.822C57.689,80.821,58.152,80.512,59.128,80.512Zm-1.9-10.692q.617-.848.617.617c0,.72-.051,1.028-.206.925a1.281,1.281,0,0,0-.822.1A1.877,1.877,0,0,1,57.227,69.821Zm.206,17.22a.558.558,0,0,1-.411.822c-.411.154-.72.051-.822-.206C56.147,87.246,56.61,87.04,57.432,87.04Zm-1.9-9.664v-.411a.819.819,0,0,1,.617.206C56.044,77.325,55.839,77.377,55.53,77.377Zm-.308-3.444c.206-.36.463-.154.72.514q.386,1.234,0,.925a1.017,1.017,0,0,0-1.028-.1A2.7,2.7,0,0,1,55.222,73.933Zm-3.341,5.243q.308.308-.308.308Q51.572,78.867,51.881,79.176Zm-2.93,27.14c-.206.257-.463.257-.72,0a2.746,2.746,0,0,0,.308-.72c.051-.206.308-.257.72-.1A1.492,1.492,0,0,1,48.951,106.316Zm1.542,3.136v-.411a.819.819,0,0,1,.617.206A.869.869,0,0,1,50.493,109.451Zm1.491-8.841c-.411.154-.617-.154-.617-.822C52.343,99.788,52.549,100.1,51.984,100.61Zm.925-24.673a.961.961,0,0,1,.925,0c0,.257-.154.36-.411.308s-.411.051-.411.308C52.755,76.246,52.7,76.04,52.909,75.937Zm1.7,9.612c.925.72,1.285,1.182,1.131,1.491a9.754,9.754,0,0,1-1.8-.925,3.115,3.115,0,0,1-1.131-1.593A4.094,4.094,0,0,1,54.605,85.55Zm-1.182,4.215a1.188,1.188,0,0,1,.617,1.028C53.217,90.793,53.012,90.433,53.423,89.765ZM54.708,104c-.257.257-.514.308-.72.1a1.015,1.015,0,0,1-.308-.72c.257-.154.463-.154.514,0s.257.206.514.206ZM54.091,89.1c0-.257-.154-.463-.514-.617s-.411-.36-.1-.617c.565-.565.977-.463,1.234.206C54.965,88.788,54.759,89.1,54.091,89.1Zm1.336,13.622c-.051.411-.257.617-.514.617a8.308,8.308,0,0,1,.1-1.7c.051-.154.154-.1.308.1A1.224,1.224,0,0,1,55.427,102.718Zm.308-4.369a.5.5,0,0,1,.72-.206q.54.231.308.617C56.507,98.914,56.147,98.76,55.736,98.349Zm1.079,1.645c.822.257,1.131.771.822,1.491A1.183,1.183,0,0,1,56.815,99.994Zm.617,4.318a.5.5,0,0,1-.411-.514c.72-.257,1.028-.206,1.028.206A.552.552,0,0,1,57.432,104.311Zm.411-4.112c-.308-.411-.308-.72,0-.822.411-.154.617-.051.514.206a.524.524,0,0,0,.308.617C58.409,100.61,58.152,100.61,57.843,100.2Zm1.285,33.514c-.154,0-.308.154-.411.411-.411,0-.514-.206-.206-.617a.819.819,0,0,1,.617-.206C59.231,133.61,59.231,133.713,59.128,133.713Zm.206-7.916c-.411-.72-.154-.977.822-.822A.757.757,0,0,1,59.334,125.8Zm.411-7.556c.411,0,.463.154.206.411C59.642,118.909,59.591,118.807,59.745,118.241Zm.1-20.1c-.206,0-.257.154-.1.411-.411-.154-.514-.308-.308-.514a1.015,1.015,0,0,1,.72-.308C60.156,97.989,60.054,98.143,59.848,98.143Zm.925,5.86c.411.257.257.411-.411.411C60.208,103.849,60.362,103.694,60.773,104Zm.514,8.893c.051-.206.308-.257.72-.1,0,.565-.36.822-1.028.822A2.747,2.747,0,0,0,61.287,112.9Zm-.206,17.991c-.514.206-.668-.051-.514-.72.257.154.463.154.514,0s.257-.154.514,0C61.75,130.475,61.6,130.68,61.082,130.886Zm.977-2.827c-.308-.154-.36-.36-.206-.617a.435.435,0,0,0,.308-.1.435.435,0,0,1,.308-.1C62.47,127.956,62.315,128.213,62.058,128.059Zm.206-7.71a3.434,3.434,0,0,1-1.234-1.9,1.133,1.133,0,0,1,.822-.206,2.23,2.23,0,0,0,.411,1.028A.849.849,0,0,1,62.264,120.349Zm.1-28.734a9.981,9.981,0,0,0-.1,1.234,1.257,1.257,0,0,1-.925-.308.82.82,0,0,0-.925-.1q0,.848.308.617c.206-.154.514,0,.925.411,0,.257-.206.514-.617.617A.925.925,0,0,1,60,93.877a1.787,1.787,0,0,1-.514-1.028,1.787,1.787,0,0,0-.514-1.028c.257-.257.565-.617.822-.925a7.475,7.475,0,0,1,.822-.925c.257,0,.308.36.1,1.028-.206.72.1.822.925.411a6.363,6.363,0,0,1,.925-.72c.36-.206.668-.051.925.514C62.778,91.05,62.418,91.2,62.367,91.615Zm1.439,38.346c-.206.565-.463.514-.72-.206C63.806,129.344,64.012,129.4,63.806,129.961Zm.1-21.178c-.154-.257,0-.617.411-1.028s.72-.411.822,0a1.631,1.631,0,0,1-.308,1.028C64.68,109.092,64.32,109.092,63.909,108.783Zm1.285,9.869c-.257,0-.514-.257-.617-.822-.154-.565.154-.822.822-.822a1.628,1.628,0,0,1-.206.822A.789.789,0,0,0,65.194,118.652Zm.206,26.626q0-.617.308-.308T65.4,145.279Zm.206-20.766c-.257-.411-.257-.72.1-.925a.7.7,0,0,1,.925.1C66.633,124.358,66.273,124.666,65.605,124.512Zm.822,2.93c-.257,0-.36-.154-.206-.411,0-.154.051-.206.206-.206s.206.051.206.206C66.787,127.288,66.736,127.442,66.427,127.442Zm.411,16.346v-.411c.411,0,.617.154.617.411Zm-.617-34.336a.963.963,0,0,1,.411-.72.584.584,0,0,1,.822.1A1.049,1.049,0,0,1,66.222,109.451Zm1.491,9.2c.257,0,.463.154.617.514a.786.786,0,0,1-.206.925C67.558,119.835,67.4,119.372,67.713,118.652Zm.411,28.888c-.257,0-.411-.206-.411-.617.565,0,.822.051.72.1A1.484,1.484,0,0,0,68.124,147.54Zm.206-23.439c0-.72.154-.874.514-.514S69,124.1,68.329,124.1Zm1.439,20.509c-.411.154-.617,0-.617-.411s.206-.565.617-.411c0,.257.051.411.1.411C69.974,144.2,69.923,144.353,69.769,144.61Zm.206-4.164v-.411a.378.378,0,0,1,.411.411Zm.668-.822a.982.982,0,0,1,0-.925,2.333,2.333,0,0,0,.206-.925,1.857,1.857,0,0,1,1.439.206A2.616,2.616,0,0,1,70.642,139.624ZM72.6,106.316a1.181,1.181,0,0,1,1.131-.617,1.721,1.721,0,0,1-1.028,1.7A.929.929,0,0,1,72.6,106.316Zm.36,5.757c.154-.36.36-.36.617-.1v.411Q72.724,112.536,72.956,112.073Zm.822,31.715c-.257.154-.411.154-.411,0s-.154-.206-.411-.206a.552.552,0,0,1,.617-.308C73.829,143.325,73.881,143.531,73.778,143.788Zm0-34.131v-.411c.257-.257.411-.206.411.206S74.035,109.914,73.778,109.657Zm.206-21.794c0-.411.154-.514.411-.308S74.549,87.863,73.984,87.863Zm.411-.771c-.411.1-.617-.1-.617-.771Q75.243,86.4,74.395,87.092Zm.977-22a1.39,1.39,0,0,1,.925,0c0,.257-.154.36-.411.257-.257-.051-.411.051-.411.257C75.166,65.4,75.114,65.194,75.371,65.092Zm1.645,8.584c.925.617,1.285,1.079,1.131,1.285a9.849,9.849,0,0,1-1.8-.822,2.782,2.782,0,0,1-1.131-1.388A4.7,4.7,0,0,1,77.016,73.676Zm-1.028,60.192a.45.45,0,0,1-.514-.257c0-.257.206-.308.617-.206C76.194,133.662,76.194,133.816,75.988,133.867Zm-.1-56.491a1.1,1.1,0,0,1,.617.925Q75.269,78.379,75.885,77.377Zm1.234,59.575c-.257,0-.411-.051-.411-.206a.188.188,0,0,0-.206-.206,1.1,1.1,0,0,1,.617-.206v.617Zm0-46.879a.512.512,0,0,1-.72.1.9.9,0,0,1-.308-.668c.257-.1.463-.1.514,0a.6.6,0,0,0,.514.206ZM76.5,76.863c0-.257-.154-.411-.514-.565-.36-.1-.411-.308-.1-.565.565-.514.977-.411,1.234.206Q77.582,76.863,76.5,76.863Zm1.336,12.131c-.051.36-.257.565-.514.565a6.106,6.106,0,0,1,.1-1.491c.051-.1.154-.1.308.1C77.89,88.325,77.942,88.582,77.839,88.994Zm.36-3.958c.154-.257.36-.308.72-.206s.463.308.308.565C78.918,85.55,78.61,85.447,78.2,85.036Zm1.028,1.491c.822.257,1.131.668.822,1.285A1,1,0,0,1,79.227,86.526Zm.617,3.855a.45.45,0,0,1-.411-.463c.72-.257,1.028-.206,1.028.206A.526.526,0,0,1,79.843,90.381Zm.206,30.893a2.262,2.262,0,0,0,.514-.1c.206-.051.308.154.308.668C80.357,121.839,80.049,121.634,80.049,121.274ZM81.54,116.6c-.154,0-.308.1-.411.36-.411,0-.514-.206-.206-.565a1.1,1.1,0,0,1,.617-.206C81.642,116.494,81.642,116.6,81.54,116.6Zm.72-31.715c-.206,0-.257.1-.1.36q-.617-.154-.308-.463a.962.962,0,0,1,.72-.257C82.568,84.727,82.465,84.881,82.259,84.881Zm.1,18.3c-.257.257-.36.1-.206-.36C82.568,102.769,82.619,102.923,82.362,103.18Zm.206,5.6c0,.514-.257.771-.822.771C81.334,108.886,81.591,108.629,82.568,108.783Zm-.925,18.2c-.051-.308.154-.463.72-.463q-.231.154,0,.463c.154.206.051.257-.206.257C81.848,127.339,81.694,127.288,81.642,126.98Zm.617,16.14c-.051-.1.051-.257.308-.36.257,0,.411.206.411.565C82.568,143.274,82.311,143.223,82.259,143.12Zm.514-52.636c-.154-.514,0-.617.411-.36C83.647,90.33,83.493,90.484,82.773,90.484Zm.977,7.556c.051-.206.308-.206.72-.1,0,.514-.36.771-1.028.771A4.162,4.162,0,0,1,83.75,98.04Zm-.257,16.037c-.514.206-.668-.051-.514-.668.257.1.463.1.514,0s.257-.1.514,0C84.161,113.666,84.007,113.872,83.493,114.078Zm.977-2.519c-.308-.1-.36-.308-.206-.565a.435.435,0,0,0,.308-.1.434.434,0,0,1,.308-.1C84.881,111.456,84.727,111.662,84.47,111.559Zm.206-6.888a3.069,3.069,0,0,1-1.234-1.7,1.453,1.453,0,0,1,.822-.206,1.769,1.769,0,0,0,.411.925C84.932,104.106,84.932,104.414,84.675,104.671Zm.1-25.6a8.406,8.406,0,0,0-.1,1.131,1.526,1.526,0,0,1-.925-.257c-.206-.206-.514-.206-.925-.1,0,.514.1.668.308.565s.514,0,.925.36c0,.257-.206.463-.617.565a1.025,1.025,0,0,1-1.028-.206A1.669,1.669,0,0,1,81.9,80.2a1.669,1.669,0,0,0-.514-.925c.257-.257.565-.514.822-.822s.565-.565.822-.822c.257,0,.308.308.1.925s.1.771.925.36a6.064,6.064,0,0,1,.925-.668q.54-.308.925.463C85.241,78.61,84.829,78.713,84.778,79.073Zm1.439,34.182c-.206.514-.463.463-.72-.206C86.217,112.69,86.474,112.741,86.217,113.255Zm.1-18.864c-.154-.257,0-.565.411-.925s.72-.36.822,0a1.435,1.435,0,0,1-.308.925Q87.014,94.776,86.32,94.391Zm1.285,8.79c-.257,0-.514-.257-.617-.771-.154-.514.154-.771.822-.771a1.451,1.451,0,0,1-.206.771A.7.7,0,0,0,87.605,103.18Zm.206,23.7c0-.36.1-.463.308-.257C88.325,126.774,88.222,126.877,87.811,126.877Zm.206-18.5c-.257-.36-.257-.668.1-.822a.7.7,0,0,1,.925.1C89.044,108.269,88.736,108.526,88.016,108.372Zm.822,2.621c-.257,0-.36-.1-.206-.36a.188.188,0,0,1,.206-.206c.154,0,.206.051.206.206C89.2,110.891,89.147,110.994,88.839,110.994ZM89.3,125.18c.411,0,.617.1.617.36H89.3Zm.206,6.168v-.36c.411,0,.617.1.617.36Zm1.028-2.416c-.257,0-.411-.206-.411-.565.565,0,.822.051.72.1A3.282,3.282,0,0,0,90.535,128.933Zm.206-20.921c0-.617.154-.771.514-.463S91.46,108.012,90.741,108.012Zm.822,17.939c0-.36.206-.514.617-.36,0,.257.051.36.1.36s.051.1-.1.36C91.769,126.414,91.563,126.311,91.563,125.951Zm.668,22.771c-.257.257-.36.1-.206-.36C92.437,148.311,92.488,148.466,92.231,148.723Zm.206-26.164v-.36c.257,0,.411.1.411.36Zm.617-9.715c.565,0,.822.206.822.565a1.453,1.453,0,0,1-.822.206A.437.437,0,0,1,93.054,112.844Zm0,9a.787.787,0,0,1,0-.822,1.762,1.762,0,0,0,.206-.822,2.114,2.114,0,0,1,1.439.206A2.457,2.457,0,0,1,93.054,121.839Zm2-29.71a1.24,1.24,0,0,1,1.131-.565,1.456,1.456,0,0,1-1.028,1.491C94.853,92.849,94.853,92.54,95.058,92.129Zm.308,5.14c.154-.308.36-.36.617-.1v.36C95.418,97.68,95.213,97.578,95.367,97.269Zm.822,28.271c-.257.1-.411.1-.411,0s-.154-.206-.411-.206a.469.469,0,0,1,.617-.257C96.241,125.129,96.343,125.283,96.189,125.54Zm.206,22a.5.5,0,0,1,.411-.514c.257-.051.411.1.411.514-.308,0-.463.051-.514.206S96.549,147.849,96.395,147.54Zm.617,1.7c-.257,0-.411-.206-.411-.617.411,0,.72.051.822.206Zm47.65-64.818a2.194,2.194,0,0,1,.1-1.234c1.131.257,1.439.822,1.028,1.7C145.124,85.138,144.764,84.984,144.661,84.419Zm.565,3.238c0,.257-.154.36-.514.36s-.463-.206-.308-.565A2.064,2.064,0,0,1,145.227,87.657Zm-1.9-5.86v-.771c0-.206.051-.308.206-.36s.36.154.617.668c.565.771.257,1.131-.822,1.131Zm.617,2.313v1.131c-.411,0-.617-.206-.514-.668a1.645,1.645,0,0,0-.1-1.028C143.736,83.545,143.942,83.751,143.942,84.11Zm-.72,1.9a.991.991,0,0,0,.72.771c-.308.257-.514.463-.617.565q-.231.154,0,.771c-.822-.257-1.131-.668-.822-1.234A1.077,1.077,0,0,0,142.3,85.5C142.811,85.447,143.171,85.6,143.222,86.012Zm1.131,15.266a1.518,1.518,0,0,1-1.234-.463.534.534,0,0,1,0-.822c.257.1.617.257,1.028.463S144.661,100.919,144.353,101.279Zm0,2.621c-.565,0-.822-.206-.822-.565a.637.637,0,0,1,.822-.1C144.661,103.437,144.661,103.643,144.353,103.9Zm-10.64.925c-.257-.1-.565-.257-.822-.36a2.626,2.626,0,0,1-.822-.565c.411-.977,1.131-1.182,2.107-.565a1.451,1.451,0,0,1-.206.771A1.037,1.037,0,0,0,133.713,104.825Zm.206.925c-.411.1-.617.051-.514-.206a3.356,3.356,0,0,0,.1-.565C133.764,105.031,133.918,105.288,133.918,105.751ZM123.432,92.129c.154-.36.36-.514.72-.36.36.1.36.36.1.771Zm.822,1.491c-.257.257-.411.463-.411.565-.411-.1-.514-.308-.308-.565A.5.5,0,0,1,124.255,93.62Zm-.925,8.43a.6.6,0,0,1,.514-.206c0,.36-.257.565-.822.565C123.124,102.307,123.227,102.152,123.329,102.05Zm-.514-2.981c0-.36.154-.463.411-.257C123.484,98.965,123.329,99.068,122.815,99.068Zm.617-.925c-.72.257-1.079.1-1.131-.514a2.527,2.527,0,0,1,.1-1.336C123.484,96.5,123.843,97.166,123.432,98.143Zm-1.491,18.4a1.4,1.4,0,0,1-1.234-.514.649.649,0,0,1,0-.925c.257.154.617.308,1.028.514A.541.541,0,0,1,121.942,116.545Zm0,2.93c-.565,0-.822-.206-.822-.617a.584.584,0,0,1,.822-.1C122.25,118.961,122.25,119.218,121.942,119.475Zm-6.065-3.341a.958.958,0,0,1,1.028-.822c.565,0,.72-.257.411-.822a3.2,3.2,0,0,0-.411-.617.819.819,0,0,1-.206-.617c.257-.154.565,0,.822.411.257,0,.617-.36,1.028-1.028a.876.876,0,0,1,.411.822,2.039,2.039,0,0,0,.206,1.028,2.946,2.946,0,0,0-1.7,1.234C117.264,116.288,116.7,116.442,115.876,116.134Zm.411,17.785q0-.617.308-.308T116.287,133.919Zm-5.037-13.365c-.257-.154-.565-.257-.822-.411a4.291,4.291,0,0,1-.822-.617c.411-1.131,1.131-1.336,2.107-.617a1.628,1.628,0,0,1-.206.822A1.553,1.553,0,0,0,111.25,120.554Zm.206,1.028c-.411.154-.617.051-.514-.206a3.8,3.8,0,0,0,.1-.617C111.353,120.76,111.456,121.017,111.456,121.582Zm-4.575,16.14c.257-.257.411-.154.411.411s-.206.72-.617.411c0-.257.051-.411.206-.411C106.984,138.134,106.984,137.98,106.881,137.723Zm-5.86-31.407c.154-.411.36-.565.72-.411s.36.411.1.822Zm.822,1.645a1.348,1.348,0,0,0-.411.617q-.617-.231-.308-.617C101.329,107.7,101.535,107.7,101.843,107.961ZM98.5,92.9c0-.72.411-.977,1.234-.822a1.335,1.335,0,0,1-1.028,1.234C98.965,93,98.913,92.9,98.5,92.9Zm1.234-7.967c-.154-.565.051-.822.514-.822a.864.864,0,0,0,.925-.822c.565.257.565.771,0,1.491C100.661,85.4,100.147,85.5,99.736,84.933Zm1.285,3.238c0,.36-.154.463-.411.308v-.617C100.867,87.708,101.021,87.811,101.021,88.171Zm-1.079-7.659c-.257-.154-.411-.308-.411-.514a1.521,1.521,0,0,1,.1-.514q.077-.231.308,0C100.1,79.638,100.1,79.947,99.942,80.512Zm.411,9.869,1.131-1.131c.514-.463.72-.257.72.72a11.606,11.606,0,0,1-1.9.72c-.977.36-1.593.257-1.9-.308-.411-.977-.308-1.234.411-.822C99.582,89.97,100.1,90.227,100.353,90.381Zm11.771-9.252a3.521,3.521,0,0,0,.206,1.491,1.458,1.458,0,0,1-1.131-.514c-.36-.36-.411-.668-.1-.925C111.764,80.461,112.124,80.461,112.124,81.129Zm-.565-7.3c.36-.154.36.051.1.617C111.25,74.19,111.25,73.984,111.558,73.83Zm4.935,4.369c-.411.154-.771-.206-1.028-1.028a1.641,1.641,0,0,1,.72-.925.979.979,0,0,0,.514-.925c.565-.154.617.206.1,1.028Q116.107,77.582,116.493,78.2Zm-.925,6.014a.992.992,0,0,0,.308-1.131h1.491a1.66,1.66,0,0,0-.72,1.336c-.051.617-.463.874-1.131.72C115.156,84.83,115.208,84.522,115.568,84.213Zm7.145-11.874a.858.858,0,0,0,.925-.771c.565.257.565.668,0,1.285s-1.028.668-1.491.206C122.044,72.6,122.2,72.339,122.713,72.339Zm-.771-3.6a1.026,1.026,0,0,1,.1-.463q.077-.154.308,0c.154.1.154.463,0,.925C122.1,69.05,121.942,68.9,121.942,68.741Zm9.458,8.121a1.956,1.956,0,0,0,.925.668,9.511,9.511,0,0,1,1.234.565c.36.206.514.36.411.463a3.268,3.268,0,0,1-1.593.206c-.308-.874-.72-1.234-1.234-1.131-.72.257-1.028.257-1.028.1V76.5a2.42,2.42,0,0,0,.822.206,5.718,5.718,0,0,1-.617-.925c-.257-.36-.051-.514.617-.36.257.257.36.514.206.771C131.04,76.349,131.091,76.606,131.4,76.863Zm2.159-1.131c.051-.514.308-.771.72-.771a2.271,2.271,0,0,1,.308.822c.051.308-.1.514-.514.668C133.713,76.451,133.507,76.246,133.558,75.732Zm-2.57,19.379a2.386,2.386,0,0,1-1.234-1.593c-.257-.822.36-1.079,1.9-.822a6.4,6.4,0,0,1-.514,1.028C130.834,94.031,130.834,94.494,130.988,95.11Zm-1.7,25.033c.257-.257.411-.1.411.36,0,.514-.206.617-.617.36,0-.257.051-.36.206-.36S129.446,120.4,129.292,120.143Zm-.822-31.715a2.626,2.626,0,0,1,.822.565,7.149,7.149,0,0,1-1.336.925,1.306,1.306,0,0,1-1.593,0,10.767,10.767,0,0,0,1.131-.771C127.853,88.891,128.161,88.685,128.47,88.428Zm-.874-2.622q-.617-.771.617-.771C128.264,85.55,128.007,85.807,127.6,85.807Zm1.079,5.037c-.154-.617,0-.977.411-1.131a1.025,1.025,0,0,1,1.028.206C130.114,90.536,129.652,90.844,128.675,90.844Zm-.206,2.776c0-.36.154-.463.411-.257S128.984,93.62,128.47,93.62Zm1.234-7.453c-.565,0-.822-.308-.822-.925a1.706,1.706,0,0,1,.822.257C130.012,85.7,130.012,85.909,129.7,86.166Zm-1.439,9.355a.637.637,0,0,1-.822.1c-.257-.206-.36-.411-.206-.668C127.9,94.7,128.264,94.9,128.264,95.522Zm0,7.813c-.565,0-.822-.257-.822-.771C127.956,102.615,128.264,102.872,128.264,103.335Zm.1-2.621a1.542,1.542,0,0,1,.925-.565,1.435,1.435,0,0,0-.411,1.028c0,.463-.206.668-.617.668C127.956,101.484,128.007,101.124,128.367,100.713Zm.822,16.243c.36.257.36.514.1.771-.257,0-.411-.051-.411-.206,0-.1-.154-.257-.411-.36C128.572,116.8,128.829,116.7,129.189,116.956Zm.1-8.173a.357.357,0,0,1-.206-.565c.72-.257,1.028-.1,1.028.36A.748.748,0,0,1,129.292,108.783Zm.72-3.084a.579.579,0,0,1,.1-.822c.565,0,.822.36.822,1.131A.854.854,0,0,1,130.012,105.7Zm1.079-18.5c-.36-.206-.514-.411-.514-.668a.775.775,0,0,1,.925-.1c.36.206.514.411.514.668A.714.714,0,0,1,131.091,87.194Zm-.36-3.084a1.014,1.014,0,0,1,.308-1.388c.463-.411.257-.771-.72-1.028l.617-1.131c1.388.257,2,.771,1.8,1.593A3.029,3.029,0,0,1,130.731,84.11Zm-.514-10.332a2.527,2.527,0,0,1-1.336-.1,1.545,1.545,0,0,1,.925-1.028,1.08,1.08,0,0,1,1.336.463C131.194,73.47,130.834,73.727,130.217,73.779Zm-1.131,7.145c-.154.617-.514.771-1.131.36-.617-.36-.822-.668-.514-.925a1.135,1.135,0,0,1,.822,0C128.521,80.512,128.778,80.718,129.086,80.923Zm-1.7-4.472a1.135,1.135,0,0,1-.822,0c-.565-.771-.411-1.028.411-.822s1.234.463,1.234.822A1.133,1.133,0,0,0,127.39,76.451Zm-.514-2.107c-.206.206-.463.154-.72-.1-.308-.617-.1-.925.514-.925s.925.257.925.771A.8.8,0,0,0,126.876,74.344Zm-1.131-4.215c-.257-.514-.051-.617.617-.36C126.362,70.026,126.157,70.129,125.745,70.129Zm0,1.85c.154.257.1.411-.1.463a.413.413,0,0,0-.308.463c-.154,0-.206-.154-.206-.463Q125.051,71.979,125.745,71.979Zm.206,6.168c.257-.257.257-.411-.1-.565-.36-.1-.411-.36-.1-.771.565,0,.822.206.822.565a2.68,2.68,0,0,1-.411,1.234,4.63,4.63,0,0,1-.925,1.028c-.36.257-.617.308-.72.206.154-.36.257-.771.411-1.131C125.026,78.353,125.385,78.148,125.951,78.148ZM120.914,80.2q0-.925,1.234-.771c0,.514-.36.874-1.028,1.131C121.376,80.307,121.325,80.2,120.914,80.2Zm1.336.72a.649.649,0,0,1,.925,0c-.154.257-.308.514-.514.822s-.514.36-.925.1A1.227,1.227,0,0,1,122.25,80.923Zm.771,1.7c.154-.411.617-.617,1.491-.617.154.72,0,1.028-.411,1.028A1.561,1.561,0,0,1,123.021,82.62Zm-.411,3.393c0-.36.1-.463.308-.257C123.124,85.909,123.021,86.012,122.61,86.012Zm1.542-.565a.465.465,0,0,0,.514,0c.154.36.051.565-.308.565s-.514-.1-.514-.36C123.843,85.344,123.946,85.293,124.152,85.447Zm.514-.668v-.822c.411-.1.617-.051.617.257v.822C124.871,85.19,124.666,85.087,124.666,84.779Zm-1.85-6.528h0c-.308.668-.668.822-1.182.411l-.308-.308a.713.713,0,0,1-.411-.36c-.36-.771-.308-1.079.257-.822.154-.463.36-.463.668.051a4.447,4.447,0,0,0,.36.514c.257.154.463.206.617.308.154-.154.411-.36.668-.565h-.051c-.257-.514-.1-.668.514-.463.463-.411.72-.206.72.668C124.409,77.736,123.792,77.942,122.815,78.251Zm.206-1.953v-.565c.257-.1.411-.051.411.257S123.278,76.4,123.021,76.3Zm-.874-.565c-.308.257-.565.36-.822.206a1.628,1.628,0,0,0-.822-.206c-.308-.257-.154-.822.411-1.7A2.567,2.567,0,0,1,122.147,75.732Zm-.617,7.71a1.116,1.116,0,0,1,1.234,1.028,6.751,6.751,0,0,0-1.8-.308,1.051,1.051,0,0,1-1.131-1.131A2.871,2.871,0,0,0,121.53,83.442Zm.411,7.762c.411,0,.617.1.617.36s-.154.36-.514.36-.617-.1-.72-.36C121.325,91.358,121.53,91.2,121.942,91.2Zm-1.9-5.449c-.257-.154-.411-.308-.308-.514a1.067,1.067,0,0,1,.308-.514C120.605,84.83,120.605,85.19,120.04,85.755Zm-.822-5.86q0-.848.617-.617A.545.545,0,0,1,119.217,79.9Zm.1,12.234q.771-.077.925.308c.257.565.154.822-.411.822s-.925-.154-1.028-.411C118.652,92.489,118.857,92.232,119.32,92.129Zm1.388,11.206q0,1.465-1.234.617Q119.4,103.18,120.708,103.335Zm-7.659-11.72c.36-.154.617,0,.72.411.257.72.257.925-.1.72a1.952,1.952,0,0,0-.925-.308C112.586,92.026,112.689,91.769,113.049,91.615Zm-.925-17.785a.819.819,0,0,1,.206-.617c.154-.154.36-.051.617.206C112.946,73.984,112.638,74.087,112.124,73.83ZM113.46,100.1c-.051-.051.1-.051.514.1-.411.72-.72.822-.822.411C113.409,100.353,113.512,100.2,113.46,100.1Zm-.1-4.883c.257,0,.411.051.411.206s.154.257.411.411a3.16,3.16,0,0,1,1.9-.822c.565,0,.617.565.206,1.7a3.894,3.894,0,0,0-2-.411Q112.972,96.215,113.357,95.213Zm2.519,2.262a.751.751,0,0,1-.206.617c-.154.154-.257.154-.411,0A.545.545,0,0,1,115.876,97.475Zm-.72,4.832c-.051.257-.257.36-.514.206-.154-.154-.051-.36.206-.617C115.105,101.9,115.208,102.05,115.156,102.307Zm-.1,9.407c0,.72-.1.925-.308.72a.939.939,0,0,0-.514-.308A1.159,1.159,0,0,1,115.054,111.713Zm.308,6.528c.206.257.1.411-.308.411C115.054,118.087,115.156,117.933,115.362,118.241Zm-.514-7.762c-.257-.257-.051-.617.617-1.028C115.722,110.12,115.516,110.48,114.848,110.48Zm0-2.107a.778.778,0,0,1,.206-1.131,3.09,3.09,0,0,0,.822-.925c.565.257.617.72.1,1.234C115.465,108.115,115.105,108.372,114.848,108.372Zm1.439-6.477a1.083,1.083,0,0,1,0-1.234,1.1,1.1,0,0,1,.822-.617,1.194,1.194,0,0,1,.1,1.234A.988.988,0,0,1,116.287,101.9Zm.617-4.832a.552.552,0,0,1,.617-.308c.257.051.36-.1.206-.514a1.065,1.065,0,0,1,.822.514.925.925,0,0,1,0,1.131c-.257-.154-.565-.257-.822-.411C117.47,97.372,117.213,97.218,116.9,97.064Zm1.7-1.85a2.262,2.262,0,0,0,.514-.1c.206-.051.257.154.1.72A.545.545,0,0,1,118.6,95.213Zm.411-11a.791.791,0,0,0-.308.206c-.051.051.051.1.308.1a.724.724,0,0,1-1.028.308.682.682,0,0,1-.411-.925,5.86,5.86,0,0,1,1.439.1C119.166,84.059,119.166,84.11,119.012,84.213Zm-1.439,1.336c.154,0,.206-.051.206-.1s.051-.1.206-.1c.257.257.206.514-.206.617-.411.154-.565,0-.411-.411Zm-1.7,2.724c.257.565.154.925-.308,1.028q-.771.231-.308.617c-.154.257-.514.154-1.131-.411s-.874-.977-.72-1.234a2.1,2.1,0,0,1,1.234-.514A1.271,1.271,0,0,1,115.876,88.274Zm-1.9-6.682a.558.558,0,0,1,.411-.822,3.019,3.019,0,0,1,.411,1.9A2.347,2.347,0,0,1,113.974,81.592Zm-.411-3.6c-.308,0-.36-.206-.206-.617.565.154.822.411.822.822A.869.869,0,0,0,113.563,77.994Zm-.411-5.654a5.765,5.765,0,0,0-.514-1.131c-.206-.36-.463-.72-.72-1.131.154,0,.36.154.72.411a3.442,3.442,0,0,1,.822.925,1.823,1.823,0,0,1,.308.822C113.769,72.442,113.563,72.493,113.152,72.339Zm-1.491,16.346c-.411,0-.617-.257-.514-.822.051-.565.308-.822.72-.822a2.808,2.808,0,0,1,.308.925C112.278,88.325,112.124,88.582,111.661,88.685Zm-.514,1.8c.36.206.514.411.411.514-.051.154-.617.206-1.593.206q-.463-1.465-1.234-1.234c-.72.257-1.028.308-1.028.1V88.736a1.628,1.628,0,0,0,.822.206,8.909,8.909,0,0,1-.617-1.028c-.257-.411-.051-.565.617-.411a.672.672,0,0,1,.206.822.672.672,0,0,0,.206.822,2,2,0,0,0,.925.72A10.11,10.11,0,0,1,111.147,90.484Zm-2.622,19.173a2.589,2.589,0,0,1-1.234-1.8c-.257-.925.36-1.234,1.9-.925a5.765,5.765,0,0,1-.514,1.131A2.2,2.2,0,0,0,108.526,109.657Zm0,12.131a.677.677,0,0,1-.925-.308.7.7,0,0,1,.1-.925C108.269,120.554,108.526,120.965,108.526,121.788Zm-2.313-16.963c-.154-.72,0-1.131.411-1.234a.925.925,0,0,1,1.028.206C107.7,104.465,107.189,104.825,106.213,104.825Zm-.206,3.136c0-.411.154-.514.411-.308C106.727,107.858,106.572,107.961,106.007,107.961Zm.463-9.407a1.367,1.367,0,0,1,.822.308c.257.206.257.463,0,.72C106.727,99.582,106.47,99.222,106.47,98.554Zm2.159,2.21a.854.854,0,0,1-.514-.72.708.708,0,0,1,.925-.1.854.854,0,0,1,.514.72A.7.7,0,0,1,108.628,100.765Zm-.308-3.5a1.287,1.287,0,0,1,.308-1.593c.463-.463.257-.874-.72-1.131l.617-1.234c1.388.257,2,.874,1.8,1.8A3.394,3.394,0,0,1,108.32,97.269Zm.977-22.308c-.206.051-.411.051-.514-.1,0-.257.257-.411.822-.411C109.605,74.755,109.5,74.909,109.3,74.961Zm.72,8.687c0,.411-.308.617-.822.617v-.617A.534.534,0,0,1,110.016,83.648Zm-.977-7.813a1.693,1.693,0,0,1,0,.72.624.624,0,0,1-.411.514q-.308.077-.308-.925C108.731,75.732,108.988,75.578,109.04,75.835Zm-.308,9.1c0,.411-.308.668-.925.72a2.527,2.527,0,0,1-1.336-.1,1.61,1.61,0,0,1,.925-1.131C107.857,84.213,108.32,84.367,108.731,84.933Zm-2.056,8.79c-.154.72-.514.822-1.131.411s-.822-.771-.514-1.028a.789.789,0,0,1,.822,0A6.824,6.824,0,0,1,106.675,93.722Zm-.874,4.626c0,.565-.206.822-.617.822C104.773,98.606,104.979,98.349,105.8,98.349Zm-.822-9.664a.789.789,0,0,1-.822,0c-.565-.822-.411-1.131.411-.925s1.234.514,1.234.925A1.135,1.135,0,0,0,104.979,88.685Zm-.514-2.416c-.206.206-.463.154-.72-.1-.308-.72-.1-1.028.514-1.028s.925.257.925.822A1.015,1.015,0,0,0,104.465,86.269Zm-1.182-4.678c-.257-.565-.051-.72.617-.411C103.951,81.437,103.745,81.592,103.283,81.592Zm0,2.056c.154.257.1.463-.1.514a.475.475,0,0,0-.308.514c-.154,0-.206-.154-.206-.514C102.666,83.853,102.871,83.648,103.283,83.648Zm.206,6.939c.257-.257.257-.463-.1-.617s-.411-.411-.1-.822c.565,0,.822.206.822.617a2.858,2.858,0,0,1-.411,1.336,4.358,4.358,0,0,1-.925,1.131c-.36.257-.617.36-.72.206.154-.411.257-.822.411-1.234A.989.989,0,0,1,103.488,90.587Zm-1.234,7.453v-.925q.617-.231.617.308v.925Q102.255,98.5,102.255,98.04Zm-.308,1.336c-.36,0-.514-.154-.514-.411s.1-.36.308-.206.36.154.514,0Q102.486,99.377,101.946,99.377ZM98.3,109.04a.378.378,0,0,1,.411.411H98.3Zm1.542-15.318a.649.649,0,0,1,.925,0c-.154.257-.308.617-.514.925-.206.36-.514.411-.925.1A1.2,1.2,0,0,1,99.839,93.722Zm1.285,9c.051.154.257.257.514.411a.725.725,0,0,1-.617.411c-.257,0-.411-.206-.411-.617C100.867,102.666,101.021,102.615,101.124,102.718Zm.925.1c.411-.051.411-.308,0-.72a1.067,1.067,0,0,0-.514-.308.475.475,0,0,1-.308-.514c0-.72.154-.874.514-.514a1.415,1.415,0,0,0,.925.514c.565-.154.925-.36,1.028-.72a2.917,2.917,0,0,1,.617-.925c.257-.154.514-.051.72.308s-.051.514-.72.514c.72.411.771.925.206,1.491,0,.72-.36.925-1.028.617a4.78,4.78,0,0,0-1.491.822C101.638,103.078,101.638,102.923,102.049,102.821Zm3.033.1a7.478,7.478,0,0,0,.925-.822,4.291,4.291,0,0,1,.822.617,9.5,9.5,0,0,1-1.336,1.028,1.179,1.179,0,0,1-1.593,0A6.867,6.867,0,0,0,105.082,102.923Zm.72,7.145a.584.584,0,0,1-.822.1.531.531,0,0,1-.206-.72C105.493,109.143,105.8,109.349,105.8,110.068Zm0,8.79a.714.714,0,0,1-.822-.822A.714.714,0,0,1,105.8,118.858Zm.1-2.93q.54-.617.925-.617a1.6,1.6,0,0,0-.411,1.131c0,.514-.206.72-.617.72A1.012,1.012,0,0,1,105.9,115.928Zm.874,18.248a.488.488,0,0,1,.1.822c-.257,0-.411-.051-.411-.206s-.154-.257-.411-.411C106.161,133.919,106.418,133.867,106.778,134.176Zm.1-9.252c-.257-.154-.36-.36-.206-.617.72-.257,1.028-.154,1.028.411A.614.614,0,0,1,106.881,124.923Zm1.439,1.491a1.063,1.063,0,0,1,.514.72c.051.36,0,.617-.206.72-.206.154-.617-.051-1.131-.617C107.755,126.517,108.063,126.26,108.32,126.414Zm.308,4.266a.619.619,0,0,1,.617.206c.206.206.257.411.1.617s-.514.257-1.028.1Q108.32,130.835,108.628,130.68Zm.771-20.612a1.367,1.367,0,0,0,.822-.308.584.584,0,0,1,.822.1.812.812,0,0,1-.822.925C109.656,110.891,109.4,110.634,109.4,110.068Zm1.645-10.692a.435.435,0,0,0,.308-.1.435.435,0,0,1,.308-.1c0,.72-.154.977-.411.822A.394.394,0,0,1,111.044,99.377Zm2.107,2.519c-.257.977,0,1.388.822,1.234a1.236,1.236,0,0,1-1.234.206,1.256,1.256,0,0,1-1.028-1.028A3.429,3.429,0,0,1,113.152,101.9Zm.411,16.757.822.822a.584.584,0,0,1-.822.1c-.308-.206-.565-.36-.822-.514C113,118.5,113.306,118.4,113.563,118.652Zm1.079,2.107a2.039,2.039,0,0,1,1.028.206c0,.411-.154.668-.514.72a1.036,1.036,0,0,1-.925-.308C114.077,120.965,114.18,120.76,114.642,120.76Zm.822-6.939a1.7,1.7,0,0,1,1.234,0,1.372,1.372,0,0,0-.206.514,1.372,1.372,0,0,1-.206.514,3.442,3.442,0,0,0-.617-.514C115.516,114.283,115.465,114.129,115.465,113.821ZM118.7,111.1c-.36-.72-.668-1.234-.925-1.7q-.231-.848.925-.308c.771.36,1.079.72.925,1.131a3.65,3.65,0,0,1-.514.72c-.206.206-.051.257.514.1.72-.154.977.051.822.514-.154.514-.411.668-.822.514C119.371,112.176,119.063,111.816,118.7,111.1Zm1.8-1.028c-.411-.257-.411-.514,0-.72s.617.051.617.72Zm.411-9.2c-.154.154-.154.411,0,.822-.822-.257-1.131-.72-.822-1.336a1.388,1.388,0,0,0-.206-1.593q.848,0,.925.617a.929.929,0,0,0,.72.822A5.683,5.683,0,0,0,120.914,100.867Zm.1-3.084a1.938,1.938,0,0,0-.1-1.131.545.545,0,0,1,.617.617V98.5C121.119,98.554,120.914,98.3,121.016,97.783Zm-.1-2.364v-.463h-.206V94.6c.1,0,.154,0,.206.051v-.771c0-.206.051-.36.206-.411s.36.154.617.72C122.3,94.956,121.993,95.419,120.914,95.419Zm1.028,5.654c.411,0,.72.051.822.206,0,.257-.154.411-.514.411S121.787,101.484,121.942,101.073Zm1.079-11.925c.257-.257.463-.308.514-.206a1.092,1.092,0,0,0,.514.36.671.671,0,0,1-.617.36C123.124,89.713,123.021,89.559,123.021,89.148Zm1.439-.1c.411-.051.411-.257,0-.668a1.608,1.608,0,0,0-.514-.257.513.513,0,0,1-.257-.206,1.21,1.21,0,0,1-.411-.1,8.152,8.152,0,0,1-.925-.411,1.142,1.142,0,0,1,.411-1.234,6.362,6.362,0,0,0,.925.72c.051.051.154.1.206.154a.47.47,0,0,1,.257.154,1.554,1.554,0,0,0,.925.463,1.231,1.231,0,0,0,1.028-.668,3.136,3.136,0,0,1,.617-.822.554.554,0,0,1,.72.257c.206.308-.051.463-.72.463.72.36.771.822.206,1.285,0,.617-.36.822-1.028.565a4.874,4.874,0,0,0-1.491.771C124.049,89.3,124.049,89.148,124.46,89.045Zm1.7,1.8a1.4,1.4,0,0,1,1.028.36c0,.514-.257.771-.72.771-.514,0-.822-.1-.925-.36Q125.54,90.844,126.157,90.844Zm.411,31c.154.514,0,.771-.411.771l-.206-.565A1.734,1.734,0,0,0,126.568,121.839Zm0,15.112c.257.1.411.257.411.36s-.154.1-.411,0Zm.411-24.827a.876.876,0,0,0,.72,0c.206-.1.36-.051.514.206,0,.36-.257.514-.72.36S126.825,112.381,126.979,112.124Zm.925,27.911c.206.206.1.257-.308.257C127.6,139.933,127.7,139.83,127.9,140.036Zm.1-21.383a2.7,2.7,0,0,0,.925.206q.54,0,.308.771C128.315,119.578,127.9,119.269,128.007,118.652Zm.257,12.336c.154-.257.308-.257.514-.1.206.206.36.1.514-.257.411.257.308.514-.308.822S128.11,131.606,128.264,130.989Zm1.645,6.528c.411.1.514.308.308.565a1.85,1.85,0,0,1-.72.565C129.086,138.237,129.241,137.877,129.909,137.517Zm.206-11.206c0-.257.1-.36.308-.257a.413.413,0,0,1,.308.463C130.628,126.363,130.423,126.311,130.114,126.311Zm-.206-15.523c.257-.617.565-.874.822-.771a.875.875,0,0,1,.514.668.612.612,0,0,1-.206.668C130.834,111.508,130.474,111.3,129.909,110.788Zm1.182,3.084a.619.619,0,0,1,.617.206c.206.206.257.36.1.565s-.514.206-1.028.1C130.731,114.232,130.834,113.975,131.091,113.872Zm.72-18.35a1.706,1.706,0,0,0,.822-.257.584.584,0,0,1,.822.1c0,.514-.257.771-.822.822S131.811,95.984,131.811,95.522Zm1.645-9.509a.435.435,0,0,0,.308-.1.435.435,0,0,1,.308-.1c0,.617-.154.874-.411.771A.4.4,0,0,1,133.456,86.012Zm2.107,2.21c-.257.874,0,1.234.822,1.131a1.371,1.371,0,0,1-1.234.206,1.151,1.151,0,0,1-1.028-.925A3.643,3.643,0,0,1,135.563,88.222Zm0-1.131q.386-.386.308-.463c-.051-.051.1-.051.514.1C135.974,87.349,135.717,87.5,135.563,87.092Zm.206-4.832c.257,0,.411.051.411.206,0,.1.154.257.411.36a3.385,3.385,0,0,1,1.9-.771c.565,0,.617.514.206,1.491a3.975,3.975,0,0,0-2-.36Q135.383,83.185,135.769,82.26Zm1.491,13.621q-.386-.386.617-.925Q138.262,95.881,137.259,95.881Zm.206,7.3c0-.514.1-.617.308-.36C137.979,103.026,137.876,103.18,137.465,103.18Zm-.206-9.15A.674.674,0,0,1,137.465,93a2.45,2.45,0,0,0,.822-.822c.565.257.617.617.1,1.131A2.079,2.079,0,0,1,137.259,94.031Zm-.206-5.243c-.154-.1-.051-.308.206-.565.257,0,.36.1.308.36S137.311,88.891,137.054,88.788Zm1.028-3.907a.313.313,0,0,1-.411,0c0-.36.206-.565.617-.565A.7.7,0,0,1,138.082,84.881Zm-.617,12.131c0,.617-.1.822-.308.668a.781.781,0,0,0-.514-.257A.994.994,0,0,1,137.465,97.012Zm.617,8.224a.589.589,0,0,1-.514.668,1.168,1.168,0,0,1-.925-.257c-.154-.36,0-.565.411-.565A1.623,1.623,0,0,1,138.082,105.237Zm-.206-6.374a2.506,2.506,0,0,1,1.234,0,1.3,1.3,0,0,0-.206.463,1.3,1.3,0,0,1-.206.463,2.61,2.61,0,0,0-.617-.463C137.928,99.274,137.876,99.12,137.876,98.863Zm.822-10.64a.926.926,0,0,1,0-1.131,1.152,1.152,0,0,1,.822-.565,1.019,1.019,0,0,1,.1,1.131A.971.971,0,0,1,138.7,88.222Zm.668-4.266a.469.469,0,0,1,.617-.257c.257.051.36-.1.206-.463a1.14,1.14,0,0,1,.822.463.781.781,0,0,1,0,1.028c-.257-.1-.565-.257-.822-.36A4.077,4.077,0,0,0,139.367,83.956Zm.411-10.28h.206c.154,0,.206-.051.206-.1s.051-.1.206-.1c.257.257.206.463-.206.565C139.778,74.19,139.624,74.036,139.778,73.676Zm1.234,8.584a2.263,2.263,0,0,0,.514-.1c.206-.051.257.154.1.668C141.217,82.825,141.012,82.62,141.012,82.26Zm.1,12.388c.771.308,1.079.668.925,1.028a3.3,3.3,0,0,1-.514.668c-.206.206-.051.206.514.1.72-.1.977.051.822.463-.154.463-.411.617-.822.463-.257,0-.617-.308-.925-.925-.36-.617-.668-1.131-.925-1.491Q139.958,94.185,141.114,94.648Zm.72-4.575c0-.514.411-.668,1.234-.565C143.119,90.381,142.708,90.587,141.834,90.073Zm1.079,5.449c-.411-.257-.411-.463,0-.668s.617.051.617.668Zm-.72-22.154a.749.749,0,0,1,.308-.463c.565.1.565.463,0,.925Q142.04,73.676,142.194,73.367Zm-.463,6.168c.514-.051.822.051.925.257.257.514.154.771-.411.771s-.925-.1-1.028-.36C141.063,79.844,141.269,79.587,141.731,79.536Zm-1.748-7.35a5.862,5.862,0,0,1,1.439.1c.154.051.154.1,0,.206a.472.472,0,0,0-.308.206c-.051.051.051.1.308.1a.749.749,0,0,1-1.028.257C139.984,72.853,139.829,72.545,139.984,72.185Zm-2,.257a.85.85,0,0,0,.308-1.028h1.491a1.543,1.543,0,0,0-.72,1.234c-.051.565-.463.771-1.131.668C137.619,73.059,137.619,72.751,137.979,72.442Zm.308,3.65q.386.771-.308.925c-.514.1-.617.308-.308.565-.154.257-.514.1-1.131-.36-.617-.514-.874-.874-.72-1.131a2.081,2.081,0,0,1,1.234-.463A1.259,1.259,0,0,1,138.287,76.092Zm-1.028-5.037a1.756,1.756,0,0,1-.822-.925c-.154-.36,0-.617.411-.771A2.515,2.515,0,0,1,137.259,71.054Zm-1.491-4.678c.565.1.822.36.822.771a1.1,1.1,0,0,0-.617-.206C135.717,66.942,135.666,66.788,135.769,66.377Zm-.308,12.7a.507.507,0,0,1,.72.36c.257.617.257.822-.1.668a1.809,1.809,0,0,0-.925-.257C135,79.433,135.1,79.227,135.46,79.073Zm-2-9.3c.72-.617,1.028-.617,1.028,0a2.518,2.518,0,0,0,.206,1.285,1.6,1.6,0,0,1-1.131-.463C133.25,70.283,133.2,70.026,133.456,69.769Zm-.617-1.953c.154.051.206.051.206-.1.154,0,.206.1.206.36h-.617C132.633,67.816,132.736,67.713,132.839,67.816Zm.411,5.86a1.86,1.86,0,0,1-.822.925,1.5,1.5,0,0,1-.72-.668c-.206-.308-.1-.565.308-.822a1.4,1.4,0,0,1,.617.463C132.787,73.779,132.993,73.779,133.25,73.676Zm-1.645-1.131v-.565a.535.535,0,0,1,.822,0C132.428,72.339,132.171,72.545,131.605,72.545Zm.411-8.79a.413.413,0,0,1-.308.463c-.206.051-.411.051-.514-.1C131.194,63.909,131.451,63.755,132.016,63.755Zm-.514,1.234a1.462,1.462,0,0,1,0,.668.553.553,0,0,1-.411.463c-.206.051-.308-.206-.308-.822C131.194,64.886,131.4,64.783,131.5,64.989Zm-1.593,3.752c-.257-.051-.36-.206-.206-.463a.819.819,0,0,0,.617-.206C130.32,68.587,130.217,68.793,129.909,68.741Zm-5.243-5.911a5.159,5.159,0,0,0,1.8.463,2.874,2.874,0,0,0,1.8-.463q.385.54-.308,1.234c-.514.463-.668.822-.514,1.234a10.363,10.363,0,0,1,1.439-.257,1.953,1.953,0,0,0,1.234-.463c.257.617.051,1.131-.617,1.593a5.547,5.547,0,0,0-1.491,1.234.788.788,0,0,0,0,.822c.154.308.257.617.411.925a1.218,1.218,0,0,1,.1.822c-.051.257-.411.308-.925.206,0-.771-.154-1.028-.411-.822-.308.206-.72.1-1.234-.257-.411-.257-.565-.565-.411-.925a.894.894,0,0,1,.72.463c.206.308.514.36.925.1a1.118,1.118,0,0,0,.1-1.234c-.206-.565-.411-.977-.514-1.234a2.043,2.043,0,0,1,0-1.388c.154-.668.051-1.079-.206-1.234a1.236,1.236,0,0,0-1.7.925c-.308-.1-.308-.36-.1-.771S124.974,63.087,124.666,62.83Zm-.72,7.2a1.809,1.809,0,0,1,.925-.257c-.154.617-.617.925-1.491.925-.822,0-1.131-.308-.822-.925C123.124,70.129,123.586,70.232,123.946,70.026Zm-.514-.822c0,.565-.206.617-.617.206C122.764,68.844,123.021,68.793,123.432,69.2Zm-1.8-5.243c.925,0,1.336.308,1.336.925a1.1,1.1,0,0,1-1.336.206,1.844,1.844,0,0,0-1.336-.206C120.3,64.269,120.708,63.961,121.633,63.961ZM120.3,67.713c.565,0,.771.1.617.257a.836.836,0,0,0-.206.463C120.3,68.176,120.142,67.97,120.3,67.713Zm-.463,3.393a.923.923,0,0,1,1.131,0,1.91,1.91,0,0,0,1.131.411c0,.822-.463,1.131-1.336.822Q119.449,71.954,119.834,71.106Zm-.822,5.654a.725.725,0,0,1,.617-.411C119.628,76.606,119.423,76.76,119.012,76.76Zm-.822-8.584c.257.154.36.257.308.411s-.154.154-.308,0Zm.308,4.575c.463-.154.72.051.72.617-.308,0-.411.051-.411.206s-.154.154-.411,0C117.984,73.213,117.984,72.9,118.5,72.751ZM116.7,68.9c.154-.36.257-.36.411-.1V69.2C116.7,69.358,116.6,69.255,116.7,68.9Zm-.206-2.621a.545.545,0,0,1-.617.617C115.568,66.377,115.825,66.12,116.493,66.274Zm-.72,4.832c.36-.154.36-.565.1-1.234.565,0,.822.308.822.925a1.4,1.4,0,0,0,1.028,1.336,11.775,11.775,0,0,0-1.028,1.593,2.523,2.523,0,0,1-1.439,1.131,2.23,2.23,0,0,1,.411-1.028c.257-.411.257-.72,0-.822a1.392,1.392,0,0,0-.617-.206c-.154,0-.206-.206-.206-.617A1.811,1.811,0,0,1,115.773,71.106Zm-.925,0a.545.545,0,0,1-.617-.617Q115,70.258,114.848,71.106Zm-1.7-4.832a1.962,1.962,0,0,1,1.7,0,7.4,7.4,0,0,1-1.028,1.234.876.876,0,0,1,.411.822,1.262,1.262,0,0,1-.822,1.234c-.411-.257-.463-.72-.1-1.234.36-.565.154-.771-.514-.617A.928.928,0,0,1,113.152,66.274Zm-1.234-.72c.72.051.822.411.411.925-.308.411-.514.463-.72.1a1.607,1.607,0,0,0-.72-.72C110.839,65.606,111.2,65.5,111.918,65.554ZM110.428,78.97c.154.051.206.051.206-.1.154,0,.206.154.206.411h-.617C110.222,78.97,110.273,78.867,110.428,78.97Zm.411,6.579a1.973,1.973,0,0,1-.822,1.028,1.62,1.62,0,0,1-.72-.72q-.308-.54.308-.925a2.057,2.057,0,0,1,.617.514A.42.42,0,0,0,110.839,85.55ZM109.4,69.615c0-.72.154-.874.514-.514S110.068,69.615,109.4,69.615Zm-.463-1.748c.411-.36.72-.463.822-.308.411.257.308.565-.308.822a4.454,4.454,0,0,1-1.336.411A4.058,4.058,0,0,1,108.937,67.867ZM107.5,80c-.257-.051-.36-.257-.206-.514a.819.819,0,0,0,.617-.206C107.909,79.844,107.755,80.05,107.5,80Zm0-10.383c0,.257-.206.411-.617.411C106.572,69.512,106.778,69.358,107.5,69.615Zm-2.21,2.107a.763.763,0,0,1,1.131.206c0,.411-.154.668-.411.72a2.271,2.271,0,0,0-.822.308C104.773,72.442,104.825,72.031,105.287,71.722ZM102.871,69.1a1.2,1.2,0,0,1,1.028-.514c0,.565-.154.874-.411.925a.885.885,0,0,0-.617.514A.649.649,0,0,1,102.871,69.1Zm-.617,4.318a5.206,5.206,0,0,0,1.8.514,2.627,2.627,0,0,0,1.8-.514c.257.411.154.874-.308,1.336-.514.514-.668.925-.514,1.336a5.929,5.929,0,0,1,1.439-.308,1.964,1.964,0,0,0,1.234-.514,1.455,1.455,0,0,1-.617,1.8A6.654,6.654,0,0,0,105.6,78.4a.982.982,0,0,0,0,.925c.154.36.257.72.411,1.028a1.518,1.518,0,0,1,.1.925c-.051.257-.411.36-.925.206,0-.822-.154-1.131-.411-.925q-.463.308-1.234-.308a.81.81,0,0,1-.411-1.028.854.854,0,0,1,.72.514c.206.36.514.411.925.1a1.282,1.282,0,0,0,.1-1.336c-.206-.617-.411-1.079-.514-1.336a2.649,2.649,0,0,1,0-1.593c.154-.771.051-1.234-.206-1.336-.822-.257-1.388.051-1.7,1.028-.308-.154-.308-.411-.1-.822A.834.834,0,0,0,102.255,73.419Zm.206,7.71c-.154.72-.617,1.028-1.491,1.028-.822,0-1.131-.36-.822-1.028.565.411,1.028.514,1.336.308A3.425,3.425,0,0,1,102.46,81.129Zm2.313-30.584a.925.925,0,0,1,1.028-.206.819.819,0,0,1,.617.822,1.382,1.382,0,0,0-.925-.411c-.36,0-.463.257-.308.822a.378.378,0,0,1-.411-.411Zm-.925.565a2.959,2.959,0,0,0-.1.514c-.154,0-.206-.257-.206-.822Q103.925,50.8,103.848,51.11Zm.206,1.336c.051.154.257.206.514.206a5.988,5.988,0,0,1,1.028-.822c.411-.257.72-.051.822.617a6.652,6.652,0,0,1,.206,1.8,1.973,1.973,0,0,0,.822,1.593,4.087,4.087,0,0,1-2.107-.822c-.154-.257-.051-.463.206-.514s.36-.257.206-.514c0-.411-.206-.565-.617-.411s-.565.411-.411.822a2.81,2.81,0,0,0-1.491-.411c-.565,0-.565-.257,0-.822C103.745,52.55,103.951,52.293,104.054,52.447Zm-1.8-.72c.257-.463.617-.617,1.028-.308a1.571,1.571,0,0,1-.514.617,1.511,1.511,0,0,0-.514.617C102,52.55,102,52.19,102.255,51.727Zm0,5.14c.977.257,1.131.514.411.72s-.822.514-.411.925c-.72.257-1.079,0-1.131-.822C101.021,56.867,101.432,56.559,102.255,56.867Zm-.925,11.514a1.118,1.118,0,0,1-.1,1.234.736.736,0,0,1-.514-.925,1.362,1.362,0,0,0-.308-1.131C100.815,67.559,101.124,67.816,101.329,68.381ZM94.7,43.246c-.154.154-.206,0-.206-.411a.819.819,0,0,0,.617-.206c.154-.154.206.051.206.617Q94.93,43.015,94.7,43.246Zm.463,1.491a.7.7,0,0,1,.206-.565,1.053,1.053,0,0,1,.822.771A1.026,1.026,0,0,1,95.161,44.736Zm1.028,13.056v-.36a.531.531,0,0,1,.411.206C96.6,57.741,96.446,57.793,96.189,57.793Zm1.439-9a1.18,1.18,0,0,0-.206.72,1.086,1.086,0,0,1-.411-1.7C97.577,48.283,97.783,48.592,97.628,48.8Zm1.285,10.794c-.257.154-.463.051-.514-.206a1.16,1.16,0,0,1,.1-.822.5.5,0,0,1,.514.411A.631.631,0,0,1,98.913,59.592Zm.822-6.322c-.154-.154-.257-.206-.308-.206s-.154-.051-.308-.206a1.133,1.133,0,0,1,.822-.206c0,.411-.051.565-.1.411C99.787,52.961,99.736,53.012,99.736,53.269Zm.206,6.528a.282.282,0,0,1,.206-.308c.154-.051.206-.051.206.1.257.154.206.257-.206.411S99.685,60.054,99.942,59.8ZM98.708,70.386a.733.733,0,0,1,.617-.308c.154.257.1.411-.1.411s-.308.154-.308.411C98.605,70.746,98.554,70.592,98.708,70.386Zm0,1.131c.72.154.977.257.822.308s-.154.411,0,.925a1,1,0,0,0-.617-.514C98.605,72.185,98.554,71.928,98.708,71.517Zm.514,3.136c.925,0,1.336.36,1.336,1.028a.982.982,0,0,1-1.336.206,1.621,1.621,0,0,0-1.336-.206C97.834,75.012,98.3,74.652,99.222,74.652Zm-1.388,4.215q.848,0,.617.308a.953.953,0,0,0-.206.514C97.834,79.433,97.731,79.124,97.834,78.867Zm.257,65.9c0-.771.36-1.131,1.028-1.131C99.119,144.4,98.759,144.765,98.091,144.765Zm1.542-38.706a.715.715,0,0,1-.72-.411c0-.257.206-.411.617-.411s.617.154.617.411C100.147,105.956,99.993,106.059,99.633,106.059Zm.822-6.991q.308.308-.308.308Q100.147,98.76,100.456,99.068Zm.36,14.65c.257.206.154.308-.411.308C100.353,113.615,100.507,113.512,100.815,113.718Zm-.257,4.112a1.078,1.078,0,0,0,.308-.411c.051-.154.257-.206.514-.206C101.432,117.624,101.124,117.83,100.558,117.83Zm.668-2.519v-.617a1.1,1.1,0,0,1,.822.617Zm-.206-4.832v-.822a2.039,2.039,0,0,1,1.028.206A1.188,1.188,0,0,1,101.021,110.48Zm1.85-1.8a1.16,1.16,0,0,1-.822-.1.488.488,0,0,1,.822-.411C103.18,108.475,103.18,108.629,102.871,108.68Zm.206-3.033c0-.565.206-.822.617-.822a1.435,1.435,0,0,1,1.028.411c0,.565-.257.822-.72.822S103.231,105.956,103.077,105.648Zm.668,34.8-.206-.617a.751.751,0,0,0,.617-.206C104.259,140.138,104.156,140.447,103.745,140.447Zm1.336-11.1c-.514-.154-.668-.36-.514-.617a.616.616,0,0,0,.72,0c.206-.154.36-.051.514.206C105.8,129.344,105.6,129.5,105.082,129.344Zm.514,6.682a1.882,1.882,0,0,0,.925.206c.36,0,.463.257.308.822C105.9,137.106,105.493,136.746,105.6,136.026Zm.977,14.341c-.617.36-.874.154-.72-.514.154-.257.308-.308.514-.1s.36.1.514-.308Q107.5,149.9,106.572,150.367Zm.72-9.15a.188.188,0,0,1,.206-.206h.206c.257.257.206.411-.206.463C107.086,141.578,107.035,141.475,107.292,141.218Zm.411,3.393q0-.386.308-.308a.475.475,0,0,1,.308.514A1.1,1.1,0,0,0,107.7,144.61Zm.617-5.037a1.628,1.628,0,0,1-.822-.206l.206-.565Q108.783,138.8,108.32,139.573Zm1.285-.206c0-.257-.051-.411-.1-.411s-.051-.154.1-.411q.617-.231.617.308C110.222,139.213,110.016,139.367,109.605,139.367Zm.1-3.341c-.617.411-.874.051-.72-1.028.565,0,.925.154,1.028.411a1.169,1.169,0,0,0,.411-.72c0-.206.206-.257.617-.1A3.549,3.549,0,0,1,109.708,136.026Zm2.21-7.762c-.411.154-.668.051-.72-.206a1,1,0,0,0-.514-.617c0-.154.257-.154.822-.1C112.021,127.391,112.175,127.751,111.918,128.265Zm-.668-15.678c-.257-.565-.206-.925.206-1.028a2.446,2.446,0,0,1,1.491,0c0,.565-.206.822-.617.822A2.384,2.384,0,0,0,111.25,112.587Zm1.285,26.009v-.565c.411,0,.617.206.617.565Zm.411-11.154v-.822a.435.435,0,0,1,.308.1.434.434,0,0,0,.308.1A.545.545,0,0,1,112.946,127.442Zm.617,14.65c.411-.565.72-.617.822-.206C114.54,142.3,114.283,142.4,113.563,142.092Zm1.491-6.271c-.411.1-.565.051-.411-.257s.257-.36.411-.1Zm-.206-7.2c-.411-.051-.514-.257-.206-.514.411,0,.617.051.617.206C115.362,128.573,115.259,128.676,114.848,128.624Zm.411-3.907q.386,0,.308.308t.308.308c-.154.257-.308.308-.514.1A.544.544,0,0,1,115.259,124.718Zm.617,26.009a.357.357,0,0,1-.206-.565c.565-.257.925-.1,1.028.36A.6.6,0,0,1,115.876,150.727Zm.822-15.472c0-.36.1-.463.308-.257C117.264,135.152,117.161,135.255,116.7,135.255Zm.206-17.014c.154-.154.463-.206,1.028-.206h1.028a6.939,6.939,0,0,1,.925,1.234c.36.565.72.822,1.131.822a1.7,1.7,0,0,1-2.416.1A5.33,5.33,0,0,1,116.9,118.241Zm4.215,13.107c.257.36.154.565-.411.565C120.708,131.143,120.862,130.989,121.119,131.349Zm-1.234-1.336-.411.36c-.257,0-.411-.206-.411-.565A2.356,2.356,0,0,1,119.885,130.012Zm-1.079-1.079a.45.45,0,0,1,.411-.463c.257-.051.411.1.411.463-.308,0-.463.051-.514.206C119.063,129.241,118.96,129.19,118.806,128.933Zm.206,21.64c-.257-.257-.36-.463-.206-.668a1.866,1.866,0,0,1,.411-.463c.257,0,.411.206.411.668C119.68,150.522,119.423,150.676,119.012,150.573Zm.206-10.075c.565,0,.925.051,1.028.206,0,.257-.206.36-.617.36S119.114,140.858,119.217,140.5Zm1.285,3.136c.154.257.257.411.411.463s.206.206.206.463c-.257.257-.565.206-.822-.1C119.988,144.2,120.091,143.891,120.5,143.634Zm1.028,5.089c-.257.257-.411.308-.411.206s-.154-.206-.411-.206a.671.671,0,0,1,.617-.36C121.633,148.311,121.685,148.466,121.53,148.723Zm.411-27.86c-.565.36-.822.257-.822-.308a1.728,1.728,0,0,0,1.028-.617C122.558,120.194,122.507,120.5,121.942,120.863Zm.1-6.836c-.514-.154-.668-.411-.514-.822.411-.154.72-.154.822,0a3.2,3.2,0,0,0,.617.411C122.867,114.026,122.558,114.18,122.044,114.026Zm.1-7.967a.883.883,0,0,1,.1-.925.89.89,0,0,0,.1-.925,3.733,3.733,0,0,0,.925-.822.963.963,0,0,1,.72-.411,2.532,2.532,0,0,0-.1,1.234,2.873,2.873,0,0,1-.308,1.491,4.29,4.29,0,0,1-.617.822C122.713,106.779,122.456,106.624,122.147,106.059Zm1.9,5.654c-.257-.154-.411-.257-.308-.411.051-.154.257-.206.514-.206A.819.819,0,0,0,124.049,111.713Zm.1-2.93a.963.963,0,0,1-.72.411c-.154-.411-.1-.617.1-.617s.36-.154.514-.411A.364.364,0,0,1,124.152,108.783Zm-.514-8.636v-.565a1.152,1.152,0,0,1,.822.565Zm-.206-4.266V95.11a2.039,2.039,0,0,1,1.028.206A1.25,1.25,0,0,1,123.432,95.881Zm1.85-1.593a1.16,1.16,0,0,1-.822-.1.413.413,0,0,1,.308-.463.472.472,0,0,1,.514.1Q125.745,94.211,125.283,94.288Zm.463,42.1q-.231-.154.617,0c0,.514-.257.668-.822.565C125.8,136.694,125.848,136.489,125.745,136.386Zm.411,4.266a9.382,9.382,0,0,0,.822.668,1.671,1.671,0,0,1,.617.822c-.257.257-.72.154-1.336-.257S125.591,141.064,126.157,140.652Zm.822,4.678v-.36c.257-.257.411-.206.411.206C127.39,145.536,127.287,145.587,126.979,145.33Zm.411-1.7a1.33,1.33,0,0,1,.72-.771,2.151,2.151,0,0,0,.925-.565C128.932,142.966,128.367,143.428,127.39,143.634Zm1.9,1.7v-.565c.257-.257.411-.206.411.206C129.7,145.33,129.549,145.484,129.292,145.33Zm1.234,0v-.154c.411-.1.617-.051.617.206h-.617Zm-.308-3.8c-.051.463-.411.668-.925.668a.7.7,0,0,0-.206-.565c-.154-.1-.154-.308,0-.565a5.238,5.238,0,0,0,1.234-.257c.565-.206.925-.051,1.028.463C130.68,140.961,130.32,141.064,130.217,141.526Zm1.7-20.252c-.051,0-.051-.1.1-.36.411-.1.617-.051.617.257s-.206.463-.617.463C132.016,121.377,131.965,121.274,131.914,121.274Zm.72,17.888q-.617-.54-.617-.771c.411-.1.72-.051.822.206C132.993,138.853,132.942,139.059,132.633,139.162Zm-.514-20.509c-.617.36-.874.051-.72-.925.565,0,.925.1,1.028.36.257-.257.411-.463.411-.668s.206-.206.617-.1A3.334,3.334,0,0,1,132.119,118.652Zm1.336,23.9c-.565,0-.617-.206-.206-.565C133.815,141.989,133.918,142.143,133.456,142.554Zm.874-30.79c-.411.1-.668.051-.72-.206s-.257-.411-.514-.565c0-.1.257-.154.822-.1C134.432,110.994,134.586,111.251,134.329,111.765Zm-.617-14.033c-.257-.514-.206-.822.206-.925a3.62,3.62,0,0,1,1.491,0q0,.771-.617.771A3,3,0,0,0,133.713,97.732Zm2.262,5.449c.257.257.565.514.822.771a.637.637,0,0,1-.822.1,4.594,4.594,0,0,0-.822-.463C135.409,103.026,135.717,102.923,135.974,103.18Zm-.617,7.813v-.771a.435.435,0,0,1,.308.1.434.434,0,0,0,.308.1C135.974,110.788,135.769,110.994,135.357,110.994Zm1.491,12.9c.154.36-.154.463-.822.206C136.385,123.587,136.694,123.484,136.848,123.9Zm.206,14.907c-.411.1-.617.051-.617-.206a1.451,1.451,0,0,1,.206-.771C137.157,137.877,137.311,138.185,137.054,138.8Zm.206-26.78c-.411-.051-.514-.206-.206-.463.411,0,.617.051.617.206C137.825,111.97,137.671,112.073,137.259,112.022Zm.514-2.776a.487.487,0,0,1-.1-.668c.257,0,.36.1.308.257-.051.206.051.257.308.257C138.133,109.4,137.979,109.4,137.773,109.246Zm1.593-9.1c.565,0,.72-.257.411-.771a2.685,2.685,0,0,0-.411-.565.64.64,0,0,1-.206-.565c.257-.1.565,0,.822.36.257,0,.617-.308,1.028-.925a.745.745,0,0,1,.411.771,1.76,1.76,0,0,0,.206.925,2.842,2.842,0,0,0-1.7,1.131c-.308.514-.822.617-1.7.36A1.135,1.135,0,0,1,139.367,100.148ZM138.7,116.8c0-.36.1-.463.308-.257C139.264,116.7,139.11,116.8,138.7,116.8Zm2.416-12.234a4.517,4.517,0,0,1-1.8-1.748,1.907,1.907,0,0,1,1.028-.206h1.028a5.73,5.73,0,0,1,.925,1.131,1.439,1.439,0,0,0,1.131.771A1.772,1.772,0,0,1,141.114,104.568Zm3.238.565c-.565.308-.822.206-.822-.257a1.879,1.879,0,0,0,1.028-.565C145.021,104.517,144.918,104.825,144.353,105.134Zm.1-6.065c-.514-.1-.668-.36-.514-.771.411-.1.72-.1.822,0a3.265,3.265,0,0,0,.617.36C145.278,99.068,144.97,99.171,144.456,99.068Zm.1-7.093a.715.715,0,0,1,.1-.822.715.715,0,0,0,.1-.822,3.663,3.663,0,0,0,.925-.771.9.9,0,0,1,.72-.36,2.137,2.137,0,0,0-.1,1.131A2.142,2.142,0,0,1,146,91.615a4.053,4.053,0,0,1-.617.771C145.124,92.592,144.867,92.437,144.558,91.975Zm1.9,5.037c-.257-.1-.411-.257-.308-.36a.6.6,0,0,1,.514-.206A.64.64,0,0,0,146.46,97.012Zm.1-2.621a.9.9,0,0,1-.72.36c-.154-.36-.1-.565.1-.565s.36-.1.514-.36C146.769,93.928,146.769,94.134,146.563,94.391Zm-.822-18.659a8.776,8.776,0,0,1-.925-.36,1,1,0,0,1,.411-1.131,6.063,6.063,0,0,0,.925.668,1.4,1.4,0,0,1,.72.822A2.109,2.109,0,0,1,145.741,75.732Z" transform="translate(-46.678 -26.9)"/>
        <path id="Path_708" data-name="Path 708" d="M160.681,66.8c-.308.257-.308.411,0,.411C160.99,67.263,160.99,67.108,160.681,66.8Z" transform="translate(-101.969 -46.291)"/>
        <path id="Path_709" data-name="Path 709" d="M163.516,54.536q1.7.386,1.7-1.234c-.72-.154-1.028-.771-1.028-1.9-1.131,0-1.542.051-1.234.206a1.142,1.142,0,0,1,.411,1.028c-.565.154-.925.051-1.131-.308a2.241,2.241,0,0,0-.463-.565,8.934,8.934,0,0,0-.668.771,3.481,3.481,0,0,1,.206,1.336A18.246,18.246,0,0,0,163.516,54.536Z" transform="translate(-102.285 -38.807)"/>
        <path id="Path_710" data-name="Path 710" d="M157.436,59.928c.514-.206.463-.463-.1-.72a1.225,1.225,0,0,0-.565-.308c-.206.411-.463.874-.668,1.336a2.826,2.826,0,0,0,.36.463A1.729,1.729,0,0,1,157.436,59.928Z" transform="translate(-99.855 -42.451)"/>
      </g>
    </g>
  </g>
  <g id="Group_1424" data-name="Group 1424" transform="translate(35.819 56.164)">
    <path id="Polygon_1" data-name="Polygon 1" d="M17.381,0,34.761,28.716H0Z" fill="#fff8e6"/>
    <rect id="Rectangle_1798" data-name="Rectangle 1798" width="10.579" height="28.716" transform="translate(12.091 15.114)" fill="#fff8e6"/>
  </g>
</svg>
