<svg id="Group_1476" data-name="Group 1476" xmlns="http://www.w3.org/2000/svg" width="17.888" height="22.365" viewBox="0 0 17.888 22.365">
  <path id="Path_139" data-name="Path 139" d="M-504.509,194.469a2.608,2.608,0,0,0,2.525.828,5.063,5.063,0,0,0,3.69-2.216,13.56,13.56,0,0,0,2.56-5.863,9.89,9.89,0,0,0-.71-6.015c-.947-1.838-2.3-2.29-4.174-2.441a8.257,8.257,0,0,0-4,1.076,6.1,6.1,0,0,0-5.164-.839c-2.862.624-3.55,3.507-3.658,5.637a13.287,13.287,0,0,0,2.517,8.2C-508.794,195.911-505.431,195.7-504.509,194.469Z" transform="translate(513.455 -172.971)" fill="#fff8e6"/>
  <path id="Path_140" data-name="Path 140" d="M-464.625,156.808a13.729,13.729,0,0,1,2.948-5.852l2.087.99A11.28,11.28,0,0,0-463.678,157s-.624.3-.731.323S-464.625,156.808-464.625,156.808Z" transform="translate(473.03 -149.963)" fill="#fff8e6"/>
  <path id="Path_141" data-name="Path 141" d="M-484.839,149.749c.344-1.442.172-4.69-4.583-4.561A3.863,3.863,0,0,0-484.839,149.749Z" transform="translate(493.609 -145.184)" fill="#fff8e6"/>
</svg>
