<svg xmlns="http://www.w3.org/2000/svg" width="11.871" height="14.842" viewBox="0 0 11.871 14.842">
  <g id="Group_1477" data-name="Group 1477" opacity="0.5">
    <path id="Path_139" data-name="Path 139" d="M-507.518,189.181a1.731,1.731,0,0,0,1.676.55,3.36,3.36,0,0,0,2.449-1.471,9,9,0,0,0,1.7-3.891,6.563,6.563,0,0,0-.471-3.992,2.927,2.927,0,0,0-2.77-1.62,5.479,5.479,0,0,0-2.656.714,4.047,4.047,0,0,0-3.427-.557c-1.9.414-2.356,2.327-2.427,3.741a8.818,8.818,0,0,0,1.671,5.44C-510.362,190.138-508.13,190-507.518,189.181Z" transform="translate(513.455 -174.915)" fill="#fff8e6"/>
    <path id="Path_140" data-name="Path 140" d="M-464.625,154.84a9.11,9.11,0,0,1,1.956-3.884l1.385.657A7.486,7.486,0,0,0-464,154.968s-.414.2-.485.214S-464.625,154.84-464.625,154.84Z" transform="translate(470.203 -150.297)" fill="#fff8e6"/>
    <path id="Path_141" data-name="Path 141" d="M-486.4,148.214c.228-.957.114-3.113-3.041-3.027A2.564,2.564,0,0,0-486.4,148.214Z" transform="translate(492.221 -145.184)" fill="#fff8e6"/>
  </g>
</svg>
